<?xml version="1.0" encoding="iso-8859-1"?>
<!-- Uploaded to: SVG Repo, www.svgrepo.com, Generator: SVG Repo Mixer Tools -->
<svg height="800px" width="800px" version="1.1" id="Layer_1" xmlns="http://www.w3.org/2000/svg" xmlns:xlink="http://www.w3.org/1999/xlink" 
	 viewBox="0 0 511.998 511.998" xml:space="preserve">
<path d="M400.905,285.268c-23.579,0-42.716,19.137-42.716,42.716c0,23.579,19.137,42.716,42.716,42.716s42.716-19.137,42.716-42.716
	C443.621,304.404,424.484,285.268,400.905,285.268z M400.905,353.613c-14.096,0-25.629-11.533-25.629-25.629
	c0-14.096,11.533-25.629,25.629-25.629s25.629,11.533,25.629,25.629S415.001,353.613,400.905,353.613z"/>
<path d="M110.438,285.268c-23.579,0-42.716,19.137-42.716,42.716c0,23.579,19.137,42.716,42.716,42.716s42.716-19.137,42.716-42.716
	C153.154,304.404,134.017,285.268,110.438,285.268z M110.438,353.613c-14.096,0-25.629-11.533-25.629-25.629
	c0-14.096,11.533-25.629,25.629-25.629s25.629,11.533,25.629,25.629S124.534,353.613,110.438,353.613z"/>
<path d="M503.423,257.588v-40.665c0-0.256-0.342-1.88-0.513-2.478c-0.171-0.513-0.342-1.025-0.598-1.538
	c-0.171-0.256-34.514-51.942-34.514-51.942c-1.281-1.965-3.332-3.332-5.638-3.759c-214.092-35.881-268.939-0.085-271.416,1.623
	l-66.38,49.807L15.78,216.922c-3.076,0.256-5.724,2.136-7.091,4.955c-0.769,1.623-18.88,41.691-0.427,108.413
	c1.025,3.674,4.357,6.237,8.201,6.237h25.629c4.699,0,8.543-3.844,8.543-8.543c0-32.977,26.826-59.802,59.802-59.802
	s59.802,26.826,59.802,59.802c0,4.699,3.844,8.543,8.543,8.543H332.56c4.699,0,8.543-3.844,8.543-8.543
	c0-32.977,26.826-59.802,59.802-59.802s59.802,26.826,59.802,59.802c0,4.699,3.844,8.543,8.543,8.543h25.629
	c3.076,0,5.895-1.623,7.433-4.357C521.022,298.937,507.609,266.216,503.423,257.588z M455.667,173.523l23.237,34.856h-90.13
	l-26.826-46.987C388.859,163.784,419.871,167.543,455.667,173.523z M289.844,158.487c14.951-0.256,32.122,0.171,51.857,1.367
	c0.171,0.513,0.256,1.025,0.513,1.538l26.911,46.987h-79.28L289.844,158.487L289.844,158.487z M200.654,172.754
	c0.256-0.171,18.197-11.021,72.104-13.754v49.379H153.154L200.654,172.754z M489.669,319.44h-12.388
	c-4.186-38.359-36.906-68.345-76.376-68.345s-72.19,29.986-76.376,68.345H186.814c-4.186-38.359-36.906-68.345-76.376-68.345
	s-72.19,29.986-76.376,68.345H23.041c-4.955-20.247-6.151-37.334-5.724-51.259h7.689c4.699,0,8.543-3.844,8.543-8.543
	s-3.844-8.543-8.543-8.543H18.77c1.111-7.86,2.648-13.84,3.844-17.513l104.91-8.116h358.813v17.086h-8.543
	c-4.699,0-8.543,3.844-8.543,8.543c0,4.699,3.844,8.543,8.543,8.543h8.543c0,1.452,0.342,2.905,1.111,4.186
	C488.046,264.935,502.398,291.59,489.669,319.44z"/>
<path style="fill:#FFFFFF;" d="M417.992,327.983c0-12.635-9.286-23.135-21.358-25.194c-12.071,2.059-21.358,12.558-21.358,25.194
	c0,12.635,9.286,23.135,21.358,25.194C408.705,351.118,417.992,340.619,417.992,327.983z"/>
<path style="fill:#F4F4F4;" d="M400.905,302.354c-1.461,0-2.87,0.197-4.272,0.436c12.071,2.059,21.358,12.558,21.358,25.194
	c0,12.635-9.286,23.135-21.358,25.194c1.401,0.239,2.811,0.436,4.272,0.436c14.096,0,25.629-11.533,25.629-25.629
	C426.535,313.887,415.001,302.354,400.905,302.354z"/>
<path style="fill:#FFFFFF;" d="M127.524,327.983c0-12.635-9.286-23.135-21.358-25.194c-12.071,2.059-21.358,12.558-21.358,25.194
	c0,12.635,9.286,23.135,21.358,25.194C118.238,351.118,127.524,340.619,127.524,327.983z"/>
<path style="fill:#F4F4F4;" d="M110.438,302.354c-1.461,0-2.871,0.197-4.272,0.436c12.071,2.059,21.358,12.558,21.358,25.194
	c0,12.635-9.286,23.135-21.358,25.194c1.401,0.239,2.811,0.436,4.272,0.436c14.096,0,25.629-11.533,25.629-25.629
	C136.067,313.887,124.534,302.354,110.438,302.354z"/>
<path style="fill:#FFFFFF;" d="M442.664,171.481c-30.277-4.759-57.179-7.996-80.716-10.089l21.213,37.146h77.546L442.664,171.481z"
	/>
<g>
	<path style="fill:#F4F4F4;" d="M383.161,198.537l5.613,9.842L383.161,198.537z"/>
	<path style="fill:#F4F4F4;" d="M442.664,171.481L442.664,171.481c4.331,0.683,8.518,1.299,13.003,2.042
		C451.182,172.771,446.996,172.156,442.664,171.481z"/>
	<path style="fill:#F4F4F4;" d="M455.667,173.523c-4.485-0.752-8.671-1.367-13.003-2.042l18.043,27.056h-77.546l5.613,9.842h90.13
		L455.667,173.523z"/>
</g>
<path style="fill:#FFFFFF;" d="M328.365,159.153c-14.241-0.649-27.056-0.863-38.521-0.666v40.05h61.084L328.365,159.153z"/>
<g>
	<path style="fill:#F4F4F4;" d="M328.365,159.153L328.365,159.153c4.314,0.196,8.74,0.427,13.336,0.701
		C337.114,159.572,332.688,159.35,328.365,159.153z"/>
	<path style="fill:#F4F4F4;" d="M342.214,161.392c-0.256-0.513-0.342-1.025-0.513-1.538c-4.588-0.282-9.013-0.504-13.336-0.701
		l22.563,39.384h-61.084v9.842h79.28L342.214,161.392z"/>
</g>
<g>
	<path style="fill:#FFFFFF;" d="M254.561,160.332c-39.82,3.896-53.685,12.268-53.907,12.413l-34.378,25.792h88.294v-38.205H254.561z
		"/>
	<path style="fill:#FFFFFF;" d="M254.672,160.324c2.742-0.265,5.596-0.513,8.577-0.735
		C260.259,159.811,257.406,160.059,254.672,160.324z"/>
</g>
<g>
	<path style="fill:#F4F4F4;" d="M166.276,198.537l-13.122,9.842L166.276,198.537z"/>
	<path style="fill:#F4F4F4;" d="M254.561,160.332L254.561,160.332c0.034,0,0.077-0.009,0.111-0.009
		C254.638,160.332,254.595,160.332,254.561,160.332z"/>
	<path style="fill:#F4F4F4;" d="M263.249,159.589c3.041-0.222,6.202-0.427,9.517-0.589
		C269.452,159.171,266.282,159.367,263.249,159.589z"/>
	<path style="fill:#F4F4F4;" d="M263.249,159.589c-2.982,0.222-5.835,0.47-8.577,0.735c-0.034,0-0.077,0.009-0.111,0.009v38.205
		h-88.285l-13.114,9.842h119.604V159C269.452,159.171,266.282,159.367,263.249,159.589z"/>
</g>
<g>
	<path style="fill:#D50000;" d="M20.615,307.813c-0.333-1.828-0.675-3.674-0.957-5.451C19.94,304.148,20.273,305.968,20.615,307.813
		z"/>
	<path style="fill:#D50000;" d="M35.719,310.214c-0.06,0.248-0.137,0.496-0.188,0.752C35.591,310.709,35.66,310.461,35.719,310.214z
		"/>
	<path style="fill:#D50000;" d="M185.344,310.974c-0.06-0.256-0.137-0.513-0.196-0.769
		C185.216,310.461,185.293,310.709,185.344,310.974z"/>
	<path style="fill:#D50000;" d="M475.812,310.974c-0.06-0.256-0.137-0.513-0.197-0.769
		C475.684,310.461,475.76,310.709,475.812,310.974z"/>
	<path style="fill:#D50000;" d="M326.187,310.214c-0.06,0.248-0.137,0.496-0.188,0.752
		C326.059,310.709,326.127,310.461,326.187,310.214z"/>
	<path style="fill:#D50000;" d="M492.864,310.419c6.518-24.331-4.887-45.612-5.416-46.594c-0.769-1.281-1.111-2.734-1.111-4.186
		h-8.543c-4.699,0-8.543-3.844-8.543-8.543c0-4.699,3.844-8.543,8.543-8.543h8.543v-17.086H127.524l-104.91,8.116
		c-1.196,3.674-2.734,9.654-3.844,17.513h6.237c4.699,0,8.543,3.844,8.543,8.543s-3.844,8.543-8.543,8.543h-7.689
		c-0.299,9.799,0.29,21.247,2.341,34.173h18.393c10.559-29.799,39.025-51.259,72.395-51.259s61.827,21.46,72.395,51.259h145.686
		c10.559-29.799,39.025-51.259,72.395-51.259s61.827,21.46,72.395,51.259h21.127C494.111,304.985,493.59,307.685,492.864,310.419z"
		/>
	<path style="fill:#D50000;" d="M489.669,319.44c1.256-2.742,2.179-5.459,2.947-8.15
		C491.856,313.981,490.925,316.698,489.669,319.44z"/>
</g>
<g>
	<path style="fill:#B71C1C;" d="M492.864,310.419c-0.077,0.29-0.171,0.581-0.256,0.863C492.693,311,492.787,310.709,492.864,310.419
		z"/>
	<path style="fill:#B71C1C;" d="M477.281,319.44c-0.316-2.879-0.837-5.69-1.469-8.466
		C476.461,313.742,476.965,316.561,477.281,319.44z"/>
	<path style="fill:#B71C1C;" d="M473.3,302.354c0.906,2.563,1.674,5.186,2.324,7.851C474.983,307.522,474.206,304.917,473.3,302.354
		L473.3,302.354z"/>
	<path style="fill:#B71C1C;" d="M492.864,310.419c0.718-2.734,1.239-5.433,1.563-8.065H473.3c0.906,2.563,1.692,5.177,2.324,7.851
		c0.06,0.256,0.137,0.513,0.196,0.769c0.624,2.777,1.153,5.587,1.469,8.466h12.388c1.256-2.742,2.187-5.459,2.947-8.15
		C492.693,311,492.787,310.709,492.864,310.419z"/>
	<path style="fill:#B71C1C;" d="M19.658,302.354L19.658,302.354L19.658,302.354z"/>
	<path style="fill:#B71C1C;" d="M23.041,319.44c-0.991-4.032-1.717-7.843-2.426-11.627C21.299,311.572,22.05,315.399,23.041,319.44z
		"/>
	<path style="fill:#B71C1C;" d="M35.532,310.965c-0.624,2.777-1.153,5.596-1.469,8.475
		C34.378,316.561,34.882,313.733,35.532,310.965z"/>
	<path style="fill:#B71C1C;" d="M38.043,302.354L38.043,302.354c-0.906,2.563-1.692,5.177-2.324,7.86
		C36.377,307.54,37.138,304.917,38.043,302.354z"/>
	<path style="fill:#B71C1C;" d="M19.658,302.354c0.282,1.786,0.632,3.622,0.957,5.451c0.709,3.785,1.435,7.595,2.426,11.627h11.021
		c0.316-2.879,0.837-5.698,1.469-8.475c0.06-0.256,0.128-0.496,0.188-0.752c0.632-2.683,1.418-5.297,2.324-7.86L19.658,302.354
		L19.658,302.354z"/>
	<path style="fill:#B71C1C;" d="M186.814,319.44c-0.316-2.879-0.837-5.69-1.469-8.466
		C185.994,313.742,186.498,316.561,186.814,319.44z"/>
	<path style="fill:#B71C1C;" d="M182.833,302.354c0.906,2.563,1.674,5.186,2.324,7.851
		C184.516,307.522,183.738,304.917,182.833,302.354L182.833,302.354z"/>
	<path style="fill:#B71C1C;" d="M328.511,302.354L328.511,302.354c-0.906,2.563-1.692,5.177-2.324,7.86
		C326.845,307.54,327.605,304.917,328.511,302.354z"/>
	<path style="fill:#B71C1C;" d="M325.999,310.965c-0.624,2.777-1.153,5.596-1.469,8.475
		C324.846,316.561,325.35,313.733,325.999,310.965z"/>
	<path style="fill:#B71C1C;" d="M185.148,310.205c0.06,0.256,0.137,0.513,0.196,0.769c0.624,2.777,1.153,5.587,1.469,8.466h137.716
		c0.316-2.879,0.837-5.698,1.469-8.475c0.06-0.256,0.128-0.496,0.188-0.752c0.632-2.683,1.418-5.297,2.324-7.86H182.833
		C183.738,304.917,184.516,307.522,185.148,310.205z"/>
</g>
</svg>