<?xml version="1.0" encoding="iso-8859-1"?>
<!-- Uploaded to: SVG Repo, www.svgrepo.com, Generator: SVG Repo Mixer Tools -->
<svg height="800px" width="800px" version="1.1" id="Layer_1" xmlns="http://www.w3.org/2000/svg" xmlns:xlink="http://www.w3.org/1999/xlink" 
	 viewBox="0 0 493.6 493.6" xml:space="preserve">
<path style="fill:#FFF8EF;" d="M244,229.2l53.6,59.2l-26.4,26.4l-28-28c-2.4-2.4-7.2-2.4-10.4,0l-24,24L188,290L244,229.2z"/>
<path style="fill:#E94545;" d="M356,128.4l15.2,17.6H304v-21.6h13.6c4,0,7.2-3.2,7.2-7.2v-12.8h45.6l-13.6,14.4
	C353.6,121.2,353.6,126,356,128.4z"/>
<path style="fill:#EE5656;" d="M311.2,69.2v41.6h-60V76.4c0-2.4,0-4,0-6.4v-0.8L311.2,69.2z"/>
<path style="fill:#7AC943;" d="M332,430.8c0-4-3.2-8-8-8h-28c-4,0-8,3.2-8,8h-12.8c0-4-3.2-8-8-8h-200l111.2-122.4l24.8,24.8
	c2.4,2.4,7.2,2.4,10.4,0l24-24l28,28c1.6,1.6,3.2,2.4,4.8,2.4c1.6,0,4-0.8,4.8-2.4l31.2-31.2l112,124h-68c-4,0-7.2,3.2-7.2,7.2l0,0
	H332V430.8z"/>
<g>
	<path style="fill:#42210B;" d="M324,423.6c4,0,8,3.2,8,8c0,4-3.2,8-8,8h-28c-4,0-8-3.2-8-8c0-4,3.2-8,8-8H324z"/>
	<path style="fill:#42210B;" d="M251.2,110h60V68.4h-60v0.8c0,2.4,0,4,0,6.4V110z M251.2,216.4L440,425.2h46.4c4,0,7.2,3.2,7.2,7.2
		s-3.2,7.2-7.2,7.2H351.2c-4,0-7.2-3.2-7.2-7.2l0,0l0,0c0-4,3.2-7.2,7.2-7.2h68l-112-124L276,332.4c-1.6,1.6-3.2,2.4-4.8,2.4
		c-1.6,0-4-0.8-4.8-2.4l-28-28l-24,24c-3.2,2.4-7.2,2.4-10.4,0l-24.8-24.8L68,422.8h200c4,0,8,3.2,8,8s-3.2,8-8,8H7.2
		c-4,0-7.2-3.2-7.2-7.2s3.2-7.2,7.2-7.2h40l189.6-208.8c-0.8-12-0.8-45.6,0-140V61.2c0-4,3.2-7.2,7.2-7.2h73.6c4,0,7.2,3.2,7.2,7.2
		v28h62.4c3.2,0,5.6,1.6,6.4,4s0.8,5.6-1.6,8l-20.8,21.6l21.6,24c1.6,2.4,2.4,4.8,0.8,8c-0.8,2.4-4,4-6.4,4h-90.4
		c-4,0-7.2-3.2-7.2-7.2v-28.8h-38.4C251.2,166,251.2,206,251.2,216.4z M371.2,146L356,128.4c-2.4-2.4-2.4-7.2,0-9.6l14.4-14.4h-45.6
		v12.8c0,4-3.2,7.2-7.2,7.2H304V146H371.2z M271.2,315.6l26.4-26.4L244,230l-55.2,60.8l20.8,20l24-24c2.4-2.4,7.2-2.4,10.4,0
		L271.2,315.6z"/>
</g>
<polygon style="fill:#67BC34;" points="188,309.2 179.2,301.2 68,422.8 110.4,423.6 "/>
<polygon style="fill:#D9CDC1;" points="188.8,290 196,298 237.6,236.4 "/>
<polygon style="fill:#B0E283;" points="380,423.6 420,423.6 307.2,299.6 297.6,309.2 "/>
<polygon style="fill:#D9CDC1;" points="242.4,231.6 289.6,297.2 297.6,289.2 244,229.2 "/>
</svg>