<?xml version="1.0" encoding="iso-8859-1"?>
<!-- Uploaded to: SVG Repo, www.svgrepo.com, Generator: SVG Repo Mixer Tools -->
<svg version="1.1" id="Layer_1" xmlns="http://www.w3.org/2000/svg" xmlns:xlink="http://www.w3.org/1999/xlink" 
	 viewBox="0 0 512 512" xml:space="preserve">
<path style="fill:#43B05C;" d="M422.947,175.308c0,84.655-63.015,154.593-144.693,165.475v-82.002c0,0,0-33.392,38.955-33.392
	v-32.812c0,0-65.958-8.919-65.958,52.401c0,0-12.264-23.413-51.286-23.413l0.39,26.089c33.38,0,33.38,38.955,33.38,38.955v54.173
	c-81.689-10.893-144.682-80.82-144.682-165.475c0-92.203,74.744-166.947,166.947-166.947S422.947,83.105,422.947,175.308z"/>
<path style="fill:#A26234;" d="M233.736,340.783V286.61c0,0,0-38.955-33.38-38.955l-0.39-26.089
	c39.022,0,51.286,23.413,51.286,23.413c0-61.32,65.958-52.401,65.958-52.401v32.812c-38.955,0-38.955,33.392-38.955,33.392v82.002
	v162.855h-44.518L233.736,340.783L233.736,340.783z"/>
<path d="M256.001,0C159.336,0,80.692,78.644,80.692,175.308c0,42.743,15.555,83.916,43.799,115.931
	c26.361,29.881,61.959,49.832,100.883,56.704V512h61.242V347.943c38.92-6.868,74.518-26.818,100.884-56.7
	c28.251-32.019,43.808-73.192,43.808-115.935C431.309,78.644,352.665,0,256.001,0z M269.892,495.276h-27.795V286.61
	c0-0.467-0.055-11.583-4.849-22.771c-5.64-13.164-15.651-21.409-28.645-23.812l-0.145-9.668
	c26.317,2.761,35.035,17.875,35.385,18.501l15.769,30.105v-33.985c0-14.671,4.248-25.839,12.624-33.193
	c11.122-9.763,27.314-11.294,36.61-11.29v17.011c-38.482,4.603-38.955,40.883-38.955,41.274V495.276L269.892,495.276z
	 M374.959,280.179c-23.196,26.291-54.284,44.078-88.343,50.752v-72.149c0-0.061,0.161-6.363,3.73-12.483
	c4.857-8.326,13.894-12.547,26.863-12.547h8.362v-48.481l-7.241-0.979c-1.415-0.191-34.933-4.467-57.038,14.849
	c-8.074,7.056-13.517,16.19-16.278,27.275c-9.173-6.723-23.586-13.213-45.049-13.213h-8.488l0.64,42.813h8.238
	c10.194,0,17.18,4.589,21.356,14.029c3.562,8.05,3.661,16.508,3.662,16.564v44.32c-34.064-6.677-65.151-24.466-88.342-50.754
	c-25.547-28.958-39.616-66.2-39.616-104.867c0-87.444,71.141-158.585,158.585-158.585c87.445,0,158.585,71.141,158.585,158.585
	C414.585,213.973,400.513,251.217,374.959,280.179z"/>
<rect x="166.958" y="117.511" width="33.392" height="16.724"/>
<rect x="267.122" y="128.649" width="33.392" height="16.724"/>
<rect x="211.488" y="170.838" width="33.392" height="16.724"/>
<rect x="139.821" y="206.548" width="33.392" height="16.724"/>
<rect x="233.741" y="61.866" width="33.392" height="16.724"/>
<rect x="345.043" y="139.776" width="33.392" height="16.724"/>
<rect x="333.916" y="234.387" width="33.392" height="16.724"/>
</svg>