<?xml version="1.0" encoding="iso-8859-1"?>
<!-- Uploaded to: SVG Repo, www.svgrepo.com, Generator: SVG Repo Mixer Tools -->
<svg height="800px" width="800px" version="1.1" id="Layer_1" xmlns="http://www.w3.org/2000/svg" xmlns:xlink="http://www.w3.org/1999/xlink" 
	 viewBox="0 0 512 512" xml:space="preserve">
<path style="fill:#00AF31;" d="M501.56,478.903c0-31.929-25.884-57.813-57.813-57.813c-1.147,0-2.285,0.043-3.417,0.109
	c-12.933-29.522-42.392-50.156-76.687-50.156c-37.035,0-68.43,24.063-79.459,57.4c-8.346-4.675-17.963-7.352-28.209-7.352
	c-31.929,0-57.813,25.884-57.813,57.813H501.56z"/>
<path style="fill:#21CC5A;" d="M280.373,211.329c0-45.345-30.612-82.725-70.133-88.103c2.292-6.833,3.552-14.14,3.552-21.745
	c0-37.768-30.617-68.385-68.385-68.385s-68.385,30.617-68.385,68.385c0,7.605,1.26,14.911,3.552,21.745
	c-39.521,5.377-70.134,42.757-70.134,88.103c0,30.195,13.582,56.852,34.319,72.894c-9.275,11.675-14.831,26.437-14.831,42.506
	c0,37.779,30.625,68.404,68.404,68.404c18.246,0,34.81-7.158,47.074-18.8c12.264,11.643,28.828,18.8,47.074,18.8
	c37.779,0,68.404-30.625,68.404-68.404c0-16.069-5.555-30.832-14.831-42.506C266.791,268.181,280.373,241.524,280.373,211.329z"/>
<g>
	<circle style="fill:#EA0011;" cx="70.014" cy="199.872" r="16.705"/>
	<circle style="fill:#EA0011;" cx="129.838" cy="110.345" r="16.705"/>
	<circle style="fill:#EA0011;" cx="263.663" cy="208.892" r="16.705"/>
	<circle style="fill:#EA0011;" cx="196.991" cy="293.397" r="16.705"/>
	<circle style="fill:#EA0011;" cx="70.014" cy="367.19" r="16.705"/>
</g>
<path d="M446.856,410.72c-16.227-30.66-48.17-50.117-83.213-50.117c-36.808,0-69.713,21.239-85.11,53.886
	c-7.223-2.528-14.862-3.839-22.559-3.839c-34.086,0-62.415,25.116-67.456,57.814h-31.539v-71.338
	c10.902,5.514,23.008,8.448,35.501,8.448c43.475,0,78.845-35.369,78.845-78.844c0-14.595-3.896-28.51-11.347-40.762
	c19.461-18.737,30.835-45.938,30.835-74.639c0-45.688-28.437-84.977-67.793-96.081c0.805-4.535,1.211-9.135,1.211-13.767
	c0-43.465-35.361-78.825-78.825-78.825s-78.825,35.361-78.825,78.825c0,4.63,0.406,9.231,1.211,13.767
	C28.437,126.352,0,165.64,0,211.329c0,28.701,11.376,55.9,30.836,74.639c-7.451,12.251-11.347,26.165-11.347,40.762
	c0,43.475,35.369,78.844,78.844,78.844c13.366,0,26.288-3.359,37.766-9.644v72.533H93.932c-5.765,0-10.44,4.674-10.44,10.44
	c0,5.766,4.675,10.44,10.44,10.44H501.56c5.765,0,10.44-4.674,10.44-10.44C512,442.31,483.053,412.352,446.856,410.72z
	 M269.864,208.02c0.019,0.512,0.022,1.027,0.032,1.542c-0.334,3.142-2.999,5.597-6.228,5.597c-3.455,0-6.264-2.81-6.264-6.264
	s2.81-6.264,6.264-6.264C266.825,202.631,269.436,204.98,269.864,208.02z M63.75,367.19c0-3.455,2.81-6.264,6.264-6.264
	c3.455,0,6.264,2.81,6.264,6.264c0,3.455-2.81,6.264-6.264,6.264C66.56,373.455,63.75,370.645,63.75,367.19z M98.333,384.693
	c-2.442,0-4.844-0.169-7.207-0.465c3.77-4.662,6.034-10.59,6.034-17.038c0-14.967-12.177-27.145-27.145-27.145
	c-9.841,0-18.475,5.265-23.235,13.125c-4.086-7.935-6.408-16.919-6.408-26.441c0-13.213,4.344-25.666,12.564-36.012
	c1.737-2.186,2.527-4.978,2.191-7.75c-0.335-2.772-1.768-5.294-3.978-7.003c-18.953-14.659-30.268-38.822-30.268-64.634
	c0-39.589,26.267-73.018,61.1-77.757c3.082-0.42,5.817-2.192,7.46-4.834c1.642-2.642,2.021-5.879,1.032-8.829
	c-1.997-5.957-3.01-12.157-3.01-18.426c0-31.951,25.994-57.945,57.945-57.945s57.945,25.994,57.945,57.945
	c0,6.269-1.013,12.469-3.01,18.426c-0.989,2.95-0.611,6.187,1.032,8.829c1.641,2.642,4.377,4.415,7.46,4.834
	c25.668,3.492,46.67,22.572,55.952,48.208c-0.371-0.015-0.741-0.028-1.116-0.028c-14.968,0-27.145,12.178-27.145,27.145
	s12.177,27.145,27.145,27.145c0.926,0,1.84-0.047,2.739-0.138c-4.72,16.056-14.002,30.207-26.74,40.062
	c-2.209,1.709-3.641,4.23-3.978,7.003c-0.335,2.772,0.454,5.564,2.19,7.75c8.221,10.346,12.565,22.799,12.565,36.012
	c0,31.961-26.002,57.963-57.964,57.963c-12.962,0-25.367-4.287-35.501-12.167V254.627c0.09-0.084,0.184-0.158,0.271-0.245
	l39.851-39.85c4.077-4.077,4.077-10.688,0-14.765c-4.077-4.077-10.686-4.077-14.766,0l-25.357,25.357v-35.767
	c0-5.766-4.675-10.44-10.44-10.44c-5.765,0-10.44,4.674-10.44,10.44v118.155l-30.807-30.807c-4.077-4.077-10.686-4.077-14.766,0
	c-4.077,4.077-4.077,10.688,0,14.765l45.572,45.573v33.636C125.579,379.735,112.278,384.693,98.333,384.693z M209.76,468.463
	c4.767-21.116,23.678-36.933,46.215-36.933c8.085,0,16.074,2.082,23.106,6.021c2.719,1.523,5.976,1.751,8.882,0.624
	c2.905-1.129,5.155-3.495,6.134-6.454c9.94-30.049,37.889-50.238,69.547-50.238c29.092,0,55.44,17.234,67.123,43.905
	c1.754,4.002,5.8,6.479,10.174,6.234c1.048-0.062,1.966-0.091,2.806-0.091c22.537,0,41.447,15.816,46.215,36.933H209.76V468.463z"/>
<path d="M97.16,199.873c0-14.967-12.177-27.145-27.145-27.145S42.87,184.905,42.87,199.873s12.177,27.145,27.145,27.145
	S97.16,214.84,97.16,199.873z M63.75,199.873c0-3.455,2.81-6.264,6.264-6.264c3.455,0,6.264,2.81,6.264,6.264
	s-2.81,6.264-6.264,6.264C66.56,206.137,63.75,203.327,63.75,199.873z"/>
<path d="M129.834,137.495c14.968,0,27.145-12.178,27.145-27.145s-12.177-27.145-27.145-27.145s-27.145,12.178-27.145,27.145
	S114.867,137.495,129.834,137.495z M129.834,104.086c3.455,0,6.264,2.81,6.264,6.264c0,3.455-2.81,6.264-6.264,6.264
	s-6.264-2.81-6.264-6.264C123.57,106.895,126.381,104.086,129.834,104.086z"/>
<path d="M169.85,293.397c0,14.967,12.177,27.145,27.145,27.145s27.145-12.178,27.145-27.145s-12.177-27.145-27.145-27.145
	S169.85,278.429,169.85,293.397z M203.259,293.397c0,3.455-2.81,6.264-6.264,6.264s-6.264-2.81-6.264-6.264s2.81-6.264,6.264-6.264
	S203.259,289.942,203.259,293.397z"/>
<path d="M213.602,193.705c2.673,0,5.343-1.019,7.382-3.058l0.097-0.097c4.077-4.077,4.077-10.688,0-14.766
	c-4.078-4.077-10.687-4.077-14.766,0l-0.097,0.097c-4.077,4.077-4.077,10.688,0,14.766
	C208.259,192.686,210.93,193.705,213.602,193.705z"/>
<path d="M81.311,252.721c-4.078-4.077-10.687-4.077-14.766,0c-4.077,4.077-4.077,10.688,0,14.766l0.097,0.097
	c2.039,2.039,4.711,3.058,7.382,3.058c2.672,0,5.343-1.019,7.382-3.058c4.077-4.077,4.077-10.688,0-14.766L81.311,252.721z"/>
<path d="M65.971,468.463h-0.283c-5.765,0-10.44,4.674-10.44,10.44c0,5.766,4.675,10.44,10.44,10.44h0.283
	c5.765,0,10.44-4.674,10.44-10.44C76.412,473.137,71.736,468.463,65.971,468.463z"/>
</svg>