<?xml version="1.0" encoding="iso-8859-1"?>
<!-- Uploaded to: SVG Repo, www.svgrepo.com, Generator: SVG Repo Mixer Tools -->
<svg version="1.1" id="Layer_1" xmlns="http://www.w3.org/2000/svg" xmlns:xlink="http://www.w3.org/1999/xlink" 
	 viewBox="0 0 512 512" xml:space="preserve">
<path style="fill:#82BD56;" d="M475.816,175.308c0,84.655-63.015,154.593-144.693,165.475v-82.002c0,0-6.11-33.012,32.845-33.012
	v-33.447c0,0-61.32-1.115-61.32,47.941c0,0-13.379-22.298-39.022-22.298v30.103c0,0,22.978,12.42,22.978,38.542v54.173
	c-17.348-2.308-33.86-7.28-49.101-14.505c6.511-13.713,10.146-29.043,10.146-45.232c0-58.399-47.339-105.738-105.727-105.738
	c0-92.203,74.744-166.947,166.947-166.947S475.816,83.105,475.816,175.308z"/>
<path style="fill:#43B05C;" d="M237.504,326.278c-14.661,30.95-43.927,53.638-78.891,59.191V303.3c0,0,0-33.392,38.955-33.392
	v-35.22c0,0-59.926,0-59.926,42.367c0,0-13.379-21.183-45.711-21.183l-0.1,36.301c33.392,0,33.392,38.955,33.392,38.955v54.341
	c-50.461-8.005-89.037-51.71-89.037-104.422c0-58.399,47.339-105.738,105.738-105.738c58.388,0,105.727,47.339,105.727,105.738
	C247.649,297.235,244.015,312.565,237.504,326.278z"/>
<g>
	<path style="fill:#A26234;" d="M363.968,192.322v33.447c-38.955,0-32.845,33.012-32.845,33.012v82.002v162.855h-44.518V340.783
		V286.61c0-26.122-22.978-38.542-22.978-38.542v-30.103c25.643,0,39.022,22.298,39.022,22.298
		C302.648,191.207,363.968,192.322,363.968,192.322z"/>
	<path style="fill:#A26234;" d="M197.568,234.689v35.22c-38.955,0-38.955,33.392-38.955,33.392v82.169v118.169h-33.392V385.469
		v-54.341c0,0,0-38.955-33.392-38.955l0.1-36.301c32.332,0,45.711,21.183,45.711,21.183
		C137.641,234.689,197.568,234.689,197.568,234.689z"/>
</g>
<path d="M308.869,0c-93.961,0-170.886,74.307-175.116,167.242c-59.117,4.202-105.931,53.637-105.931,113.804
	c0,27.324,9.81,53.759,27.622,74.435c16.047,18.627,37.65,31.529,61.415,36.869V512h50.114V392.377
	c31.467-7.052,58.455-27.144,74.317-55.265c11.874,4.968,24.249,8.599,36.953,10.835V512h61.242V347.943
	c38.92-6.868,74.519-26.818,100.884-56.7c28.251-32.019,43.809-73.192,43.809-115.934C484.177,78.644,405.534,0,308.869,0z
	 M150.25,495.276h-16.667V331.128c0-0.467-0.056-11.584-4.851-22.771c-5.622-13.119-15.586-21.352-28.521-23.787l0.055-19.775
	c20.979,2.907,29.925,16.151,30.305,16.726l15.431,24.433v-28.9c0-13.741,7.868-23.249,24.051-29.067
	c6.904-2.482,13.929-3.716,19.152-4.33v18.368c-38.482,4.605-38.955,40.884-38.955,41.275v191.975H150.25z M166.973,375.156V303.3
	c0-0.061,0.161-6.363,3.73-12.483c4.857-8.325,13.895-12.547,26.864-12.547h8.362v-51.944h-8.362c-0.671,0-16.602,0.066-32.75,5.774
	c-16.248,5.743-27.321,15.442-32.389,28.042c-8.532-6.304-21.764-12.633-40.498-12.633h-8.338l-0.146,53.025h8.385
	c10.198,0,17.189,4.589,21.366,14.03c3.563,8.05,3.664,16.507,3.664,16.563v44.012c-18.825-5.012-35.874-15.637-48.745-30.575
	c-15.198-17.641-23.569-40.2-23.569-63.519c0-53.693,43.683-97.376,97.376-97.376c53.687,0,97.365,43.683,97.365,97.376
	c0,14.585-3.141,28.596-9.341,41.652C217.588,348.788,194.474,367.86,166.973,375.156z M322.761,495.276h-27.795V286.61
	c0-23.424-15.226-37.442-22.978-43.061v-16.202c15.05,3.754,23.117,16.612,23.489,17.219l15.533,25.886v-30.188
	c0-10.413,3.142-18.573,9.605-24.944c9.97-9.827,25.518-13.059,34.991-14.12v16.706c-10.974,1.375-19.456,5.597-25.283,12.6
	c-9.202,11.061-8.06,25.176-7.562,28.892L322.761,495.276L322.761,495.276z M427.828,280.179
	c-23.196,26.291-54.284,44.078-88.343,50.752v-72.149l0.011-0.707l-0.139-0.755c-0.017-0.097-1.573-9.732,3.895-16.206
	c3.916-4.634,10.885-6.983,20.716-6.983h8.362v-50.02l-8.209-0.149c-1.417-0.033-35.029-0.402-55.177,19.38
	c-5.416,5.319-9.346,11.529-11.766,18.57c-7.701-6.289-18.898-12.309-33.552-12.309h-8.362v43.45l4.386,2.37
	c0.186,0.1,18.593,10.292,18.593,31.186v44.303c-10.229-1.998-20.202-4.994-29.797-8.955c5.018-13.009,7.566-26.732,7.566-40.912
	c0-60.033-46.601-109.385-105.524-113.779c4.2-83.723,73.633-150.544,158.381-150.544c87.445,0,158.585,71.141,158.585,158.585
	C467.454,213.973,453.381,251.217,427.828,280.179z"/>
<rect x="314.427" y="130.444" width="27.816" height="16.724"/>
<rect x="269.909" y="66.783" width="27.817" height="16.724"/>
<rect x="381.21" y="100.163" width="27.828" height="16.724"/>
<rect x="403.464" y="189.211" width="27.828" height="16.724"/>
<rect x="258.057" y="173.926" width="27.828" height="16.724"/>
<rect x="214.263" y="122.428" width="27.828" height="16.724"/>
<rect x="91.824" y="221.867" width="27.828" height="16.724"/>
<rect x="145.496" y="205.143" width="27.828" height="16.724"/>
</svg>