<?xml version="1.0" encoding="UTF-8" standalone="no"?>
<!-- Uploaded to: SVG Repo, www.svgrepo.com, Generator: SVG Repo Mixer Tools -->

<svg
   height="800px"
   width="800px"
   version="1.1"
   id="Layer_1"
   viewBox="0 0 512 512"
   xml:space="preserve"
   sodipodi:docname="cloudy.svg"
   inkscape:version="1.3 (0e150ed6c4, 2023-07-21)"
   xmlns:inkscape="http://www.inkscape.org/namespaces/inkscape"
   xmlns:sodipodi="http://sodipodi.sourceforge.net/DTD/sodipodi-0.dtd"
   xmlns="http://www.w3.org/2000/svg"
   xmlns:svg="http://www.w3.org/2000/svg"><defs
   id="defs25">&#10;		&#10;		&#10;		&#10;		&#10;		&#10;		&#10;		&#10;		&#10;	</defs><sodipodi:namedview
   id="namedview25"
   pagecolor="#505050"
   bordercolor="#eeeeee"
   borderopacity="1"
   inkscape:showpageshadow="0"
   inkscape:pageopacity="0"
   inkscape:pagecheckerboard="0"
   inkscape:deskcolor="#505050"
   inkscape:zoom="0.76102367"
   inkscape:cx="226.66838"
   inkscape:cy="379.09465"
   inkscape:window-width="1920"
   inkscape:window-height="1057"
   inkscape:window-x="1912"
   inkscape:window-y="-8"
   inkscape:window-maximized="1"
   inkscape:current-layer="g25" />&#10;<g
   transform="translate(1 1)"
   id="g25">&#10;	<path
   style="fill:#54c9fd;stroke-width:0.853588;stroke-dasharray:none"
   d="m 284.171,397.93896 h 100.15392 c 43.24892,0 76.25345,-39.83458 76.25345,-91.04988 0,-45.52425 -23.90048,-85.35881 -61.45836,-93.3252 -1.13767,-72.83909 -52.35297,-134.297445 -114.95033,-134.297445 -39.83457,0 -77.39245,25.038145 -97.87857,61.458355 -9.10539,-6.82871 -20.48612,-11.38074 -31.86685,-11.38074 -31.86685,0 -58.044007,29.59152 -58.044007,67.1494 0,1.13767 0,2.27668 0,3.41435 0,1.13768 0,3.41436 0,4.55203 -28.45249,17.07176 -46.663264,51.2153 -46.663264,91.04986 0,54.62965 35.281207,102.43059 81.944461,102.43059 h 73.97811"
   id="path1" />&#10;	<path
   style="fill:#ffffff;stroke-width:0.853588;stroke-dasharray:none"
   d="m 49.718329,295.50836 c 0,-39.83457 18.209434,-73.97809 46.66327,-89.91086 0,-1.13767 0,-3.41435 0,-4.55202 0,-1.13768 0,-2.27668 0,-3.41436 0,-34.14353 21.623781,-61.45835 50.077611,-66.01037 -3.41435,0 -5.69104,-1.13768 -9.10539,-1.13768 -37.557879,0 -67.149372,29.5915 -67.149372,67.14939 0,1.13767 0,2.27667 0,3.41435 0,1.13767 0,3.41435 0,4.55203 -33.005863,15.93143 -54.629654,50.07495 -54.629654,89.90952 0,54.62965 40.972237,102.4306 95.601886,102.4306 h 20.48612 c -46.663274,0 -81.944471,-47.80095 -81.944471,-102.4306"
   id="path2" />&#10;	<path
   style="fill:#54c9fd;stroke-width:0.853588;stroke-dasharray:none"
   d="m 186.29244,140.72479 c 15.93409,-27.31482 40.97224,-47.800938 68.28706,-56.906326 -30.72918,7.966386 -58.044,27.314816 -76.25344,52.352966 2.27535,1.13902 4.55202,2.27669 7.96638,4.55336"
   id="path3" />&#10;	<path
   style="fill:#33a9f8;stroke-width:0.853588;stroke-dasharray:none"
   d="m 421.88281,213.56388 c 0,-72.83909 -60.32068,-134.297445 -133.15977,-134.297445 -1.13767,0 -1.13767,0 -2.27669,0 61.45836,1.137684 111.53599,62.596025 111.53599,134.297445 37.55788,7.96639 61.45836,47.80095 61.45836,93.3252 0,51.2153 -31.86686,91.04988 -76.25345,91.04988 h 21.62379 c 51.21529,0 88.77318,-39.83458 88.77318,-91.04988 0,-45.52425 -28.4525,-85.35881 -71.70141,-93.3252"
   id="path4" />&#10;	&#10;	&#10;	&#10;	&#10;	&#10;	&#10;	<path
   d="m 379.7729,227.22129 c -5.69104,0 -10.24306,-4.55203 -11.38073,-10.24305 -1.13769,-5.69103 3.41434,-12.51975 9.10538,-12.51975 21.62378,-3.41435 47.80095,0 48.93862,0 5.69103,1.13767 10.24306,6.82872 10.24306,12.51975 -1.13768,5.69102 -6.82871,10.24305 -12.51975,10.24305 0,0 -23.90046,-3.41435 -42.10991,0 -1.13899,0 -2.27667,0 -2.27667,0 z"
   id="path18"
   style="stroke-width:0.853588;stroke-dasharray:none" />&#10;	<path
   d="m 197.67317,215.84057 c -6.8287,0 -11.38073,-4.55203 -11.38073,-11.38074 0,-30.72917 -18.20943,-63.73504 -48.93862,-63.73504 -30.72917,0 -55.767311,25.03815 -55.767311,55.76733 0,6.8287 -4.552028,11.38073 -11.380731,11.38073 -6.828704,0 -11.380732,-4.55203 -11.380732,-11.38073 0,-43.24892 35.281205,-78.53012 78.530114,-78.53012 45.52426,0 71.70141,44.38658 71.70141,86.49649 -0.001,6.82872 -4.5547,11.38208 -11.3834,11.38208 z"
   id="path19"
   style="stroke-width:0.853588;stroke-dasharray:none" />&#10;	<path
   d="m 404.81104,409.31968 h -116.088 c -6.82871,0 -11.38074,-4.55202 -11.38074,-11.38072 0,-6.82871 4.55203,-11.38074 11.38074,-11.38074 h 116.088 c 44.38659,0 77.39245,-34.14354 77.39245,-79.66779 0,-40.97224 -26.17716,-75.11578 -61.45835,-81.94448 l -9.10539,-2.27669 v -9.10538 C 410.50208,145.27682 354.73341,90.647178 288.72304,90.647178 c -40.97225,0 -81.94448,21.623782 -104.70729,56.906332 l -6.8287,9.10538 -9.10539,-6.82871 c -9.10538,-5.69104 -19.34845,-9.10539 -30.72917,-9.10539 -30.72919,0 -55.76731,25.03815 -55.76731,55.76733 0,1.13767 0,1.13767 0,2.27668 v 2.27668 1.13767 c 0,2.27668 0,3.41435 0,3.41435 v 6.8287 l -6.828714,3.41437 c -29.591495,13.65741 -47.80094,44.38658 -47.80094,79.66779 0,50.07763 37.55788,91.04986 84.221154,91.04986 h 86.49649 c 6.8287,0 11.38073,4.55203 11.38073,11.38074 0,6.8287 -4.55203,11.38072 -11.38073,11.38072 h -86.49649 c -59.181677,0 -106.9826198,-51.2153 -106.9826198,-113.81132 0,-40.97225 20.4861208,-78.53012 54.6296558,-97.87857 v -1.13767 c 0,-43.24892 35.281199,-78.53012 78.530104,-78.53012 11.38074,0 22.7628,2.27667 34.14353,7.96637 27.31483,-36.420204 71.70141,-58.043996 117.22569,-58.043996 76.25343,0 138.8508,60.320686 144.54051,136.574116 42.10991,12.51975 71.70141,53.49199 71.70141,102.43059 0,58.04401 -43.24759,102.4306 -100.15392,102.4306 z"
   id="path20"
   style="stroke-width:0.853588;stroke-dasharray:none" />&#10;	&#10;	&#10;	&#10;	&#10;	&#10;</g>&#10;</svg>
