<?xml version="1.0" encoding="UTF-8" standalone="no"?>
<!-- Uploaded to: SVG Repo, www.svgrepo.com, Generator: SVG Repo Mixer Tools -->

<svg
   height="800px"
   width="800px"
   version="1.1"
   id="Layer_1"
   viewBox="0 0 248.941 248.941"
   xml:space="preserve"
   sodipodi:docname="sunny.svg"
   inkscape:version="1.3 (0e150ed6c4, 2023-07-21)"
   xmlns:inkscape="http://www.inkscape.org/namespaces/inkscape"
   xmlns:sodipodi="http://sodipodi.sourceforge.net/DTD/sodipodi-0.dtd"
   xmlns="http://www.w3.org/2000/svg"
   xmlns:svg="http://www.w3.org/2000/svg"><defs
   id="defs13">&#10;			&#10;		</defs><sodipodi:namedview
   id="namedview13"
   pagecolor="#505050"
   bordercolor="#eeeeee"
   borderopacity="1"
   inkscape:showpageshadow="0"
   inkscape:pageopacity="0"
   inkscape:pagecheckerboard="0"
   inkscape:deskcolor="#505050"
   inkscape:zoom="0.76102367"
   inkscape:cx="306.82357"
   inkscape:cy="401.43298"
   inkscape:window-width="1920"
   inkscape:window-height="1057"
   inkscape:window-x="1912"
   inkscape:window-y="-8"
   inkscape:window-maximized="1"
   inkscape:current-layer="g12" />&#10;<g
   id="g13">&#10;	<g
   id="g12">&#10;		<g
   id="XMLID_17_">&#10;				<g
   id="g10">&#10;					<path
   style="fill:#f2944c;fill-opacity:1"
   d="m 124.471,49.41 c 40.609,0 73.619,33.04 73.619,73.649 0,40.609 -33.01,73.649 -73.619,73.649 -40.609,0 -73.649,-33.04 -73.649,-73.649 0,-40.609 33.039,-73.649 73.649,-73.649 z"
   id="path1" />&#10;					<path
   style="fill:#2d213f"
   d="m 241.162,116.691 c 4.295,0 7.779,3.484 7.779,7.779 0,4.295 -3.484,7.779 -7.779,7.779 h -14.117 c -4.295,0 -7.779,-3.484 -7.779,-7.779 0,-4.295 3.484,-7.779 7.779,-7.779 z"
   id="path2" />&#10;					<path
   style="fill:#2d213f"
   d="m 124.471,33.851 c 49.17,0 89.208,40.008 89.208,89.208 0,49.2 -40.038,89.208 -89.208,89.208 -49.2,0 -89.208,-40.008 -89.208,-89.208 0,-49.2 40.008,-89.208 89.208,-89.208 z m 73.619,89.208 c 0,-40.609 -33.01,-73.649 -73.619,-73.649 -40.609,0 -73.649,33.04 -73.649,73.649 0,40.609 33.04,73.649 73.649,73.649 40.609,0 73.619,-33.04 73.619,-73.649 z"
   id="path3" />&#10;					<path
   style="fill:#2d213f"
   d="m 212.477,36.464 c 3.034,3.034 3.034,7.96 0,10.993 l -9.972,10.002 c -1.532,1.502 -3.514,2.253 -5.497,2.253 -2.012,0 -3.995,-0.751 -5.527,-2.253 -3.034,-3.064 -3.034,-7.99 0,-11.023 l 10.002,-9.972 c 3.035,-3.034 7.96,-3.034 10.994,0 z"
   id="path4" />&#10;					<path
   style="fill:#2d213f"
   d="m 212.477,201.484 c 3.034,3.034 3.034,7.96 0,10.993 -1.502,1.532 -3.514,2.283 -5.497,2.283 -1.982,0 -3.995,-0.751 -5.497,-2.283 l -10.002,-9.972 c -3.034,-3.034 -3.034,-7.96 0,-10.993 3.064,-3.064 7.99,-3.064 11.023,0 z"
   id="path5" />&#10;					<path
   style="fill:#2d213f"
   d="m 132.25,227.045 v 14.117 c 0,4.295 -3.484,7.779 -7.779,7.779 -4.295,0 -7.779,-3.484 -7.779,-7.779 v -14.117 c 0,-4.295 3.484,-7.779 7.779,-7.779 4.295,-0.001 7.779,3.484 7.779,7.779 z"
   id="path6" />&#10;					<path
   style="fill:#2d213f"
   d="m 132.25,7.779 v 14.117 c 0,4.295 -3.484,7.779 -7.779,7.779 -4.295,0 -7.779,-3.484 -7.779,-7.779 V 7.779 c 0,-4.295 3.484,-7.779 7.779,-7.779 4.295,0 7.779,3.484 7.779,7.779 z"
   id="path7" />&#10;					<path
   style="fill:#2d213f"
   d="m 57.43,46.436 c 3.064,3.034 3.064,7.96 0,11.023 -1.502,1.502 -3.514,2.253 -5.497,2.253 -1.983,0 -3.995,-0.751 -5.497,-2.253 L 36.464,47.457 c -3.064,-3.034 -3.064,-7.96 0,-10.993 3.034,-3.034 7.96,-3.034 10.993,0 z"
   id="path8" />&#10;					<path
   style="fill:#2d213f"
   d="m 57.43,191.512 c 3.064,3.034 3.064,7.96 0,10.993 l -9.972,9.972 c -1.502,1.532 -3.514,2.283 -5.497,2.283 -1.983,0 -3.995,-0.751 -5.497,-2.283 -3.064,-3.034 -3.064,-7.96 0,-10.993 l 9.972,-9.972 c 3.034,-3.064 7.96,-3.064 10.994,0 z"
   id="path9" />&#10;					<path
   style="fill:#2d213f"
   d="m 21.897,116.691 c 4.295,0 7.779,3.484 7.779,7.779 0,4.295 -3.484,7.779 -7.779,7.779 H 7.779 C 3.484,132.249 0,128.765 0,124.47 c 0,-4.295 3.484,-7.779 7.779,-7.779 z"
   id="path10" />&#10;				</g>&#10;			</g>&#10;		<path
   style="fill:#f18028;fill-opacity:1"
   d="M113.003,50.308c38.008,15.946,71.369,52.044,68.558,119.19    c10.324-12.681,16.526-28.847,16.526-46.439c0-40.609-33.01-73.649-73.619-73.649C120.569,49.41,116.742,49.719,113.003,50.308z"
   id="path11" />&#10;	</g>&#10;</g>&#10;</svg>
