<?xml version="1.0" encoding="iso-8859-1"?>
<!-- Uploaded to: SVG Repo, www.svgrepo.com, Generator: SVG Repo Mixer Tools -->
<svg version="1.1" id="Layer_1" xmlns="http://www.w3.org/2000/svg" xmlns:xlink="http://www.w3.org/1999/xlink" 
	 viewBox="0 0 511.997 511.997" xml:space="preserve">
<path style="fill:#23A24D;" d="M255.99,10.874c0,0,261.004,250.563,0,407.166C-5.014,261.437,255.99,10.874,255.99,10.874z"/>
<path style="fill:#00834B;" d="M295.226,55.794c-21.513-27.799-39.151-44.749-39.151-44.749s-261.004,250.563,0,407.165
	c14.684-8.81,27.632-17.931,39.151-27.274C155.21,277.359,238.619,128.943,295.226,55.794z"/>
<path d="M366.437,167.158c-9.137-26.853-22.936-54.597-41.01-82.461c-30.666-47.273-62.658-78.19-64.005-79.483L255.99,0
	l-5.432,5.215c-0.777,0.745-19.276,18.594-41.674,47.871l12.459,9.532c14.573-19.047,27.629-33.278,34.647-40.585
	c10.356,10.786,33.888,36.691,56.275,71.203c27.153,41.857,58.009,105.164,50.806,169.05
	c-6.208,55.057-39.584,102.629-99.237,141.577v-50.435l44.683-44.683l-11.092-11.092l-33.591,33.591v-50.897l44.683-44.683
	l-11.092-11.092l-33.591,33.59v-50.896l44.683-44.683l-11.092-11.092l-33.591,33.591v-59.365h-15.688v59.365l-33.59-33.591
	l-11.092,11.092l44.683,44.683v50.896l-33.59-33.59l-11.092,11.092l44.683,44.683v50.896l-33.59-33.591l-11.092,11.092
	l44.683,44.683v50.436c-53.6-35-86.058-77.021-96.521-125.071c-15.818-72.642,21.074-146.475,54.809-195.622l-12.934-8.877
	c-35.485,51.698-74.215,129.721-57.203,207.838c11.931,54.79,49.565,101.972,111.85,140.304v16.487h15.688v-16.492
	c69.129-42.541,107.769-95.806,114.825-158.386C382.085,233.657,377.974,201.061,366.437,167.158z"/>
<rect x="248.151" y="454.572" width="15.688" height="57.425"/>
<g>
	<rect x="224.672" y="96.991" style="fill:#FFFFFF;" width="20.88" height="15.688"/>
	<rect x="255.995" y="76.116" style="fill:#FFFFFF;" width="20.88" height="15.688"/>
	<rect x="318.63" y="190.949" style="fill:#FFFFFF;" width="20.88" height="15.688"/>
</g>
<rect x="308.193" y="264.031" width="20.88" height="15.688"/>
<rect x="172.464" y="274.469" style="fill:#FFFFFF;" width="20.88" height="15.688"/>
<rect x="182.912" y="190.949" width="20.88" height="15.688"/>
</svg>