<?xml version="1.0" encoding="UTF-8" standalone="no"?>
<!-- Uploaded to: SVG Repo, www.svgrepo.com, Generator: SVG Repo Mixer Tools -->

<svg
   height="800px"
   width="800px"
   version="1.1"
   id="Layer_1"
   viewBox="0 0 512 512"
   xml:space="preserve"
   sodipodi:docname="cloudy.svg"
   inkscape:version="1.3 (0e150ed6c4, 2023-07-21)"
   xmlns:inkscape="http://www.inkscape.org/namespaces/inkscape"
   xmlns:sodipodi="http://sodipodi.sourceforge.net/DTD/sodipodi-0.dtd"
   xmlns="http://www.w3.org/2000/svg"
   xmlns:svg="http://www.w3.org/2000/svg">
   
    <path d="M389.608 165.868a95.984 95.984 0 0 0-34.399 6.343c-5.542-64.055-56.226-114.282-117.995-114.282-59.884 0-109.367 47.198-117.367 108.453a100.184 100.184 0 0 0-10.171-.514c-56.17 0-101.653 48.341-101.653 107.939 0 59.597 44.284 108.167 100.396 108.167.971 0 4.857-.171 6.514-.286h-.743v-.114c1.886 0 1.771.057.743.114l252.676.286c7.371 0 14-.343 22-.343 56.111 0 101.595-48.284 101.595-107.881 0-59.598-45.484-107.882-101.596-107.882z" fill="#00B36A" style="fill:#5400b3;fill-opacity:1;stroke-width:.571407"/>
    <path d="M24.536 222.894c-7.657 15.143-12 32.456-12 50.856 0 59.597 44.285 108.167 100.397 108.167.971 0 4.857-.172 6.514-.286h-.743v-.114c1.886 0 1.771.057.743.114l252.676.286c3.371 0 6.628-.057 9.885-.114l.972-1.372c-209.307.057-321.76-23.027-358.444-157.537Z" fill="#009957" style="fill:#43008f;fill-opacity:1;stroke-width:.571407"/>
    <path d="M153.446 461.571c-2.286 0-4.629-.686-6.629-2.114-5.085-3.657-6.228-10.743-2.571-15.828l67.997-94.625c3.657-5.086 10.743-6.228 15.828-2.571 5.086 3.657 6.229 10.742 2.572 15.828l-67.998 94.624c-2.171 3.029-5.657 4.686-9.2 4.686zm59.369 0c-2.286 0-4.629-.686-6.629-2.114-5.085-3.657-6.228-10.743-2.57-15.828l67.997-94.625c3.657-5.086 10.742-6.228 15.828-2.571 5.085 3.657 6.228 10.742 2.57 15.828l-67.997 94.624c-2.17 3.029-5.656 4.686-9.2 4.686zm59.369 0c-2.286 0-4.628-.686-6.628-2.114-5.086-3.657-6.229-10.743-2.572-15.828l67.998-94.625c3.657-5.086 10.742-6.228 15.828-2.571 5.085 3.657 6.228 10.742 2.571 15.828l-67.997 94.624c-2.172 3.029-5.657 4.686-9.2 4.686z" style="fill:#000;fill-opacity:1;stroke-width:.571407"/>
    <path d="M373.209 393.516c-6.8 0-12.286-5.485-12.286-12.285s5.486-12.285 12.286-12.285c3.542 0 6.857-.057 10.285-.171 3.657-.058 7.485-.172 11.657-.172 49.255 0 89.31-42.913 89.31-95.596 0-52.684-40.055-95.597-89.253-95.597-10.285 0-20.4 1.886-29.999 5.543l-15.257 5.828-1.428-16.285c-5.086-58.74-50.512-103.024-105.767-103.024-52.684 0-97.882 41.998-105.196 97.71l-1.543 11.885-11.943-1.257c-2.971-.342-5.942-.457-8.914-.457-49.255 0-89.31 42.913-89.31 95.597 0 50.455 35.998 91.939 81.54 95.596l12.284-.114h1.543c.457 0 .972.057 1.429.114l22.57.057c6.8 0 12.286 5.543 12.286 12.343s-5.543 12.285-12.286 12.285l-24.342-.057c-.628.057-1.428.057-2.285.114-1.886.057-3.943.171-4.629.171-30.513 0-59.026-12.685-80.282-35.713C12.765 335.12 1.28 305.006 1.28 272.95c0-66.226 51.027-120.167 113.824-120.224 13.2-62.284 66.283-107.882 127.653-107.882 32.97 0 64.454 12.971 88.682 36.57 20.342 19.828 34.113 45.713 39.541 74.054 7.943-1.828 16-2.742 24.17-2.742 62.798 0 113.882 53.94 113.882 120.224 0 66.283-51.084 120.224-113.881 120.224-3.943 0-7.6.057-11.143.171a332.38 332.38 0 0 1-10.8.171z" fill="#1A1A1A" style="fill:#000;fill-opacity:1;stroke-width:.571407"/>
</svg>
