<?xml version="1.0" encoding="UTF-8" standalone="no"?>
<!-- Uploaded to: SVG Repo, www.svgrepo.com, Generator: SVG Repo Mixer Tools -->

<svg
   height="800px"
   width="800px"
   version="1.1"
   id="Layer_1"
   viewBox="0 0 503.467 503.467"
   xml:space="preserve"
   sodipodi:docname="windy.svg"
   inkscape:version="1.3 (0e150ed6c4, 2023-07-21)"
   xmlns:inkscape="http://www.inkscape.org/namespaces/inkscape"
   xmlns:sodipodi="http://sodipodi.sourceforge.net/DTD/sodipodi-0.dtd"
   xmlns="http://www.w3.org/2000/svg"
   xmlns:svg="http://www.w3.org/2000/svg"><defs
   id="defs6">&#10;	&#10;	&#10;	&#10;	&#10;	&#10;</defs><sodipodi:namedview
   id="namedview6"
   pagecolor="#505050"
   bordercolor="#eeeeee"
   borderopacity="1"
   inkscape:showpageshadow="0"
   inkscape:pageopacity="0"
   inkscape:pagecheckerboard="0"
   inkscape:deskcolor="#505050"
   inkscape:zoom="1.07625"
   inkscape:cx="400"
   inkscape:cy="399.07085"
   inkscape:window-width="1920"
   inkscape:window-height="1057"
   inkscape:window-x="1912"
   inkscape:window-y="-8"
   inkscape:window-maximized="1"
   inkscape:current-layer="Layer_1" />&#10;<path
   style="fill:#16eb7f;fill-opacity:1"
   d="m 351.573,183.467 c -14.507,-12.8 -23.04,-30.72 -23.04,-51.2 C 328.533,94.72 359.253,64 396.8,64 c 37.547,0 68.267,30.72 68.267,68.267 0,37.547 -30.72,68.267 -68.267,68.267 H 21.333 v -17.067 z"
   id="path1" /><path
   style="fill:#16eb7f;fill-opacity:1"
   d="m 456.533,251.733 c 23.893,0 42.667,18.773 42.667,42.667 0,23.893 -18.773,42.667 -42.667,42.667 -23.894,0 -42.667,-18.773 -42.667,-42.667 0,-9.387 3.413,-18.773 8.533,-25.6 H 4.267 v -17.067 z"
   id="path2" /><path
   style="fill:#16eb7f;fill-opacity:1"
   d="m 234.667,354.133 c 23.893,0 42.667,18.773 42.667,42.667 0,23.894 -18.773,42.667 -42.667,42.667 -23.894,0 -42.667,-18.774 -42.667,-42.667 0,-9.387 3.413,-18.773 8.533,-25.6 H 38.4 v -17.067 z"
   id="path3" /><path
   style="fill:#16eb7f;fill-opacity:1"
   d="m 337.067,302.933 c 14.507,0 25.6,11.093 25.6,25.6 0,14.507 -11.093,25.6 -25.6,25.6 -14.507,0 -25.6,-11.093 -25.6,-25.6 0,-3.413 0.853,-5.973 1.707,-8.533 H 21.333 v -17.067 z"
   id="path4" /><path
   style="fill:#16eb7f;fill-opacity:1"
   d="m 236.373,132.267 c -0.853,-2.56 -1.707,-5.12 -1.707,-8.533 0,-14.507 11.093,-25.6 25.6,-25.6 14.507,0 25.6,11.093 25.6,25.6 0,14.507 -11.093,25.6 -25.6,25.6 H 38.4 v -17.067 z"
   id="path5" />&#10;<path
   style="fill:#000000;fill-opacity:1"
   d="M234.667,443.733c-25.6,0-46.933-21.333-46.933-46.933c0-2.56,1.707-4.267,4.267-4.267  s4.267,1.707,4.267,4.267c0,21.333,17.067,38.4,38.4,38.4s38.4-17.067,38.4-38.4s-17.067-38.4-38.4-38.4H38.4  c-2.56,0-4.267-1.707-4.267-4.267c0-2.56,1.707-4.267,4.267-4.267h196.267c25.6,0,46.933,21.333,46.933,46.933  S260.267,443.733,234.667,443.733z M337.067,358.4c-7.68,0-15.36-3.413-21.333-8.533c-1.707-1.707-1.707-4.267,0-5.973  c1.707-1.707,4.267-1.707,5.973,0c4.267,4.267,9.387,5.973,15.36,5.973c11.947,0,21.333-9.387,21.333-21.333  s-9.387-21.333-21.333-21.333H21.333c-2.56,0-4.267-1.707-4.267-4.267s1.707-4.267,4.267-4.267h315.733  c16.213,0,29.867,13.653,29.867,29.867S353.28,358.4,337.067,358.4z M456.533,341.333c-25.6,0-46.933-21.333-46.933-46.933  c0-2.56,1.707-4.267,4.267-4.267s4.267,1.707,4.267,4.267c0,21.333,17.067,38.4,38.4,38.4s38.4-17.067,38.4-38.4  c0-21.333-17.067-38.4-38.4-38.4H4.267C1.707,256,0,254.293,0,251.733c0-2.56,1.707-4.267,4.267-4.267h452.267  c25.6,0,46.933,21.333,46.933,46.933S482.133,341.333,456.533,341.333z M396.8,204.8H21.333c-2.56,0-4.267-1.707-4.267-4.267  c0-2.56,1.707-4.267,4.267-4.267H396.8c29.867,0,64-28.16,64-64s-34.133-64-64-64c-34.987,0-64,29.013-64,64  c0,2.56-1.707,4.267-4.267,4.267s-4.267-1.707-4.267-4.267c0-40.107,32.427-72.533,72.533-72.533  c34.133,0,72.533,30.72,72.533,72.533S430.933,204.8,396.8,204.8z M261.12,153.6H38.4c-2.56,0-4.267-1.707-4.267-4.267  s1.707-4.267,4.267-4.267h222.72c11.947,0,20.48-9.387,20.48-21.333c0-11.947-8.533-21.333-20.48-21.333  c-5.973,0-11.093,2.56-15.36,5.973c-1.707,1.707-4.267,1.707-5.973,0c-1.707-1.707-1.707-4.267,0-5.973  c5.973-5.973,12.8-8.533,21.333-8.533c16.213,0,29.013,12.8,29.013,29.867S277.333,153.6,261.12,153.6z"
   id="path6" />&#10;</svg>
