<?xml version="1.0" encoding="UTF-8" standalone="no"?>
<!-- Created with Inkscape (http://www.inkscape.org/) -->

<svg
   width="74mm"
   height="25mm"
   version="1.1"
   viewBox="0 0 74 25"
   id="svg840"
   sodipodi:docname="windy.svg"
   inkscape:version="1.1.1 (3bf5ae0d25, 2021-09-20)"
   xmlns:inkscape="http://www.inkscape.org/namespaces/inkscape"
   xmlns:sodipodi="http://sodipodi.sourceforge.net/DTD/sodipodi-0.dtd"
   xmlns="http://www.w3.org/2000/svg"
   xmlns:svg="http://www.w3.org/2000/svg">
  <defs
     id="defs844" />
  <sodipodi:namedview
     id="namedview842"
     pagecolor="#ffffff"
     bordercolor="#666666"
     borderopacity="1.0"
     inkscape:pageshadow="2"
     inkscape:pageopacity="0.0"
     inkscape:pagecheckerboard="0"
     inkscape:document-units="mm"
     showgrid="false"
     inkscape:zoom="4.1797016"
     inkscape:cx="132.42572"
     inkscape:cy="60.411011"
     inkscape:window-width="1920"
     inkscape:window-height="1017"
     inkscape:window-x="-8"
     inkscape:window-y="-8"
     inkscape:window-maximized="1"
     inkscape:current-layer="svg840" />
  <path
     d="m 16.743755,-10.620418 c 0,0 4.3689,2.1807 6.4356,2.0276 4.6714,-0.34602 7.0166,-2.686 7.0166,-2.686 -1.5668,-0.94451 -2.7534,-2.2657 -4.989,-2.2509 -2.258,0.0149 -3.629,1.4086 -5.6364,2.2636 -0.91963,0.39168 -2.8268,0.6456 -2.8268,0.6456 z"
     id="path832"
     style="fill:#9afd3a" />
  <path
     d="m 18.963855,-15.550218 c 0,0 2.8376,0.62052 4.5748,0.50033 3.9267,-0.27166 5.898,-2.1088 5.898,-2.1088 -1.317,-0.74154 -3.8698,-2.0314 -5.891,-1.6892 -1.8972,0.32123 -3.1872,1.2972 -4.5818,3.2976 z"
     id="path834"
     style="fill:#9afd3a" />
  <path
     d="m 23.999855,-3.653418 c 2.0497,-0.11194 5.776,-1.9603 5.776,-1.9603 -1.5668,-0.94451 -3.0811,-1.8911 -5.3167,-1.8764 -6.1914,0.24073 -6.8382,3.2505 -0.45931,3.8367 z"
     id="path836"
     style="fill:#9afd3a" />
  <path
     sodipodi:type="spiral"
     style="fill:none;fill-rule:evenodd;stroke:#000000;stroke-width:1;stroke-linecap:round;stroke-miterlimit:4;stroke-dasharray:none"
     id="path1078"
     sodipodi:cx="150.24995"
     sodipodi:cy="45.936295"
     sodipodi:expansion="5.6500001"
     sodipodi:revolution="5.79"
     sodipodi:radius="35.860706"
     sodipodi:argument="-17.355816"
     sodipodi:t0="0"
     d="m 150.24995,45.936295 c 0,0 0,0 0,0 -1e-5,-3e-6 0,-3e-5 0,-3.5e-5 6e-5,-1.29e-4 2.7e-4,-4.5e-5 3.5e-4,8e-6 6e-4,4.27e-4 1.7e-4,0.0014 -2.1e-4,0.0018 -0.002,0.0019 -0.005,3.53e-4 -0.006,-0.0013 -0.005,-0.0057 -3.1e-4,-0.01415 0.005,-0.01782 0.0149,-0.01055 0.0345,6.58e-4 0.0428,0.01414 0.0206,0.03351 -0.004,0.0746 -0.0346,0.09131 -0.0681,0.03716 -0.14739,-0.01223 -0.17821,-0.07487 -0.0628,-0.127736 0.0291,-0.270932 0.1474,-0.324088 0.22493,-0.101075 0.46977,0.06026 0.55663,0.26973 0.15595,0.376075 -0.1134,0.776119 -0.46539,0.911946 -0.60232,0.232422 -1.23126,-0.198899 -1.43602,-0.76514 -0.33638,-0.930215 0.33022,-1.886955 1.20815,-2.186235 1.39258,-0.474723 2.807,0.524436 3.23299,1.843339 0.65544,2.029337 -0.80281,4.068841 -2.73077,4.661399 -2.88834,0.887733 -5.7652,-1.191332 -6.57307,-3.943057 -1.1821,-4.026389 1.72134,-8.005923 5.56696,-9.087994 5.5101,-1.550426 10.91975,2.430189 12.34642,7.704916 2.0061,7.417015 -3.36184,14.656273 -10.47674,16.510942 -9.83652,2.564124 -19.3879,-4.567607 -21.76853,-14.021311 -3.24119,-12.871034 6.10687,-25.311904 18.49841,-28.332739 16.63705,-4.055815 32.65257,8.047792 36.4459,24.090534 0.68625,2.902304 0.99681,5.891089 0.9366,8.872415"
     transform="scale(0.26458333)" />
  <path
     sodipodi:type="spiral"
     style="fill:none;fill-rule:evenodd;stroke:#000000"
     id="path1168"
     sodipodi:cx="150.24995"
     sodipodi:cy="45.936295"
     sodipodi:expansion="5.6900001"
     sodipodi:revolution="3.0899999"
     sodipodi:radius="62.349247"
     sodipodi:argument="-35.322281"
     sodipodi:t0="0.050000001"
     d="m 150.24995,45.936294 c -1.8e-4,-7.2e-5 9e-5,-5.34e-4 1.2e-4,-5.76e-4 0.002,-0.0029 0.007,8.54e-4 0.009,0.0024 0.016,0.0176 -0.006,0.04496 -0.0207,0.05433 -0.0814,0.0533 -0.17961,-0.03466 -0.21353,-0.103261 -0.1336,-0.27022 0.13537,-0.550451 0.36887,-0.640133 0.72583,-0.278776 1.40785,0.413121 1.60183,1.051919 0.5106,1.681441 -1.0562,3.158482 -2.55768,3.522526 -3.49258,0.846799 -6.41659,-2.370025 -7.02979,-5.525869 -1.29626,-6.671267 4.8152,-12.061184 10.90239,-13.007358 11.92363,-1.853374 21.29886,9.049835 22.65245,20.018786 2.49159,20.190801 -15.97604,35.73203 -34.67913,37.53772 C 119.38454,90.961061 99.096021,77.210867 89.134584,58.278906"
     transform="scale(0.26458333)" />
</svg>
