<?xml version="1.0" encoding="UTF-8"?>
<!-- Created with Inkscape (http://www.inkscape.org/) -->
<svg width="68.802mm" height="19.744mm" version="1.1" viewBox="0 0 68.802 19.744" xmlns="http://www.w3.org/2000/svg">
 <g transform="translate(-8.2029 -13.668)">
  <g id="wind-paths" fill="none" stroke="#03f8a1" stroke-linecap="round" stroke-width="1.3229">
   <path d="m16.848 24.186s11.888 2.0697 26.217 0.07678c2.8447-0.39567 6.1096-1.4315 6.2571-3.8379 0.09782-1.596-0.83517-3.046-2.9863-3.0164-2.1514 0.0296-2.9018 1.6685-2.8265 3.0923 0.12032 2.2739 3.0895 2.9971 4.9042 3.5233 8.9058 2.5824 27.426 0.08552 27.426 0.08552" stroke-linejoin="round"/>
   <path d="m16.58 29.053s6.0008 4.1195 17.461 3.6617c11.356-0.45364 12.239-2.8477 22.657-2.801 9.0829 0.04069 19.645 2.5644 19.645 2.5644" stroke-linejoin="round"/>
   <path d="m16.644 18.007s9.3797-5.4186 35.596-3.101c9.6035 0.849 23.101 5.3578 23.101 5.3578"/>
  </g>
  <g id="leaves" fill="#9afd3a">
   <path d="m8.2029 23.964s4.3689 2.1807 6.4356 2.0276c4.6714-0.34602 7.0166-2.686 7.0166-2.686-1.5668-0.94451-2.7534-2.2657-4.989-2.2509-2.258 0.0149-3.629 1.4086-5.6364 2.2636-0.91963 0.39168-2.8268 0.6456-2.8268 0.6456z"/>
   <path d="m10.423 19.034s2.8376 0.62052 4.5748 0.50033c3.9267-0.27166 5.898-2.1088 5.898-2.1088-1.317-0.74154-3.8698-2.0314-5.891-1.6892-1.8972 0.32123-3.1872 1.2972-4.5818 3.2976z"/>
   <path d="m15.459 30.931c2.0497-0.11194 5.776-1.9603 5.776-1.9603-1.5668-0.94451-3.0811-1.8911-5.3167-1.8764-6.1914 0.24073-6.8382 3.2505-0.45931 3.8367z"/>
  </g>
 </g>
</svg>
