<?xml version="1.0" encoding="UTF-8"?>
<!-- Created with Inkscape (http://www.inkscape.org/) -->
<svg width="55mm" height="55mm" version="1.1" viewBox="0 0 55 55" xmlns="http://www.w3.org/2000/svg">
 <g fill="none" stroke-linecap="round">
  <path d="m27.952 29.188c-6.5e-5 -3.2e-5 4.6e-5 -1.97e-4 6e-5 -2.13e-4 9.33e-4 -9.77e-4 0.0028 4.66e-4 0.0033 0.0011 0.0051 0.0065-0.0033 0.01549-0.0084 0.01834-0.02906 0.01637-0.06062-0.01584-0.07067-0.04013-0.03911-0.09459 0.05798-0.18357 0.13923-0.20878 0.25065-0.07771 0.46528 0.16979 0.51657 0.38944 0.13429 0.57492-0.42229 1.0364-0.93403 1.1259-1.1853 0.20714-2.0936-0.92939-2.2305-1.9977-0.28837-2.2508 1.8614-3.917 3.9108-4.102 4.0036-0.36132 6.8903 3.4604 7.1068 7.1371 0.39754 6.7528-6.0562 11.521-12.303 11.724-10.898 0.35366-18.466-10.085-18.567-20.228-0.071096-7.1809 3.1186-14.09 8.1747-19.112" stroke="#00eab5" stroke-width=".52917"/>
  <path d="m27.95 29.188c2.3e-5 1.2e-5 -1.4e-5 7e-5 -2e-5 7.9e-5 -2.37e-4 3.03e-4 -9.31e-4 -8.5e-5 -9.31e-4 -2.68e-4 -0.0014-0.0017 4.67e-4 -0.0042 0.0019-0.0051 0.0074-0.0046 0.01602 0.0032 0.01891 0.0093 0.01126 0.02331-0.01162 0.04723-0.0319 0.05486-0.06099 0.02302-0.11814-0.0346-0.13436-0.08842-0.04182-0.13888 0.08671-0.26107 0.21098-0.29122 0.28515-0.06921 0.52482 0.19193 0.57548 0.45 0.1061 0.54028-0.38626 0.97917-0.87982 1.0575-0.96012 0.15247-1.72-0.72112-1.8329-1.6052-0.20682-1.6193 1.267-2.8748 2.7681-3.0272 2.6146-0.26554 4.6086 2.1177 4.8015 4.5552 0.32247 4.0691-3.3942 7.1306-7.207 7.3592-6.1357 0.36815-10.701-5.2505-10.95-11.024-0.38899-9.0033 7.8766-15.638 16.381-15.88 12.898-0.36684 22.326 11.506 22.515 23.731 0.07014 4.5672-1.023 9.1177-3.0594 13.2" stroke="#00eab5" stroke-width=".529"/>
  <ellipse cx="27.616" cy="27.5" rx="25.773" ry="24.333" stroke="#01c3d5" stroke-linejoin="round" stroke-width=".66146" style="paint-order:stroke fill markers"/>
  <path d="m105.63 110.32c-5e-3 7e-3 -0.0201-0.0156-0.0207-0.0167-0.05-0.10312 0.11632-0.18133 0.18829-0.19117 0.44341-0.0606 0.6564 0.50644 0.63426 0.85456-0.0752 1.1825-1.5026 1.6341-2.4875 1.4433-2.4934-0.48302-3.3236-3.4757-2.7084-5.6339 1.3017-4.5665 6.839-5.9513 10.898-4.5199 7.606 2.6825 9.7587 12.04 6.9697 18.93-4.7878 11.828-19.557 15-30.424 10.151-17.459-7.7896-21.941-29.893-14.161-46.109 11.868-24.736 43.577-30.86 66.749-19.095 33.902 17.213 42.042 61.157 25.055 93.136-24.018 45.212-83.205 55.785-126.09 32.142" stroke="#00eab5" stroke-width=".529"/>
 </g>
</svg>
