<?xml version="1.0" encoding="UTF-8"?>
<!-- Created with Inkscape (http://www.inkscape.org/) -->
<svg width="35mm" height="30mm" version="1.1" viewBox="0 0 35 30" xmlns="http://www.w3.org/2000/svg">
 <g transform="translate(3.5407 2.4289)">
  <g fill="none" stroke="#00eab5" stroke-linecap="round">
   <path transform="matrix(.26458 0 0 .26458 -26.874 2.3479)" d="m150.25 45.936c1e-5 9.8e-5 -3.1e-4 2.6e-5 -3.2e-4 2.4e-5 -2e-3 -5.63e-4 -6.3e-4 -0.0034 0-0.0042 5e-3 -0.0067 0.0151-0.0018 0.0194 0.0027 0.0165 0.01786 2e-3 0.04539-0.0147 0.05697-0.0465 0.03259-0.10706-0.0028-0.13158-0.04567-0.0565-0.09887 0.0162-0.21602 0.10793-0.26065 0.18473-0.08992 0.39084 0.04402 0.46442 0.21646 0.13443 0.31508-0.0927 0.65271-0.38859 0.76574-0.50223 0.19184-1.0252-0.16957-1.19-0.64386-0.26394-0.75976 0.28309-1.5344 1.004-1.765 1.1024-0.35264 2.2083 0.4424 2.5208 1.4928 0.4599 1.5461-0.65755 3.0776-2.1361 3.4899-2.108 0.58773-4.1748-0.93939-4.7068-2.9615-0.73824-2.8061 1.2996-5.5346 3.9988-6.2084 3.6598-0.91358 7.1936 1.7504 8.0335 5.2794 1.116 4.6892-2.3052 9.1906-6.8365 10.223-5.9158 1.3478-11.566-2.9778-12.82-8.7053-1.6113-7.3618 3.7827-14.363 10.923-15.869 9.0506-1.9089 17.626 4.7353 19.418 13.527 2.2433 11.006-5.8516 21.401-16.558 23.515-13.255 2.6168-25.736-7.1484-28.21-20.058-3.0322-15.821 8.6428-30.681 24.071-33.557 13.585-2.5322 27.422 4.1785 34.66 15.782"/>
   <path transform="matrix(.26458 0 0 .26458 -26.874 2.3479)" d="m150.25 45.936c-1.4e-4 -6.9e-5 1e-4 -4.21e-4 1.3e-4 -4.56e-4 2e-3 -0.0021 6e-3 9.99e-4 7e-3 0.0023 0.011 0.01393-7e-3 0.03311-0.0181 0.03939-0.0624 0.03503-0.13017-0.034-0.15174-0.08616-0.084-0.20312 0.12448-0.39418 0.29897-0.44828 0.53822-0.16687 0.99907 0.36456 1.1092 0.83623 0.28835 1.2345-0.90675 2.2255-2.0056 2.4175-2.5451 0.44477-4.4955-1.9956-4.7894-4.2895-0.61921-4.8328 3.9969-8.4108 8.3976-8.8079 8.5966-0.77583 14.795 7.4302 15.26 15.325 0.85361 14.5-13.004 24.739-26.417 25.174-23.401 0.75938-39.652-21.656-39.867-43.435-0.15266-15.419 6.6964-30.254 17.553-41.038"/>
   <path transform="matrix(.26458 0 0 .26458 -27.444 -.057613)" d="m152.4 55.028c5e-5 2.6e-5 -3e-5 1.5e-4 -4e-5 1.68e-4 -5.1e-4 6.5e-4 -2e-3 -1.81e-4 -2e-3 -5.74e-4 -3e-3 -0.0037 1e-3 -0.0091 4e-3 -0.01096 0.0157-0.0099 0.0343 0.0067 0.0406 0.02003 0.0241 0.05004-0.0251 0.10142-0.0685 0.11781-0.13096 0.04943-0.25367-0.07429-0.28848-0.18986-0.0898-0.29822 0.18618-0.56057 0.45304-0.62534 0.61228-0.1486 1.1269 0.41212 1.2357 0.96624 0.22782 1.1601-0.82939 2.1025-1.8892 2.2708-2.0616 0.3274-3.6933-1.5484-3.9357-3.4467-0.44408-3.477 2.7206-6.1728 5.9436-6.5001 5.6142-0.57017 9.8956 4.5471 10.31 9.7812 0.6924 8.7372-7.2883 15.311-15.475 15.802-13.175 0.79042-22.977-11.274-23.513-23.672-0.83525-19.332 16.913-33.578 35.174-34.097 27.694-0.78769 47.94 24.707 48.343 50.956 0.15061 9.8069-2.1967 19.578-6.5691 28.344"/>
  </g>
  <g transform="translate(-34.841 -3.0165)">
   <path d="m45.293 17.628s1.5165 0.75692 2.2338 0.70378c1.6215-0.1201 2.4355-0.93232 2.4355-0.93232-0.54384-0.32784-0.95571-0.78643-1.7317-0.78129-0.78376 0.0052-1.2596 0.48893-1.9564 0.7857-0.31921 0.13595-0.98119 0.22409-0.98119 0.22409z" fill="#9afd3a" stroke-width=".3471"/>
   <path d="m49.962 17.4s-1.7737 0.3753-3.0965 0.2758c-1.3484-0.10138-1.6636-0.18685-1.8566-0.20316-0.23129-0.01954-0.26368 0.21581-0.05241 0.22716 0.51837 0.02785 1.0187 0.03219 1.9791 0.05449 1.4425 0.0335 3.0264-0.35434 3.0264-0.35434z" fill="#9a563a"/>
  </g>
  <g transform="translate(-27.254 -.93512)">
   <path d="m40.03 16.114c1.1193 0 2.3454-0.796 2.3454-0.796-0.63621-0.38353-1.5119-0.81741-2.2749-0.83368-2.0945-0.04468-2.8836 1.572-0.07055 1.6297h5e-6z" fill="#9afd3a" stroke-width=".40606"/>
   <path d="m42.375 15.318s-1.764 0.16907-3.0868 0.06957c-1.3484-0.10138-1.6542-0.16641-1.8472-0.18272-0.23129-0.01954-0.26368 0.21581-0.05241 0.22716 0.51837 0.02785 0.9774 0.02749 1.9378 0.04979 1.4425 0.0335 3.0486-0.16385 3.0486-0.16385z" fill="#9a563a"/>
  </g>
  <g transform="matrix(-1 0 0 1 48.324 -4.3594)">
   <path d="m33.88 19.394s1.1496 0.25139 1.8534 0.2027c1.5908-0.11006 2.3895-0.85435 2.3895-0.85435-0.53356-0.30042-1.5678-0.82299-2.3866-0.68435-0.76862 0.13014-1.2912 0.52554-1.8562 1.336z" fill="#9afd3a" stroke-width=".40513"/>
   <path d="m38.123 18.743s-0.7094 0.02678-2.0322 0.12627c-1.3484 0.10138-2.5301 0.85163-2.7231 0.86793-0.23129 0.01954-0.2047-0.23409-0.0073-0.31013 0.53968-0.20784 1.7269-0.63936 2.6873-0.66166 1.4425-0.0335 2.0753-0.02242 2.0753-0.02242z" fill="#9a563a"/>
  </g>
 </g>
</svg>
