<?xml version="1.0" encoding="UTF-8"?>
<!-- Created with Inkscape (http://www.inkscape.org/) -->
<svg width="55mm" height="55mm" version="1.1" viewBox="0 0 55 55" xmlns="http://www.w3.org/2000/svg">
 <g fill="none" stroke-linecap="round">
  <path d="m27.952 29.188c-6.5e-5 -3.2e-5 4.6e-5 -1.97e-4 6e-5 -2.13e-4 9.33e-4 -9.77e-4 0.0028 4.66e-4 0.0033 0.0011 0.0051 0.0065-0.0033 0.01549-0.0084 0.01834-0.02906 0.01637-0.06062-0.01584-0.07067-0.04013-0.03911-0.09459 0.05798-0.18357 0.13923-0.20878 0.25065-0.07771 0.46528 0.16979 0.51657 0.38944 0.13429 0.57492-0.42229 1.0364-0.93403 1.1259-1.1853 0.20714-2.0936-0.92939-2.2305-1.9977-0.28837-2.2508 1.8614-3.917 3.9108-4.102 4.0036-0.36132 6.8903 3.4604 7.1068 7.1371 0.39754 6.7528-6.0562 11.521-12.303 11.724-10.898 0.35366-18.466-10.085-18.567-20.228-0.071096-7.1809 3.1186-14.09 8.1747-19.112" stroke="#00eab5" stroke-width=".52917"/>
  <path d="m27.95 29.188c2.3e-5 1.2e-5 -1.4e-5 7e-5 -2e-5 7.9e-5 -2.37e-4 3.03e-4 -9.31e-4 -8.5e-5 -9.31e-4 -2.68e-4 -0.0014-0.0017 4.67e-4 -0.0042 0.0019-0.0051 0.0074-0.0046 0.01602 0.0032 0.01891 0.0093 0.01126 0.02331-0.01162 0.04723-0.0319 0.05486-0.06099 0.02302-0.11814-0.0346-0.13436-0.08842-0.04182-0.13888 0.08671-0.26107 0.21098-0.29122 0.28515-0.06921 0.52482 0.19193 0.57548 0.45 0.1061 0.54028-0.38626 0.97917-0.87982 1.0575-0.96012 0.15247-1.72-0.72112-1.8329-1.6052-0.20682-1.6193 1.267-2.8748 2.7681-3.0272 2.6146-0.26554 4.6086 2.1177 4.8015 4.5552 0.32247 4.0691-3.3942 7.1306-7.207 7.3592-6.1357 0.36815-10.701-5.2505-10.95-11.024-0.38899-9.0033 7.8766-15.638 16.381-15.88 12.898-0.36684 22.326 11.506 22.515 23.731 0.07014 4.5672-1.023 9.1177-3.0594 13.2" stroke="#00eab5" stroke-width=".529"/>
  <ellipse cx="27.616" cy="27.5" rx="25.773" ry="24.333" stroke="#01c3d5" stroke-linejoin="round" stroke-width=".66146" style="paint-order:stroke fill markers"/>
  <path transform="scale(.26458)" d="m105.63 110.32c-6e-3 7e-3 -0.0193-0.0169-0.0198-0.0181-0.0439-0.10691 0.12834-0.17533 0.20141-0.18077 0.45013-0.0335 0.62936 0.55056 0.58547 0.89963-0.14908 1.1857-1.614 1.5518-2.5937 1.2986-2.4801-0.64095-3.1302-3.7051-2.377-5.8396 1.5937-4.5162 7.254-5.5668 11.251-3.874 7.4904 3.1724 9.0768 12.726 5.8418 19.489-5.5538 11.61-20.618 13.887-31.257 8.3315-17.093-8.925-20.233-31.454-11.394-47.296 13.483-24.165 45.783-28.362 68.38-15.081 33.061 19.431 38.529 64.175 19.444 95.313-26.983 44.024-87.223 50.995-128.93 24.533" stroke="#00eab5" stroke-linejoin="round" stroke-width="1.9994"/>
 </g>
</svg>
