<?xml version="1.0" encoding="UTF-8" standalone="no"?>
<!-- Created with Inkscape (http://www.inkscape.org/) -->

<svg
   width="35mm"
   height="30mm"
   version="1.1"
   viewBox="0 0 34.999999 30"
   id="svg840"
   sodipodi:docname="windy.svg"
   inkscape:version="1.1.1 (3bf5ae0d25, 2021-09-20)"
   xmlns:inkscape="http://www.inkscape.org/namespaces/inkscape"
   xmlns:sodipodi="http://sodipodi.sourceforge.net/DTD/sodipodi-0.dtd"
   xmlns="http://www.w3.org/2000/svg"
   xmlns:svg="http://www.w3.org/2000/svg">
  <defs
     id="defs844" />
  <sodipodi:namedview
     id="namedview842"
     pagecolor="#ffffff"
     bordercolor="#666666"
     borderopacity="1.0"
     inkscape:pageshadow="2"
     inkscape:pageopacity="0.0"
     inkscape:pagecheckerboard="0"
     inkscape:document-units="mm"
     showgrid="false"
     inkscape:zoom="5.6568543"
     inkscape:cx="67.482098"
     inkscape:cy="58.288031"
     inkscape:window-width="1920"
     inkscape:window-height="1017"
     inkscape:window-x="-8"
     inkscape:window-y="-8"
     inkscape:window-maximized="1"
     inkscape:current-layer="svg840" />
  <g
     id="g13528"
     transform="translate(4.8117291,1.4573236)">
    <path
       sodipodi:type="spiral"
       style="fill:none;fill-rule:evenodd;stroke:#00eab5;stroke-width:1;stroke-linecap:round;stroke-miterlimit:4;stroke-dasharray:none;stroke-opacity:1"
       id="path1078"
       sodipodi:cx="150.24995"
       sodipodi:cy="45.936295"
       sodipodi:expansion="3.72"
       sodipodi:revolution="5.6900001"
       sodipodi:radius="35.860706"
       sodipodi:argument="-17.355816"
       sodipodi:t0="0"
       d="m 150.24995,45.936295 c 10e-6,9.8e-5 -3.1e-4,2.6e-5 -3.2e-4,2.4e-5 -0.002,-5.63e-4 -6.3e-4,-0.0034 0,-0.0042 0.005,-0.0067 0.0151,-0.0018 0.0194,0.0027 0.0165,0.01786 0.002,0.04539 -0.0147,0.05697 -0.0465,0.03259 -0.10706,-0.0028 -0.13158,-0.04567 -0.0565,-0.09887 0.0162,-0.216015 0.10793,-0.260653 0.18473,-0.08992 0.39084,0.04402 0.46442,0.216462 0.13443,0.315077 -0.0927,0.652708 -0.38859,0.765741 -0.50223,0.191835 -1.02522,-0.169572 -1.18999,-0.64386 -0.26394,-0.759755 0.28309,-1.534351 1.00401,-1.76496 1.10242,-0.352642 2.20834,0.442401 2.52078,1.492814 0.4599,1.546146 -0.65755,3.077632 -2.13607,3.489857 -2.108,0.58773 -4.17482,-0.939394 -4.7068,-2.961525 -0.73824,-2.806128 1.29956,-5.534568 3.9988,-6.208376 3.65977,-0.913583 7.19361,1.750449 8.03346,5.279375 1.116,4.689219 -2.30522,9.190648 -6.83654,10.223004 -5.91578,1.347774 -11.56636,-2.977769 -12.81996,-8.705342 -1.61128,-7.361795 3.7827,-14.363346 10.92258,-15.869287 9.05058,-1.908948 17.62608,4.735316 19.41789,13.526725 2.24327,11.006447 -5.85164,21.400909 -16.55796,23.514609 -13.25466,2.616807 -25.736,-7.148353 -28.21016,-20.0581 -3.03219,-15.821435 8.64282,-30.681326 24.07057,-33.557137 13.58465,-2.532248 27.42206,4.178545 34.6602,15.782099"
       transform="matrix(0.26458333,0,0,0.26458333,-26.873911,2.3478618)" />
    <path
       sodipodi:type="spiral"
       style="fill:none;fill-rule:evenodd;stroke:#00eab5;stroke-linecap:round;stroke-opacity:1"
       id="path1168"
       sodipodi:cx="150.24995"
       sodipodi:cy="45.936295"
       sodipodi:expansion="5.6900001"
       sodipodi:revolution="3.29"
       sodipodi:radius="62.349247"
       sodipodi:argument="-35.322281"
       sodipodi:t0="0.050000001"
       d="m 150.24995,45.936294 c -1.4e-4,-6.9e-5 10e-5,-4.21e-4 1.3e-4,-4.56e-4 0.002,-0.0021 0.006,9.99e-4 0.007,0.0023 0.011,0.01393 -0.007,0.03311 -0.0181,0.03939 -0.0624,0.03503 -0.13017,-0.034 -0.15174,-0.08616 -0.084,-0.203115 0.12448,-0.394179 0.29897,-0.44828 0.53822,-0.166872 0.99907,0.364556 1.10923,0.836226 0.28835,1.234548 -0.90675,2.22551 -2.00561,2.417541 -2.54511,0.444769 -4.4955,-1.995605 -4.78941,-4.289506 -0.61921,-4.832821 3.99693,-8.410751 8.39762,-8.807906 8.59663,-0.77583 14.79487,7.430249 15.25965,15.325263 0.85361,14.499876 -13.00438,24.739106 -26.41691,25.174355 -23.4008,0.759378 -39.65158,-21.656007 -39.86721,-43.43501 -0.15266,-15.419077 6.69645,-30.2544379 17.55257,-41.0378564"
       transform="matrix(0.26458333,0,0,0.26458333,-26.87391,2.347862)" />
    <path
       sodipodi:type="spiral"
       style="fill:none;fill-rule:evenodd;stroke:#00eab5;stroke-linecap:round;stroke-opacity:1"
       id="path1609"
       sodipodi:cx="152.40321"
       sodipodi:cy="55.027851"
       sodipodi:expansion="5.77"
       sodipodi:revolution="4.29"
       sodipodi:radius="63.669689"
       sodipodi:argument="-19.998112"
       sodipodi:t0="0.050000001"
       d="m 152.40322,55.027851 c 5e-5,2.6e-5 -3e-5,1.5e-4 -4e-5,1.68e-4 -5.1e-4,6.5e-4 -0.002,-1.81e-4 -0.002,-5.74e-4 -0.003,-0.0037 0.001,-0.0091 0.004,-0.01096 0.0157,-0.0099 0.0343,0.0067 0.0406,0.02003 0.0241,0.05004 -0.0251,0.101425 -0.0685,0.117806 -0.13096,0.04943 -0.25367,-0.07429 -0.28848,-0.189865 -0.0898,-0.298224 0.18618,-0.56057 0.45304,-0.625335 0.61228,-0.148595 1.1269,0.412123 1.23572,0.966236 0.22782,1.160072 -0.82939,2.102519 -1.88916,2.270823 -2.06161,0.327405 -3.69326,-1.548382 -3.9357,-3.446655 -0.44408,-3.476992 2.72055,-6.172807 5.9436,-6.500135 5.61418,-0.570169 9.89562,4.547105 10.31042,9.781241 0.6924,8.737248 -7.28833,15.310834 -15.47476,15.801959 -13.17523,0.790415 -22.97701,-11.27375 -23.5127,-23.672132 -0.83525,-19.331583 16.91291,-33.578001 35.17431,-34.097402 27.6941,-0.787692 47.93953,24.706809 48.34263,50.956486 0.15061,9.806885 -2.19671,19.578329 -6.56908,28.344084"
       transform="matrix(0.26458333,0,0,0.26458333,-27.443629,-0.05761287)" />
    <g
       id="g13454"
       transform="translate(-34.840958,-3.0165149)">
      <path
         d="m 45.292836,17.628315 c 0,0 1.516454,0.756925 2.233809,0.703784 1.621452,-0.120104 2.435476,-0.932316 2.435476,-0.932316 -0.54384,-0.327841 -0.955711,-0.786429 -1.731692,-0.781292 -0.783756,0.0052 -1.259633,0.488928 -1.956405,0.7857 -0.319206,0.135953 -0.981188,0.224089 -0.981188,0.224089 z"
         id="path832"
         style="fill:#9afd3a;stroke-width:0.347102" />
      <path
         style="fill:#9a563a;fill-opacity:1;stroke:none;stroke-width:0.235561;stroke-linecap:butt;stroke-linejoin:miter;stroke-miterlimit:4;stroke-dasharray:none;stroke-opacity:1"
         d="m 49.962154,17.399825 c 0,0 -1.773727,0.375301 -3.096501,0.275804 -1.348415,-0.101383 -1.663586,-0.186854 -1.856586,-0.20316 -0.23129,-0.01954 -0.263681,0.215813 -0.05241,0.227164 0.518372,0.02785 1.018679,0.03219 1.97907,0.05449 1.442454,0.0335 3.026394,-0.35434 3.026394,-0.35434 z"
         id="path5038-4"
         sodipodi:nodetypes="csssscc" />
    </g>
    <g
       id="g13450"
       transform="translate(-27.253926,-0.93511687)">
      <path
         d="m 40.029688,16.114384 c 1.119314,0 2.345401,-0.795999 2.345401,-0.795999 -0.636214,-0.383528 -1.511895,-0.817408 -2.274856,-0.833684 -2.094513,-0.04468 -2.883593,1.571957 -0.07055,1.629683 2e-6,0 5e-6,0 5e-6,0 z"
         id="path836"
         style="fill:#9afd3a;stroke-width:0.40606"
         sodipodi:nodetypes="scsss" />
      <path
         style="fill:#9a563a;fill-opacity:1;stroke:none;stroke-width:0.235561;stroke-linecap:butt;stroke-linejoin:miter;stroke-miterlimit:4;stroke-dasharray:none;stroke-opacity:1"
         d="m 42.375089,15.318385 c 0,0 -1.764026,0.169067 -3.0868,0.06957 -1.348415,-0.101383 -1.654204,-0.166411 -1.847204,-0.182717 -0.23129,-0.01954 -0.263681,0.215813 -0.05241,0.227164 0.518372,0.02785 0.977399,0.02749 1.93779,0.04979 1.442454,0.0335 3.048591,-0.163849 3.048591,-0.163849 z"
         id="path5038"
         sodipodi:nodetypes="csssscc" />
    </g>
    <g
       id="g13446"
       transform="matrix(-1,0,0,1,48.324124,-4.3593949)">
      <path
         d="m 33.87988,19.394267 c 0,0 1.149609,0.251394 1.853408,0.202701 1.59084,-0.110059 2.389482,-0.854347 2.389482,-0.854347 -0.533562,-0.300423 -1.567789,-0.82299 -2.386646,-0.684353 -0.768621,0.130142 -1.291244,0.52554 -1.856244,1.335971 z"
         id="path834"
         style="fill:#9afd3a;stroke-width:0.405134" />
      <path
         style="fill:#9a563a;fill-opacity:1;stroke:none;stroke-width:0.235561;stroke-linecap:butt;stroke-linejoin:miter;stroke-miterlimit:4;stroke-dasharray:none;stroke-opacity:1"
         d="m 38.12277,18.742621 c 0,0 -0.709399,0.02678 -2.032173,0.126273 -1.348415,0.101383 -2.530111,0.851626 -2.723111,0.867932 -0.23129,0.01954 -0.204705,-0.234094 -0.0073,-0.31013 0.539678,-0.207835 1.726911,-0.639359 2.687302,-0.661659 1.442454,-0.0335 2.075282,-0.02242 2.075282,-0.02242 z"
         id="path5038-2"
         sodipodi:nodetypes="csssscc" />
    </g>
  </g>
  <ellipse
     style="fill:none;fill-opacity:1;fill-rule:evenodd;stroke:#01c3d5;stroke-width:0.221435;stroke-linecap:round;stroke-linejoin:round;stroke-miterlimit:4;stroke-dasharray:none;stroke-opacity:1;paint-order:stroke fill markers"
     id="path13600"
     cx="17.5"
     cy="15"
     rx="14.64159"
     ry="13.824414" />
</svg>
