<?xml version="1.0" encoding="UTF-8" standalone="no"?>
<!-- Created with Inkscape (http://www.inkscape.org/) -->

<svg
   width="55mm"
   height="55mm"
   version="1.1"
   viewBox="0 0 55 55"
   id="svg931"
   sodipodi:docname="windy.svg"
   inkscape:version="1.1.1 (3bf5ae0d25, 2021-09-20)"
   xmlns:inkscape="http://www.inkscape.org/namespaces/inkscape"
   xmlns:sodipodi="http://sodipodi.sourceforge.net/DTD/sodipodi-0.dtd"
   xmlns="http://www.w3.org/2000/svg"
   xmlns:svg="http://www.w3.org/2000/svg">
  <defs
     id="defs935" />
  <sodipodi:namedview
     id="namedview933"
     pagecolor="#ffffff"
     bordercolor="#666666"
     borderopacity="1.0"
     inkscape:pageshadow="2"
     inkscape:pageopacity="0.0"
     inkscape:pagecheckerboard="0"
     inkscape:document-units="mm"
     showgrid="false"
     inkscape:zoom="20.48"
     inkscape:cx="102.68555"
     inkscape:cy="117.89551"
     inkscape:window-width="1453"
     inkscape:window-height="969"
     inkscape:window-x="2116"
     inkscape:window-y="215"
     inkscape:window-maximized="0"
     inkscape:current-layer="svg931" />
  <g
     fill="none"
     stroke="#00eab5"
     stroke-linecap="round"
     stroke-width=".52917"
     id="g915">
    <path
       d="m27.952 29.188c5e-6 4.6e-5 -1.44e-4 1.2e-5 -1.5e-4 1e-5 -9.31e-4 -2.62e-4 -2.92e-4 -0.0016 0-0.0019 0.0023-0.0032 7e-3 -8.38e-4 9e-3 0.0013 0.0077 0.0083 9.31e-4 0.02114-0.0069 0.02653-0.02165 0.01514-0.04987-0.0013-0.06127-0.02126-0.02632-0.04605 0.0076-0.1006 0.05027-0.12138 0.08604-0.04188 0.18202 0.02051 0.21629 0.10081 0.06261 0.14673-0.04318 0.30397-0.18097 0.35662-0.2339 0.08935-0.47746-0.07896-0.5542-0.29985-0.12292-0.35384 0.13184-0.71459 0.46758-0.82198 0.5134-0.16423 1.0284 0.20603 1.174 0.69521 0.21418 0.72005-0.30624 1.4333-0.99482 1.6253-0.98174 0.27371-1.9443-0.43748-2.192-1.3792-0.3438-1.3068 0.60525-2.5775 1.8623-2.8913 1.7044-0.42548 3.3502 0.81519 3.7413 2.4587 0.51974 2.1839-1.0736 4.2801-3.1839 4.761-2.7551 0.62769-5.3864-1.3868-5.9704-4.0541-0.75041-3.4285 1.7616-6.6891 5.087-7.3904 4.215-0.88901 8.2087 2.2054 9.0432 6.2998 1.0447 5.1257-2.7251 9.9668-7.7113 10.951-6.173 1.2187-11.986-3.3291-13.138-9.3412-1.4121-7.368 4.0251-14.289 11.21-15.628 6.3267-1.1793 12.771 1.9459 16.142 7.3499"
       id="path909" />
    <path
       d="m27.952 29.188c-6.5e-5 -3.2e-5 4.6e-5 -1.97e-4 6e-5 -2.13e-4 9.33e-4 -9.77e-4 0.0028 4.66e-4 0.0033 0.0011 0.0051 0.0065-0.0033 0.01549-0.0084 0.01834-0.02906 0.01637-0.06062-0.01584-0.07067-0.04013-0.03911-0.09459 0.05798-0.18357 0.13923-0.20878 0.25065-0.07771 0.46528 0.16979 0.51657 0.38944 0.13429 0.57492-0.42229 1.0364-0.93403 1.1259-1.1853 0.20714-2.0936-0.92939-2.2305-1.9977-0.28837-2.2508 1.8614-3.917 3.9108-4.102 4.0036-0.36132 6.8903 3.4604 7.1068 7.1371 0.39754 6.7528-6.0562 11.521-12.303 11.724-10.898 0.35366-18.466-10.085-18.567-20.228-0.071096-7.1809 3.1186-14.09 8.1747-19.112"
       id="path911" />
    <path
       d="m27.95 29.188c2.3e-5 1.2e-5 -1.4e-5 7e-5 -2e-5 7.9e-5 -2.37e-4 3.03e-4 -9.31e-4 -8.5e-5 -9.31e-4 -2.68e-4 -0.0014-0.0017 4.67e-4 -0.0042 0.0019-0.0051 0.0074-0.0046 0.01602 0.0032 0.01891 0.0093 0.01126 0.02331-0.01162 0.04723-0.0319 0.05486-0.06099 0.02302-0.11814-0.0346-0.13436-0.08842-0.04182-0.13888 0.08671-0.26107 0.21098-0.29122 0.28515-0.06921 0.52482 0.19193 0.57548 0.45 0.1061 0.54028-0.38626 0.97917-0.87982 1.0575-0.96012 0.15247-1.72-0.72112-1.8329-1.6052-0.20682-1.6193 1.267-2.8748 2.7681-3.0272 2.6146-0.26554 4.6086 2.1177 4.8015 4.5552 0.32247 4.0691-3.3942 7.1306-7.207 7.3592-6.1357 0.36815-10.701-5.2505-10.95-11.024-0.38899-9.0033 7.8766-15.638 16.381-15.88 12.898-0.36684 22.326 11.506 22.515 23.731 0.07014 4.5672-1.023 9.1177-3.0594 13.2"
       id="path913" />
  </g>
  <ellipse
     cx="27.616"
     cy="27.5"
     rx="25.773"
     ry="24.333"
     fill="none"
     stroke="#01c3d5"
     stroke-linecap="round"
     stroke-linejoin="round"
     stroke-width=".66146"
     style="paint-order:stroke fill markers"
     id="ellipse929" />
</svg>
