<?xml version="1.0" encoding="UTF-8"?>
<!-- Created with Inkscape (http://www.inkscape.org/) -->
<svg width="60mm" height="60mm" version="1.1" viewBox="0 0 60 60" xmlns="http://www.w3.org/2000/svg">
 <g fill="none">
  <g stroke-linecap="round">
   <g stroke="#00eab5">
    <path d="m30.47 31.209c-6.5e-5 -3.2e-5 4.6e-5 -1.97e-4 6e-5 -2.13e-4 9.33e-4 -9.77e-4 0.0028 4.66e-4 0.0033 0.0011 0.0051 0.0065-0.0033 0.01549-0.0084 0.01834-0.02906 0.01637-0.06062-0.01584-0.07067-0.04013-0.03911-0.09459 0.05798-0.18357 0.13923-0.20878 0.25065-0.07771 0.46528 0.16979 0.51657 0.38944 0.13429 0.57492-0.42229 1.0364-0.93403 1.1259-1.1853 0.20714-2.0936-0.92939-2.2305-1.9977-0.28837-2.2508 1.8614-3.917 3.9108-4.102 4.0036-0.36132 6.8903 3.4604 7.1068 7.1371 0.39754 6.7528-6.0562 11.521-12.303 11.724-10.898 0.35366-18.466-10.085-18.567-20.228-0.071096-7.1809 3.1186-14.09 8.1747-19.112" stroke-width=".52917"/>
    <path d="m30.467 31.21c2.5e-5 4e-6 1e-5 7.1e-5 7e-6 8.1e-5 -1.21e-4 3.65e-4 -9.05e-4 2.32e-4 -9.67e-4 6e-5 -0.0019-0.0011-9.67e-4 -0.0041 8.1e-5 -0.0054 0.0054-0.0068 0.01617-0.0024 0.02093 0.0024 0.01842 0.01819 0.0049 0.04839-0.01167 0.06238-0.04975 0.04213-0.1229 7e-3 -0.15622-0.03828-0.08594-0.11683-0.0058-0.27503 0.10118-0.34508 0.24547-0.16077 0.55879 5e-3 0.69301 0.23112 0.28102 0.47348-0.03578 1.052-0.47455 1.2912-0.8535 0.46541-1.8622-0.10301-2.2649-0.89813-0.73752-1.4564 0.23032-3.1332 1.5935-3.7798 2.3744-1.1264 5.0518 0.45079 6.0504 2.6827 1.6675 3.7257-0.8083 7.8557-4.324 9.3489-5.6575 2.4031-11.842-1.3607-14.011-6.7169-3.3837-8.3523 2.1805-17.373 10.112-20.451 12.029-4.668 24.891 3.3587 29.166 14.813 1.5967 4.2796 2.0917 8.9333 1.5411 13.462" stroke-width=".529"/>
    <path d="m30.467 31.21c-1.4e-5 2.1e-5 -6.8e-5 -2.3e-5 -7.6e-5 -3.1e-5 -2.68e-4 -2.75e-4 2.08e-4 -9.11e-4 3.9e-4 -8.86e-4 0.0019-0.0012 0.0041 1e-3 0.0048 0.0026 0.0036 0.0079-0.0053 0.01544-0.01175 0.0175-0.02461 8e-3 -0.04525-0.01784-0.0501-0.03895-0.01462-0.06353 0.0501-0.11245 0.10561-0.12131 0.14323-0.02285 0.24711 0.12088 0.26036 0.24806 0.03042 0.29185-0.26046 0.4944-0.52298 0.51006-0.54962 0.03282-0.91865-0.51386-0.93021-1.0135-0.02258-0.97189 0.94487-1.608 1.8361-1.6015 1.6324 0.0118 2.6793 1.6404 2.6294 3.1484-0.08684 2.6266-2.7155 4.2836-5.1569 4.1485-4.0756-0.22512-6.6121-4.3182-6.3282-8.1272 0.45649-6.1298 6.6357-9.9019 12.391-9.3758 8.9743 0.81969 14.443 9.899 13.544 18.359-1.363 12.831-14.391 20.585-26.531 19.136-4.5355-0.54186-8.8987-2.2343-12.672-4.7988" stroke-width=".529"/>
   </g>
   <ellipse cx="30.445" cy="30.038" rx="25.773" ry="24.333" stroke="#01c3d5" stroke-linejoin="round" stroke-width=".66146" style="paint-order:stroke fill markers"/>
  </g>
  <g stroke="#00eab5">
   <path transform="scale(.26458)" d="m115.16 117.96c-0.0363 0.0212-0.0689-0.0398-0.074-0.0651-0.0346-0.16972 0.18271-0.26348 0.31621-0.26256 0.47011 3e-3 0.6761 0.56311 0.62095 0.95524-0.14248 1.0131-1.3343 1.4022-2.2122 1.1976-1.8821-0.43861-2.5455-2.6678-2.042-4.342 0.95233-3.1668 4.7496-4.2169 7.6204-3.2052 4.9623 1.7489 6.5335 7.7786 4.7395 12.341-2.8975 7.3682-11.965 9.6178-18.812 6.6991-10.489-4.4708-13.598-17.529-9.1394-27.359 6.5449-14.432 24.7-18.605 38.318-12.117 19.308 9.1986 24.778 33.715 15.692 52.037-0.93445 1.8844-2.0046 3.7011-3.1966 5.434"/>
   <path transform="scale(.26458)" d="m115.16 117.96c-3e-3 9e-3 -0.025-8e-3 -0.0259-9e-3 -0.0839-0.0843 0.0529-0.21725 0.12025-0.2512 0.41472-0.20918 0.81521 0.27542 0.91102 0.62455 0.32543 1.1859-0.92292 2.1111-1.954 2.2564-2.6102 0.36782-4.4355-2.289-4.5604-4.6149-0.26431-4.9212 4.7027-8.15 9.1692-8.1155 8.3706 0.0647 13.643 8.5219 13.232 16.226-0.70542 13.225-14.129 21.325-26.432 20.235-19.765-1.7502-31.627-21.93-29.466-40.473 3.2965-28.284 32.349-45.001 59.063-41.278 39.085 5.4464 61.911 45.828 56.036 82.948-8.3065 52.483-62.826 82.843-112.9 74.119"/>
   <path transform="scale(.26458)" d="m115.15 117.96c-1e-3 -6e-3 0.0186-4e-3 0.0195-4e-3 0.0829 0.0215 0.0469 0.15402 0.0176 0.19976-0.18023 0.28173-0.60613 0.12838-0.79356-0.0528-0.63665-0.61543-0.20254-1.6466 0.38304-2.1148 1.4824-1.1854 3.5878-0.2087 4.5184 1.1866 1.9689 2.9522 0.0757 6.7748-2.7044 8.3918-5.2101 3.0304-11.579-0.2758-14.15-5.1997-4.4141-8.4531 0.93243-18.396 8.9548-22.234 12.889-6.1658 27.641 1.9867 33.103 14.268 8.3324 18.734-3.5366 39.748-21.454 47.241-26.215 10.963-55.17-5.6848-65.146-30.84-14.105-35.565 8.5392-74.375 42.765-87.337" stroke-linecap="round" stroke-width="1.0016"/>
  </g>
 </g>
</svg>
