<svg id="svg" version="1.1" xmlns="http://www.w3.org/2000/svg" xmlns:xlink="http://www.w3.org/1999/xlink" width="400" height="400" viewBox="0, 0, 400,400"><g id="svgg"><path id="path0" d="M51.283 121.392 C 49.593 122.813,49.026 124.670,49.608 126.876 C 50.035 128.491,50.242 129.320,51.167 133.100 C 51.557 134.695,52.152 137.043,52.789 139.500 C 53.002 140.325,55.285 149.550,57.862 160.000 C 60.439 170.450,62.716 179.225,62.923 179.500 C 63.342 180.059,115.798 180.249,116.652 179.694 C 117.077 179.418,111.871 172.344,84.055 135.400 C 72.402 119.923,73.522 120.652,61.156 120.479 L 52.512 120.358 51.283 121.392 M14.600 218.759 C 12.163 219.493,11.600 220.656,11.600 224.955 C 11.600 231.961,9.175 231.427,40.200 231.261 L 66.200 231.123 67.200 230.152 C 68.141 229.239,68.200 228.935,68.200 225.000 C 68.200 221.063,68.141 220.762,67.200 219.854 L 66.200 218.890 40.800 218.704 C 26.830 218.602,15.040 218.627,14.600 218.759 M265.100 250.621 C 264.935 250.793,264.800 257.383,264.800 265.267 L 264.800 279.600 269.421 279.600 C 274.409 279.600,275.875 279.083,277.535 276.740 C 278.563 275.287,278.761 256.281,277.769 254.190 C 276.448 251.408,274.977 250.719,269.893 250.502 C 267.422 250.396,265.265 250.450,265.100 250.621 " stroke="none" fill="#f75963" fill-rule="evenodd"></path><path id="path1" d="M253.702 185.900 C 253.485 186.505,253.149 187.521,252.954 188.158 C 252.759 188.796,251.908 189.876,251.063 190.558 L 249.526 191.800 145.263 192.000 L 41.000 192.200 39.258 193.197 C 35.308 195.456,33.264 199.147,33.218 204.100 L 33.200 206.000 39.100 206.031 C 42.345 206.048,50.310 206.196,56.800 206.360 L 68.600 206.658 71.320 207.980 C 74.757 209.651,77.218 212.103,78.890 215.521 L 80.200 218.200 80.200 225.000 L 80.200 231.800 78.890 234.578 C 77.576 237.363,73.748 241.600,72.546 241.600 C 72.246 241.600,72.000 241.780,72.000 242.000 C 72.000 242.220,71.651 242.400,71.224 242.400 C 70.797 242.400,70.336 242.580,70.200 242.800 C 70.064 243.020,69.353 243.200,68.619 243.200 C 66.546 243.200,66.539 245.523,68.612 245.587 C 68.838 245.594,69.283 245.960,69.600 246.400 C 69.917 246.840,70.457 247.200,70.800 247.200 C 71.143 247.200,71.683 247.560,72.000 248.000 C 72.317 248.440,72.857 248.800,73.200 248.800 C 73.543 248.800,74.083 249.160,74.400 249.600 C 74.717 250.040,75.207 250.400,75.488 250.400 C 75.770 250.400,76.000 250.561,76.000 250.757 C 76.000 251.824,77.465 251.560,78.595 250.291 C 81.797 246.692,84.988 247.218,96.495 253.237 C 96.877 253.437,97.541 253.600,97.971 253.600 C 98.401 253.600,98.864 253.780,99.000 254.000 C 99.136 254.220,99.676 254.400,100.200 254.400 C 100.724 254.400,101.264 254.580,101.400 254.800 C 101.536 255.020,102.177 255.200,102.824 255.200 C 103.471 255.200,104.000 255.380,104.000 255.600 C 104.000 255.820,104.619 256.000,105.376 256.000 C 106.133 256.000,106.864 256.180,107.000 256.400 C 107.136 256.620,107.831 256.800,108.544 256.800 C 109.257 256.800,110.011 256.963,110.220 257.161 C 110.429 257.360,111.500 257.632,112.600 257.767 C 121.752 258.885,125.370 258.974,161.971 258.987 L 200.141 259.000 201.456 255.635 C 202.179 253.784,202.957 252.083,203.185 251.855 C 203.413 251.627,203.600 251.296,203.600 251.120 C 203.600 250.944,196.445 250.797,187.700 250.793 C 171.988 250.787,171.781 250.776,170.222 249.893 C 166.236 247.635,166.066 241.947,169.907 239.341 C 171.357 238.358,275.075 238.165,277.600 239.141 C 285.673 242.262,290.800 249.356,290.800 257.406 L 290.800 259.200 305.600 259.200 L 320.400 259.200 322.000 260.800 C 322.880 261.680,323.600 262.724,323.600 263.120 C 323.600 263.516,323.825 264.325,324.100 264.917 L 324.600 265.994 330.900 265.997 L 337.200 266.000 337.200 264.780 C 337.200 263.120,338.132 261.445,339.737 260.221 L 341.076 259.200 356.238 259.168 C 370.452 259.139,376.142 258.792,377.034 257.899 C 377.199 257.735,377.663 257.600,378.067 257.600 C 378.470 257.600,378.800 257.464,378.800 257.298 C 378.800 257.131,379.295 256.768,379.900 256.490 C 386.912 253.268,389.927 242.645,385.980 235.071 C 384.316 231.880,379.754 227.600,378.017 227.600 C 377.781 227.600,377.277 227.438,376.895 227.239 C 376.513 227.040,375.390 226.663,374.400 226.400 C 373.410 226.137,372.287 225.760,371.905 225.561 C 371.523 225.362,370.769 225.200,370.229 225.200 C 369.689 225.200,369.136 225.020,369.000 224.800 C 368.864 224.580,368.371 224.400,367.905 224.400 C 367.106 224.400,365.195 223.880,363.400 223.175 C 361.299 222.349,358.594 222.234,335.800 222.000 C 308.504 221.720,310.203 221.875,304.636 219.152 C 301.617 217.676,295.200 211.830,295.200 210.557 C 295.200 210.429,294.871 209.846,294.470 209.262 C 294.068 208.678,293.510 207.570,293.229 206.800 C 292.949 206.030,292.570 205.040,292.387 204.600 C 291.806 203.201,291.534 201.122,291.330 196.500 L 291.131 192.000 280.866 191.996 C 266.737 191.990,265.969 191.752,264.284 186.874 L 263.567 184.800 258.832 184.800 L 254.097 184.800 253.702 185.900 M131.194 204.540 C 134.330 206.143,135.519 210.176,133.746 213.188 C 131.194 217.523,121.015 217.543,118.101 213.219 C 113.896 206.979,123.507 200.609,131.194 204.540 M160.104 204.401 C 166.273 207.315,164.497 215.367,157.498 216.214 C 148.340 217.322,142.847 211.369,147.948 205.865 C 150.155 203.484,156.536 202.715,160.104 204.401 M188.851 204.167 C 195.215 206.844,193.905 215.355,186.995 216.218 C 178.659 217.259,173.012 212.539,176.100 207.110 C 177.914 203.921,184.598 202.379,188.851 204.167 M218.113 204.190 C 224.513 206.863,222.866 215.458,215.810 216.214 C 207.140 217.142,202.067 212.651,205.387 206.985 C 207.203 203.887,213.879 202.420,218.113 204.190 M247.251 204.165 C 250.877 205.684,252.376 210.137,250.299 213.219 C 247.045 218.047,236.159 217.384,234.194 212.239 C 231.881 206.183,240.034 201.142,247.251 204.165 M276.527 204.195 C 279.906 205.607,281.450 210.665,279.358 213.471 C 276.445 217.379,266.727 217.430,263.965 213.551 C 259.670 207.519,268.587 200.878,276.527 204.195 " stroke="none" fill="#daeafb" fill-rule="evenodd"></path><path id="path2" d="M52.000 108.000 C 52.000 108.220,51.213 108.400,50.251 108.400 C 48.397 108.400,45.243 109.584,44.404 110.595 C 44.128 110.928,43.738 111.200,43.538 111.200 C 42.975 111.200,40.400 113.907,40.400 114.498 C 40.400 114.787,40.040 115.283,39.600 115.600 C 39.160 115.917,38.800 116.497,38.800 116.888 C 38.800 117.280,38.620 117.600,38.400 117.600 C 38.180 117.600,38.000 118.140,38.000 118.800 C 38.000 119.460,37.820 120.000,37.600 120.000 C 37.064 120.000,37.064 129.869,37.600 130.200 C 37.820 130.336,38.000 131.056,38.000 131.800 C 38.000 132.544,38.180 133.264,38.400 133.400 C 38.620 133.536,38.800 134.256,38.800 135.000 C 38.800 135.744,38.980 136.464,39.200 136.600 C 39.420 136.736,39.600 137.456,39.600 138.200 C 39.600 138.944,39.780 139.664,40.000 139.800 C 40.220 139.936,40.400 140.757,40.400 141.624 C 40.400 142.491,40.561 143.200,40.758 143.200 C 40.955 143.200,41.210 143.875,41.324 144.700 C 41.438 145.525,41.804 147.460,42.137 149.000 C 42.705 151.626,42.948 152.638,44.033 156.900 C 44.270 157.835,44.560 159.276,44.675 160.103 C 44.790 160.929,45.045 161.705,45.242 161.826 C 45.439 161.948,45.600 162.656,45.600 163.400 C 45.600 164.144,45.780 164.864,46.000 165.000 C 46.220 165.136,46.400 165.856,46.400 166.600 C 46.400 167.344,46.580 168.064,46.800 168.200 C 47.020 168.336,47.200 169.056,47.200 169.800 C 47.200 170.544,47.380 171.264,47.600 171.400 C 47.820 171.536,48.000 172.267,48.000 173.024 C 48.000 173.781,48.180 174.400,48.400 174.400 C 48.620 174.400,48.800 175.120,48.800 176.000 C 48.800 176.880,48.980 177.600,49.200 177.600 C 49.420 177.600,49.600 177.951,49.600 178.379 C 49.600 179.104,49.223 179.170,44.100 179.335 C 38.235 179.523,35.600 179.867,35.600 180.444 C 35.600 180.640,35.251 180.800,34.824 180.800 C 34.397 180.800,33.936 180.980,33.800 181.200 C 33.664 181.420,33.237 181.600,32.852 181.600 C 32.466 181.600,31.764 181.960,31.292 182.400 C 30.820 182.840,30.264 183.200,30.057 183.200 C 29.850 183.200,28.808 184.087,27.741 185.171 C 25.209 187.741,24.800 188.259,24.800 188.895 C 24.800 189.186,24.440 189.683,24.000 190.000 C 23.560 190.317,23.200 190.897,23.200 191.288 C 23.200 191.680,23.020 192.000,22.800 192.000 C 22.580 192.000,22.400 192.360,22.400 192.800 C 22.400 193.240,22.220 193.600,22.000 193.600 C 21.780 193.600,21.600 194.129,21.600 194.776 C 21.600 195.423,21.420 196.064,21.200 196.200 C 20.969 196.342,20.800 198.471,20.800 201.224 L 20.800 206.000 16.400 206.000 C 13.733 206.000,12.000 206.158,12.000 206.400 C 12.000 206.620,11.370 206.800,10.600 206.800 C 9.830 206.800,9.200 206.980,9.200 207.200 C 9.200 207.420,8.840 207.600,8.400 207.600 C 7.960 207.600,7.600 207.780,7.600 208.000 C 7.600 208.220,7.278 208.400,6.885 208.400 C 6.085 208.400,2.000 212.057,2.000 212.774 C 2.000 213.027,1.650 213.609,1.222 214.068 C -0.140 215.531,-0.615 234.662,0.700 235.100 C 0.975 235.192,1.200 235.522,1.200 235.833 C 1.200 236.145,1.380 236.400,1.600 236.400 C 1.820 236.400,2.000 236.689,2.000 237.043 C 2.000 237.894,5.972 241.600,6.885 241.600 C 7.278 241.600,7.600 241.780,7.600 242.000 C 7.600 242.220,7.960 242.400,8.400 242.400 C 8.840 242.400,9.200 242.580,9.200 242.800 C 9.200 243.020,9.830 243.200,10.600 243.200 C 11.370 243.200,12.000 243.380,12.000 243.600 C 12.000 244.329,65.526 244.131,66.257 243.400 C 66.587 243.070,67.224 242.800,67.671 242.800 C 70.951 242.800,76.364 238.453,78.431 234.159 L 79.759 231.400 79.759 225.000 C 79.759 215.969,77.501 211.575,71.296 208.527 L 69.000 207.400 56.800 207.148 C 50.090 207.009,41.945 206.874,38.700 206.848 L 32.800 206.800 32.800 203.396 C 32.800 198.421,34.613 195.091,38.600 192.742 L 40.200 191.800 144.600 191.600 C 222.661 191.450,249.202 191.283,249.800 190.937 C 252.396 189.433,254.824 183.551,253.311 182.430 C 253.140 182.304,252.805 181.840,252.567 181.400 C 252.329 180.960,251.744 180.422,251.267 180.205 C 250.790 179.988,250.400 179.673,250.400 179.505 C 250.400 179.337,223.850 179.200,191.400 179.200 C 142.099 179.200,132.400 179.111,132.400 178.659 C 132.400 178.362,131.860 177.554,131.200 176.863 C 130.540 176.172,130.000 175.498,130.000 175.364 C 130.000 175.230,129.460 174.617,128.800 174.000 C 128.140 173.383,127.600 172.663,127.600 172.400 C 127.600 172.137,127.060 171.417,126.400 170.800 C 125.740 170.183,125.200 169.474,125.200 169.223 C 125.200 168.972,125.017 168.549,124.793 168.283 C 123.247 166.451,122.800 165.839,122.800 165.557 C 122.800 165.381,122.350 164.786,121.800 164.236 C 121.250 163.686,120.800 163.075,120.800 162.878 C 120.800 162.680,120.260 161.954,119.600 161.263 C 118.940 160.572,118.400 159.898,118.400 159.764 C 118.400 159.630,117.860 159.017,117.200 158.400 C 116.540 157.783,116.000 157.063,116.000 156.800 C 116.000 156.537,115.460 155.817,114.800 155.200 C 114.140 154.583,113.600 153.863,113.600 153.600 C 113.600 153.337,113.060 152.617,112.400 152.000 C 111.740 151.383,111.200 150.663,111.200 150.400 C 111.200 150.137,110.660 149.417,110.000 148.800 C 109.340 148.183,108.800 147.550,108.800 147.393 C 108.800 146.994,105.980 143.138,105.114 142.353 C 104.721 141.997,104.400 141.529,104.400 141.312 C 104.400 141.096,103.860 140.354,103.200 139.663 C 102.540 138.972,102.000 138.252,102.000 138.063 C 102.000 137.874,101.460 137.154,100.800 136.463 C 100.140 135.772,99.600 135.052,99.600 134.863 C 99.600 134.674,99.060 133.954,98.400 133.263 C 97.740 132.572,97.200 131.852,97.200 131.663 C 97.200 131.474,96.660 130.754,96.000 130.063 C 95.340 129.372,94.800 128.626,94.800 128.404 C 94.800 128.182,94.620 128.000,94.400 128.000 C 94.180 128.000,94.000 127.770,94.000 127.488 C 94.000 127.207,93.640 126.717,93.200 126.400 C 92.760 126.083,92.400 125.676,92.400 125.495 C 92.400 125.314,92.025 124.769,91.566 124.283 C 91.107 123.797,90.459 122.878,90.125 122.241 C 89.792 121.604,89.087 120.650,88.559 120.123 C 88.032 119.595,87.600 118.991,87.600 118.779 C 87.600 118.167,81.207 112.000,80.573 112.000 C 80.258 112.000,80.000 111.851,80.000 111.668 C 80.000 111.486,79.055 110.925,77.900 110.423 C 76.745 109.920,75.440 109.320,75.000 109.088 C 74.560 108.857,72.895 108.584,71.300 108.481 C 69.705 108.379,68.400 108.138,68.400 107.947 C 68.400 107.756,64.710 107.600,60.200 107.600 C 55.000 107.600,52.000 107.746,52.000 108.000 M71.066 121.228 C 74.070 122.516,75.385 123.729,78.984 128.536 C 80.822 130.991,90.165 143.426,99.745 156.168 C 109.325 168.911,117.070 179.486,116.958 179.668 C 116.599 180.249,63.360 180.083,62.923 179.500 C 62.716 179.225,60.439 170.450,57.862 160.000 C 55.285 149.550,53.002 140.325,52.789 139.500 C 52.152 137.043,51.557 134.695,51.167 133.100 C 50.242 129.320,50.035 128.491,49.608 126.876 C 49.029 124.680,49.592 122.815,51.257 121.413 L 52.461 120.400 60.798 120.400 C 68.340 120.400,69.318 120.479,71.066 121.228 M267.600 179.600 C 267.600 179.820,267.322 180.000,266.982 180.000 C 266.126 180.000,264.400 181.806,264.400 182.702 C 264.400 183.108,264.214 183.626,263.987 183.853 C 263.534 184.306,263.872 185.600,264.443 185.600 C 264.639 185.600,264.800 185.969,264.800 186.420 C 264.800 190.732,266.733 191.378,280.102 191.536 C 291.512 191.672,291.604 191.680,291.779 192.536 C 291.876 193.011,292.044 195.470,292.152 198.000 C 292.557 207.461,297.268 214.985,305.252 218.918 C 310.571 221.539,311.116 221.585,336.740 221.593 L 359.681 221.600 363.940 222.805 C 366.283 223.468,368.920 224.213,369.800 224.459 C 370.680 224.706,371.940 225.060,372.600 225.245 C 386.971 229.283,392.813 241.242,385.580 251.819 C 380.807 258.799,377.849 259.600,356.847 259.600 L 341.333 259.600 339.910 260.900 C 337.862 262.771,336.128 268.400,337.600 268.400 C 337.820 268.400,338.000 268.683,338.000 269.029 C 338.000 269.837,338.963 270.800,339.771 270.800 C 340.117 270.800,340.400 270.983,340.400 271.208 C 340.400 271.684,376.881 271.503,379.300 271.015 C 380.125 270.849,380.800 270.552,380.800 270.356 C 380.800 270.160,381.340 270.000,382.000 270.000 C 382.660 270.000,383.200 269.820,383.200 269.600 C 383.200 269.380,383.560 269.200,384.000 269.200 C 384.440 269.200,384.800 269.020,384.800 268.800 C 384.800 268.580,385.160 268.400,385.600 268.400 C 386.040 268.400,386.400 268.220,386.400 268.000 C 386.400 267.780,386.643 267.600,386.941 267.600 C 387.238 267.600,388.046 267.060,388.737 266.400 C 389.428 265.740,390.100 265.200,390.231 265.200 C 390.629 265.200,394.800 260.721,394.800 260.293 C 394.800 260.074,395.129 259.603,395.530 259.247 C 395.932 258.891,396.516 258.015,396.828 257.300 C 397.140 256.585,397.531 256.000,397.698 256.000 C 397.864 256.000,398.000 255.640,398.000 255.200 C 398.000 254.760,398.180 254.400,398.400 254.400 C 398.620 254.400,398.800 253.986,398.800 253.480 C 398.800 252.974,399.025 252.335,399.300 252.060 C 399.671 251.689,399.800 249.194,399.800 242.400 C 399.800 235.605,399.671 233.111,399.300 232.740 C 399.025 232.465,398.800 231.916,398.800 231.520 C 398.800 231.124,398.620 230.800,398.400 230.800 C 398.180 230.800,398.000 230.440,398.000 230.000 C 398.000 229.560,397.820 229.200,397.600 229.200 C 397.380 229.200,397.200 228.840,397.200 228.400 C 397.200 227.960,397.020 227.600,396.800 227.600 C 396.580 227.600,396.400 227.358,396.400 227.062 C 396.400 226.766,396.040 226.198,395.600 225.800 C 395.160 225.402,394.800 224.921,394.800 224.731 C 394.800 224.296,389.728 219.200,389.296 219.200 C 389.120 219.200,388.717 218.840,388.400 218.400 C 388.083 217.960,387.503 217.600,387.112 217.600 C 386.720 217.600,386.400 217.420,386.400 217.200 C 386.400 216.980,386.040 216.800,385.600 216.800 C 385.160 216.800,384.800 216.620,384.800 216.400 C 384.800 216.180,384.440 216.000,384.000 216.000 C 383.560 216.000,383.200 215.820,383.200 215.600 C 383.200 215.380,382.761 215.200,382.224 215.200 C 381.687 215.200,381.136 215.020,381.000 214.800 C 380.864 214.580,380.223 214.400,379.576 214.400 C 378.929 214.400,378.400 214.220,378.400 214.000 C 378.400 213.780,377.871 213.600,377.224 213.600 C 376.577 213.600,375.936 213.420,375.800 213.200 C 375.664 212.980,375.034 212.800,374.400 212.800 C 373.766 212.800,373.136 212.620,373.000 212.400 C 372.864 212.180,372.234 212.000,371.600 212.000 C 370.966 212.000,370.336 211.820,370.200 211.600 C 370.064 211.380,369.434 211.200,368.800 211.200 C 368.166 211.200,367.536 211.020,367.400 210.800 C 367.264 210.580,366.711 210.400,366.171 210.400 C 365.631 210.400,364.877 210.242,364.495 210.049 C 362.963 209.275,360.745 208.399,360.286 208.388 C 360.019 208.381,359.350 207.830,358.800 207.163 C 358.250 206.496,357.395 205.519,356.900 204.993 C 356.405 204.467,356.000 203.875,356.000 203.678 C 356.000 203.480,355.460 202.754,354.800 202.063 C 354.140 201.372,353.600 200.663,353.600 200.488 C 353.600 200.312,352.880 199.372,352.000 198.400 C 351.120 197.428,350.400 196.472,350.400 196.276 C 350.400 196.081,349.860 195.417,349.200 194.800 C 348.540 194.183,348.000 193.567,348.000 193.431 C 348.000 193.046,343.662 188.800,343.268 188.800 C 343.076 188.800,342.354 188.260,341.663 187.600 C 340.972 186.940,340.265 186.400,340.092 186.400 C 339.919 186.400,339.517 186.040,339.200 185.600 C 338.883 185.160,338.303 184.800,337.912 184.800 C 337.520 184.800,337.200 184.620,337.200 184.400 C 337.200 184.180,336.840 184.000,336.400 184.000 C 335.960 184.000,335.600 183.820,335.600 183.600 C 335.600 183.380,335.240 183.200,334.800 183.200 C 334.360 183.200,334.000 183.020,334.000 182.800 C 334.000 182.580,333.640 182.400,333.200 182.400 C 332.760 182.400,332.400 182.220,332.400 182.000 C 332.400 181.780,331.860 181.600,331.200 181.600 C 330.540 181.600,330.000 181.420,330.000 181.200 C 330.000 180.980,329.460 180.800,328.800 180.800 C 328.140 180.800,327.600 180.620,327.600 180.400 C 327.600 180.180,326.700 180.000,325.600 180.000 C 324.500 180.000,323.600 179.820,323.600 179.600 C 323.600 179.337,314.000 179.200,295.600 179.200 C 277.200 179.200,267.600 179.337,267.600 179.600 M324.307 192.517 C 329.441 194.014,334.868 197.459,338.014 201.216 C 340.717 204.445,344.400 209.337,344.400 209.699 C 344.400 209.883,337.245 209.982,328.500 209.917 L 312.600 209.800 310.584 208.736 C 305.147 205.866,301.479 197.350,303.459 192.191 C 303.812 191.270,320.950 191.537,324.307 192.517 M121.359 204.675 C 117.276 205.479,116.497 212.275,120.211 214.700 C 121.789 215.731,129.232 216.035,130.926 215.137 C 135.055 212.950,135.111 206.977,131.021 205.037 C 129.747 204.432,123.735 204.207,121.359 204.675 M150.531 204.678 C 147.694 205.231,145.935 209.567,147.400 212.399 C 149.696 216.839,160.417 217.057,162.586 212.707 C 165.491 206.884,159.543 202.923,150.531 204.678 M179.090 204.962 C 175.382 206.971,174.814 210.835,177.789 213.811 L 179.579 215.600 183.995 215.600 C 191.858 215.600,195.293 210.549,190.554 205.955 L 189.160 204.604 184.680 204.482 C 181.269 204.389,179.935 204.504,179.090 204.962 M208.083 205.045 C 204.171 207.039,204.284 213.024,208.274 215.137 C 210.116 216.113,217.556 215.729,219.063 214.579 C 222.319 212.096,222.322 207.298,219.070 205.191 C 217.684 204.294,209.763 204.189,208.083 205.045 M237.249 205.062 C 233.416 207.013,233.393 213.031,237.212 215.006 C 239.061 215.962,246.225 215.826,247.904 214.802 C 251.446 212.642,251.647 207.378,248.270 205.191 C 246.866 204.283,238.962 204.190,237.249 205.062 M266.449 205.084 C 262.661 206.950,262.443 212.575,266.073 214.788 C 267.986 215.954,275.182 215.974,277.078 214.818 C 280.915 212.478,280.448 205.892,276.364 204.749 C 274.312 204.175,267.850 204.394,266.449 205.084 M67.289 219.511 C 68.676 220.898,68.676 229.102,67.289 230.489 L 66.378 231.400 40.450 231.400 C 12.548 231.400,12.999 231.433,12.044 229.337 C 10.911 226.849,11.640 220.347,13.158 219.400 C 14.563 218.524,16.286 218.470,40.889 218.534 L 66.378 218.600 67.289 219.511 M172.087 239.083 C 167.871 239.629,166.266 245.439,169.450 248.624 L 170.827 250.000 187.226 250.000 C 206.011 250.000,204.803 249.708,202.842 253.774 C 202.159 255.190,201.600 256.550,201.600 256.795 C 201.600 257.039,201.325 257.771,200.990 258.420 L 200.379 259.600 162.290 259.588 C 120.413 259.575,117.915 259.468,107.800 257.249 C 106.700 257.008,105.170 256.640,104.400 256.432 C 103.630 256.224,102.550 255.937,102.000 255.794 C 101.450 255.650,100.640 255.386,100.200 255.207 C 99.760 255.028,98.770 254.664,98.000 254.400 C 95.294 253.471,92.976 252.470,88.160 250.152 C 83.336 247.830,82.146 247.891,79.129 250.617 C 78.287 251.378,77.418 252.000,77.199 252.000 C 76.626 252.000,76.706 255.848,77.300 256.880 C 78.109 258.286,80.323 260.400,80.987 260.400 C 81.324 260.400,81.600 260.580,81.600 260.800 C 81.600 261.020,81.960 261.200,82.400 261.200 C 82.840 261.200,83.200 261.380,83.200 261.600 C 83.200 261.820,83.560 262.000,84.000 262.000 C 84.440 262.000,84.800 262.180,84.800 262.400 C 84.800 262.620,85.160 262.800,85.600 262.800 C 86.040 262.800,86.400 262.980,86.400 263.200 C 86.400 263.420,86.839 263.600,87.376 263.600 C 87.913 263.600,88.464 263.780,88.600 264.000 C 88.736 264.220,89.197 264.400,89.624 264.400 C 90.051 264.400,90.400 264.580,90.400 264.800 C 90.400 265.020,90.749 265.200,91.176 265.200 C 91.603 265.200,92.064 265.380,92.200 265.600 C 92.336 265.820,92.887 266.000,93.424 266.000 C 93.961 266.000,94.400 266.180,94.400 266.400 C 94.400 266.620,94.839 266.800,95.376 266.800 C 95.913 266.800,96.464 266.980,96.600 267.200 C 96.736 267.420,97.467 267.600,98.224 267.600 C 98.981 267.600,99.600 267.780,99.600 268.000 C 99.600 268.220,100.140 268.400,100.800 268.400 C 101.460 268.400,102.000 268.580,102.000 268.800 C 102.000 269.020,102.799 269.200,103.776 269.200 C 104.753 269.200,105.664 269.380,105.800 269.600 C 105.936 269.820,106.836 270.000,107.800 270.000 C 108.764 270.000,109.664 270.180,109.800 270.400 C 109.936 270.620,111.207 270.800,112.624 270.800 C 114.075 270.800,115.200 270.975,115.200 271.200 C 115.200 271.464,129.456 271.600,157.167 271.600 C 202.277 271.600,200.400 271.529,200.400 273.243 C 200.400 273.879,200.580 274.400,200.800 274.400 C 201.020 274.400,201.200 274.839,201.200 275.376 C 201.200 275.913,201.380 276.464,201.600 276.600 C 201.820 276.736,202.000 277.157,202.000 277.535 C 202.000 277.914,202.360 278.483,202.800 278.800 C 203.240 279.117,203.600 279.657,203.600 280.000 C 203.600 280.343,203.960 280.883,204.400 281.200 C 204.840 281.517,205.200 282.007,205.200 282.288 C 205.200 282.570,205.380 282.800,205.600 282.800 C 205.820 282.800,206.004 283.025,206.009 283.300 C 206.013 283.575,206.598 284.290,207.309 284.888 C 208.019 285.487,209.140 286.431,209.800 286.988 C 210.460 287.544,211.225 287.999,211.500 288.000 C 211.775 288.000,212.000 288.149,212.000 288.332 C 212.000 288.514,212.945 289.075,214.100 289.577 C 215.255 290.080,216.543 290.670,216.962 290.888 C 217.381 291.106,219.136 291.381,220.862 291.499 C 222.588 291.618,224.000 291.869,224.000 292.057 C 224.000 292.246,235.340 292.400,249.200 292.400 C 265.733 292.400,274.400 292.262,274.400 292.000 C 274.400 291.780,275.255 291.599,276.300 291.598 C 277.345 291.596,278.716 291.326,279.346 290.998 C 279.976 290.669,280.741 290.400,281.046 290.400 C 281.351 290.400,281.600 290.220,281.600 290.000 C 281.600 289.780,281.849 289.600,282.154 289.600 C 283.680 289.600,289.600 282.482,289.600 280.646 C 289.600 280.290,289.760 280.000,289.956 280.000 C 290.388 280.000,290.790 277.929,291.063 274.300 L 291.266 271.600 305.942 271.600 L 320.618 271.600 322.079 270.395 C 323.972 268.835,324.710 266.778,323.828 265.519 C 323.483 265.026,323.200 264.285,323.200 263.873 C 323.200 263.461,322.826 262.598,322.368 261.956 C 320.707 259.623,320.542 259.600,305.253 259.600 C 289.129 259.600,290.000 259.736,290.000 257.212 C 290.000 249.314,285.633 242.929,278.200 239.959 L 275.800 239.000 224.600 238.956 C 196.440 238.932,172.809 238.989,172.087 239.083 M253.105 265.100 L 253.210 279.600 238.499 279.600 C 222.222 279.600,221.786 279.542,217.916 276.880 C 210.575 271.829,209.864 260.752,216.483 254.561 C 220.587 250.722,221.892 250.500,240.000 250.558 L 253.000 250.600 253.105 265.100 M275.473 251.439 C 278.520 253.696,278.956 255.804,278.739 267.232 C 278.526 278.424,277.652 279.600,269.541 279.600 L 264.800 279.600 264.800 265.267 C 264.800 257.383,264.935 250.796,265.100 250.629 C 265.811 249.908,274.302 250.571,275.473 251.439 " stroke="none" fill="#050404" fill-rule="evenodd"></path><path id="path3" d="M253.265 185.817 C 253.009 186.378,252.800 187.085,252.800 187.388 C 252.800 188.088,250.980 190.266,249.857 190.909 C 249.188 191.292,226.064 191.444,144.600 191.600 L 40.200 191.800 38.600 192.742 C 34.613 195.091,32.800 198.421,32.800 203.396 L 32.800 206.800 38.700 206.848 C 41.945 206.874,50.090 207.009,56.800 207.148 L 69.000 207.400 71.296 208.527 C 74.349 210.026,76.894 212.650,78.469 215.921 L 79.759 218.600 79.741 225.000 C 79.710 235.668,75.911 241.071,67.100 242.977 C 65.946 243.227,65.568 244.000,66.600 244.000 C 66.930 244.000,67.200 243.820,67.200 243.600 C 67.200 243.380,67.819 243.200,68.576 243.200 C 69.333 243.200,70.064 243.020,70.200 242.800 C 70.336 242.580,70.797 242.400,71.224 242.400 C 71.651 242.400,72.000 242.220,72.000 242.000 C 72.000 241.780,72.246 241.600,72.546 241.600 C 73.748 241.600,77.576 237.363,78.890 234.578 L 80.200 231.800 80.200 225.000 L 80.200 218.200 78.890 215.521 C 77.218 212.103,74.757 209.651,71.320 207.980 L 68.600 206.658 56.800 206.360 C 50.310 206.196,42.345 206.048,39.100 206.031 L 33.200 206.000 33.218 204.100 C 33.264 199.147,35.308 195.456,39.258 193.197 L 41.000 192.200 145.231 192.000 L 249.463 191.800 250.959 190.659 C 252.426 189.539,252.631 189.203,253.538 186.426 C 254.078 184.771,253.911 184.398,253.265 185.817 M263.710 185.207 C 263.841 185.533,264.178 186.507,264.459 187.371 C 265.854 191.664,267.008 191.990,280.866 191.996 L 291.131 192.000 291.330 196.500 C 291.534 201.122,291.806 203.201,292.387 204.600 C 292.570 205.040,292.949 206.030,293.229 206.800 C 293.510 207.570,294.068 208.678,294.470 209.262 C 294.871 209.846,295.200 210.429,295.200 210.557 C 295.200 211.830,301.617 217.676,304.636 219.152 C 310.203 221.875,308.504 221.720,335.800 222.000 C 358.594 222.234,361.299 222.349,363.400 223.175 C 365.195 223.880,367.106 224.400,367.905 224.400 C 368.371 224.400,368.864 224.580,369.000 224.800 C 369.136 225.020,369.689 225.200,370.229 225.200 C 370.769 225.200,371.523 225.362,371.905 225.561 C 372.287 225.760,373.410 226.137,374.400 226.400 C 375.390 226.663,376.513 227.040,376.895 227.239 C 377.277 227.438,377.781 227.600,378.017 227.600 C 378.825 227.600,383.052 230.730,384.101 232.106 C 388.127 237.384,388.908 242.996,386.481 249.213 C 385.558 251.579,381.981 255.534,379.900 256.490 C 379.295 256.768,378.800 257.131,378.800 257.298 C 378.800 257.464,378.470 257.600,378.067 257.600 C 377.663 257.600,377.199 257.735,377.034 257.899 C 376.142 258.792,370.452 259.139,356.238 259.168 L 341.076 259.200 339.737 260.221 C 338.220 261.378,337.189 263.123,337.222 264.480 C 337.239 265.147,337.443 264.911,337.967 263.619 C 338.364 262.640,339.292 261.335,340.029 260.719 L 341.370 259.600 356.865 259.600 C 366.632 259.600,373.144 259.437,374.480 259.158 C 389.551 256.015,393.441 237.173,380.800 228.542 C 379.107 227.386,376.564 226.374,372.400 225.200 C 371.410 224.920,370.060 224.536,369.400 224.345 C 368.740 224.154,366.283 223.459,363.940 222.799 L 359.681 221.600 336.740 221.593 C 311.116 221.585,310.571 221.539,305.252 218.918 C 297.268 214.985,292.557 207.461,292.152 198.000 C 292.044 195.470,291.876 193.011,291.779 192.536 C 291.604 191.680,291.512 191.672,280.102 191.536 C 266.866 191.379,264.800 190.712,264.800 186.591 C 264.800 186.235,264.501 185.644,264.136 185.279 C 263.624 184.767,263.526 184.751,263.710 185.207 M121.136 204.138 C 116.212 206.326,115.797 212.673,120.401 215.378 C 122.506 216.614,129.586 216.582,131.600 215.328 C 135.724 212.758,135.498 206.741,131.194 204.540 C 129.155 203.497,123.121 203.256,121.136 204.138 M150.200 204.198 C 143.815 207.031,145.469 215.451,152.559 216.210 C 159.900 216.996,163.692 214.858,163.692 209.932 C 163.692 204.897,155.996 201.626,150.200 204.198 M179.112 204.375 C 172.792 207.533,174.846 215.491,182.176 216.242 C 191.165 217.163,196.299 211.295,191.253 205.867 C 189.055 203.503,182.476 202.694,179.112 204.375 M208.087 204.470 C 202.061 207.392,203.958 215.424,210.865 216.236 C 217.829 217.054,222.000 214.756,222.000 210.102 C 222.000 204.610,214.261 201.477,208.087 204.470 M237.254 204.486 C 232.896 206.598,232.488 212.458,236.512 215.122 C 240.199 217.561,248.108 216.470,250.299 213.219 C 254.488 207.002,245.072 200.698,237.254 204.486 M266.493 204.467 C 261.931 206.680,261.720 213.106,266.132 215.500 C 269.623 217.395,277.312 216.215,279.358 213.471 C 283.880 207.404,274.285 200.689,266.493 204.467 M131.021 205.037 C 135.111 206.977,135.055 212.950,130.926 215.137 C 129.232 216.035,121.789 215.731,120.211 214.700 C 116.497 212.275,117.276 205.479,121.359 204.675 C 123.735 204.207,129.747 204.432,131.021 205.037 M159.674 204.758 C 162.787 205.960,164.127 209.619,162.586 212.707 C 160.417 217.057,149.696 216.839,147.400 212.399 C 145.935 209.567,147.694 205.231,150.531 204.678 C 152.224 204.348,158.761 204.405,159.674 204.758 M190.554 205.955 C 192.743 208.077,192.981 211.513,191.083 213.613 C 189.505 215.360,188.647 215.600,183.995 215.600 L 179.579 215.600 177.789 213.811 C 176.190 212.211,176.000 211.826,176.000 210.184 C 176.000 205.736,178.178 204.305,184.680 204.482 L 189.160 204.604 190.554 205.955 M219.070 205.191 C 224.850 208.935,221.242 215.600,213.436 215.600 C 205.990 215.600,203.153 212.014,206.283 206.558 C 207.493 204.448,216.445 203.492,219.070 205.191 M248.270 205.191 C 251.647 207.378,251.446 212.642,247.904 214.802 C 246.225 215.826,239.061 215.962,237.212 215.006 C 233.393 213.031,233.416 207.013,237.249 205.062 C 238.962 204.190,246.866 204.283,248.270 205.191 M276.364 204.749 C 279.159 205.531,280.749 210.387,279.055 212.972 C 276.256 217.244,265.948 216.697,263.945 212.170 C 261.505 206.653,268.414 202.525,276.364 204.749 M37.328 218.700 C 42.568 218.763,51.028 218.763,56.128 218.700 C 61.227 218.636,56.940 218.585,46.600 218.585 C 36.260 218.585,32.087 218.637,37.328 218.700 M37.328 231.500 C 42.568 231.563,51.028 231.563,56.128 231.500 C 61.227 231.436,56.940 231.385,46.600 231.385 C 36.260 231.385,32.087 231.437,37.328 231.500 M171.417 238.687 C 166.375 240.000,165.600 247.275,170.222 249.893 C 171.781 250.776,171.988 250.787,187.700 250.793 C 196.445 250.797,203.600 250.944,203.600 251.120 C 203.600 251.296,203.413 251.627,203.185 251.855 C 202.957 252.083,202.179 253.784,201.456 255.635 L 200.141 259.000 161.971 258.987 C 125.370 258.974,121.752 258.885,112.600 257.767 C 111.500 257.632,110.429 257.360,110.220 257.161 C 110.011 256.963,109.257 256.800,108.544 256.800 C 107.831 256.800,107.136 256.620,107.000 256.400 C 106.864 256.180,106.133 256.000,105.376 256.000 C 104.619 256.000,104.000 255.820,104.000 255.600 C 104.000 255.380,103.471 255.200,102.824 255.200 C 102.177 255.200,101.536 255.020,101.400 254.800 C 101.264 254.580,100.724 254.400,100.200 254.400 C 99.676 254.400,99.136 254.220,99.000 254.000 C 98.864 253.780,98.401 253.600,97.971 253.600 C 97.541 253.600,96.877 253.437,96.495 253.237 C 86.023 247.759,81.733 246.791,79.408 249.381 C 77.127 251.923,76.997 252.110,77.804 251.691 C 78.247 251.462,78.967 250.873,79.404 250.382 C 81.547 247.979,83.537 247.926,88.160 250.152 C 92.976 252.470,95.294 253.471,98.000 254.400 C 98.770 254.664,99.760 255.028,100.200 255.207 C 100.640 255.386,101.450 255.650,102.000 255.794 C 102.550 255.937,103.630 256.224,104.400 256.432 C 115.368 259.394,118.687 259.575,162.290 259.588 L 200.379 259.600 200.990 258.420 C 201.325 257.771,201.600 257.039,201.600 256.795 C 201.600 256.550,202.159 255.190,202.842 253.774 C 204.803 249.708,206.011 250.000,187.226 250.000 L 170.827 250.000 169.433 248.606 C 165.755 244.928,167.905 239.562,173.279 239.008 C 174.666 238.865,198.300 238.805,225.800 238.874 L 275.800 239.000 278.200 239.959 C 285.633 242.929,290.000 249.314,290.000 257.212 C 290.000 259.736,289.129 259.600,305.253 259.600 C 320.542 259.600,320.707 259.623,322.368 261.956 C 322.826 262.598,323.200 263.466,323.200 263.885 C 323.200 264.909,324.369 266.521,324.387 265.524 C 324.394 265.152,324.220 264.736,324.000 264.600 C 323.780 264.464,323.600 263.913,323.600 263.376 C 323.600 262.771,322.993 261.793,322.000 260.800 L 320.400 259.200 305.600 259.200 L 290.800 259.200 290.800 257.406 C 290.800 252.583,288.570 247.351,285.002 243.800 C 282.826 241.635,281.870 241.018,277.800 239.151 C 276.605 238.602,173.467 238.153,171.417 238.687 M224.600 250.771 C 211.718 252.136,207.260 269.549,217.916 276.880 C 221.786 279.542,222.222 279.600,238.499 279.600 L 253.210 279.600 253.105 265.100 L 253.000 250.600 240.000 250.558 C 232.850 250.535,225.920 250.631,224.600 250.771 M278.569 265.200 C 278.569 269.710,278.627 271.555,278.698 269.300 C 278.770 267.045,278.770 263.355,278.698 261.100 C 278.627 258.845,278.569 260.690,278.569 265.200 " stroke="none" fill="#80a1ae" fill-rule="evenodd"></path><path id="path4" d="M303.459 192.191 C 301.479 197.350,305.147 205.866,310.584 208.736 L 312.600 209.800 328.500 209.917 C 337.245 209.982,344.400 209.883,344.400 209.699 C 344.400 209.337,340.717 204.445,338.014 201.216 C 334.868 197.459,329.441 194.014,324.307 192.517 C 320.950 191.537,303.812 191.270,303.459 192.191 " stroke="none" fill="#4eb7dc" fill-rule="evenodd"></path></g></svg>