<svg id="svg" version="1.1" xmlns="http://www.w3.org/2000/svg" xmlns:xlink="http://www.w3.org/1999/xlink" width="400" height="400" viewBox="0, 0, 400,400"><g id="svgg"><path id="path0" d="M155.264 163.819 C 155.009 164.379,154.800 165.111,154.800 165.445 C 154.800 166.356,152.131 171.952,150.973 173.471 L 149.959 174.800 165.580 174.800 L 181.200 174.800 181.200 168.800 L 181.200 162.800 168.464 162.800 L 155.728 162.800 155.264 163.819 M12.400 213.151 C 12.400 213.731,13.496 214.459,14.889 214.803 C 16.088 215.099,28.420 218.729,38.200 221.665 C 40.400 222.326,42.785 223.031,43.500 223.233 C 44.215 223.435,45.385 223.768,46.100 223.973 C 46.815 224.178,47.850 224.463,48.400 224.606 C 48.950 224.750,49.760 225.011,50.200 225.188 C 50.640 225.364,51.810 225.730,52.800 226.001 C 53.790 226.271,55.050 226.631,55.600 226.800 C 56.150 226.969,57.410 227.329,58.400 227.599 C 59.390 227.870,60.560 228.230,61.000 228.400 C 61.440 228.570,62.610 228.930,63.600 229.201 C 64.590 229.471,65.850 229.830,66.400 229.998 C 66.950 230.166,68.660 230.680,70.200 231.140 C 77.435 233.302,81.487 234.494,87.400 236.198 C 90.920 237.212,94.250 238.192,94.800 238.374 C 95.350 238.557,96.610 238.932,97.600 239.207 C 98.590 239.482,100.390 240.019,101.600 240.400 C 103.584 241.025,104.583 241.317,108.600 242.445 C 109.260 242.631,110.880 243.122,112.200 243.538 C 113.520 243.953,115.410 244.521,116.400 244.800 C 120.091 245.841,121.020 246.118,121.800 246.410 C 122.240 246.574,123.410 246.930,124.400 247.201 C 125.390 247.471,126.650 247.833,127.200 248.005 C 127.750 248.177,129.190 248.604,130.400 248.955 C 131.610 249.305,134.353 250.108,136.496 250.739 L 140.393 251.888 142.914 249.444 C 146.106 246.350,148.985 244.872,153.424 244.049 C 156.818 243.420,269.037 243.413,272.069 244.042 C 277.907 245.252,286.000 251.855,286.000 255.408 C 286.000 255.925,289.260 256.000,311.600 256.000 L 337.200 256.000 337.200 234.400 L 337.200 212.800 174.800 212.800 C 81.906 212.800,12.400 212.950,12.400 213.151 " stroke="none" fill="#fbb63d" fill-rule="evenodd"></path><path id="path1" d="M12.400 159.400 L 12.400 200.001 174.900 199.900 L 337.400 199.800 337.400 193.800 L 337.400 187.800 201.174 187.699 L 64.948 187.599 64.147 186.099 C 63.104 184.147,60.051 178.535,59.195 177.000 C 58.195 175.205,50.828 161.698,49.595 159.400 C 49.005 158.300,48.070 156.590,47.516 155.600 C 46.305 153.431,44.632 150.374,42.592 146.600 C 41.760 145.060,39.602 141.100,37.797 137.800 C 35.991 134.500,33.835 130.540,33.004 129.000 C 32.174 127.460,30.955 125.210,30.295 124.000 C 29.635 122.790,28.804 121.260,28.448 120.600 C 27.476 118.800,27.538 118.813,19.700 118.806 L 12.400 118.800 12.400 159.400 M170.194 138.152 C 164.836 139.646,158.794 144.896,157.780 148.939 L 157.513 150.000 169.357 150.000 L 181.200 150.000 181.200 143.800 L 181.200 137.600 176.500 137.652 C 173.915 137.681,171.077 137.906,170.194 138.152 M155.467 162.667 C 155.320 162.813,155.203 163.128,155.206 163.367 C 155.210 163.628,155.337 163.604,155.526 163.306 C 155.762 162.935,158.973 162.784,168.420 162.700 L 181.000 162.588 168.367 162.494 C 161.418 162.442,155.613 162.520,155.467 162.667 M157.900 175.099 C 162.135 175.164,169.065 175.164,173.300 175.099 C 177.535 175.035,174.070 174.982,165.600 174.982 C 157.130 174.982,153.665 175.035,157.900 175.099 M49.910 181.300 L 49.800 187.400 34.200 187.400 L 18.600 187.400 18.485 182.200 C 18.421 179.340,18.470 176.595,18.592 176.100 L 18.815 175.200 34.418 175.200 L 50.021 175.200 49.910 181.300 M174.900 212.700 L 337.200 212.801 337.200 234.398 L 337.200 255.994 311.800 256.102 L 286.400 256.209 311.900 256.204 L 337.400 256.200 337.400 234.400 L 337.400 212.600 175.000 212.599 L 12.600 212.599 174.900 212.700 M183.700 243.900 C 199.705 243.958,225.895 243.958,241.900 243.900 C 257.905 243.842,244.810 243.795,212.800 243.795 C 180.790 243.795,167.695 243.842,183.700 243.900 M153.143 257.263 C 149.036 259.645,149.069 265.630,153.202 267.953 L 154.709 268.800 212.419 268.800 L 270.130 268.800 271.813 267.814 C 275.947 265.391,275.805 259.611,271.552 257.221 C 270.097 256.403,269.858 256.400,212.346 256.409 L 154.600 256.418 153.143 257.263 " stroke="none" fill="#eb4b1c" fill-rule="evenodd"></path><path id="path2" d="M193.867 137.867 C 193.720 138.013,193.600 146.383,193.600 156.467 L 193.600 174.800 231.033 174.800 L 268.465 174.800 267.682 173.500 C 264.325 167.928,262.410 161.578,262.395 155.967 C 262.374 147.904,256.277 140.398,247.948 138.181 C 245.680 137.578,194.454 137.280,193.867 137.867 " stroke="none" fill="#83cbeb" fill-rule="evenodd"></path><path id="path3" d="M218.400 75.410 L 218.400 82.420 224.900 82.310 L 231.400 82.200 231.509 75.300 L 231.619 68.400 225.009 68.400 L 218.400 68.400 218.400 75.410 M218.400 105.986 L 218.400 124.772 192.900 124.886 C 175.140 124.965,167.096 125.136,166.400 125.449 C 165.850 125.696,164.680 126.113,163.800 126.376 C 161.853 126.958,158.793 128.412,158.071 129.098 C 157.781 129.374,157.395 129.600,157.213 129.600 C 157.032 129.600,156.026 130.410,154.978 131.400 C 153.930 132.390,152.831 133.200,152.536 133.200 C 152.241 133.200,152.000 133.452,152.000 133.759 C 152.000 134.067,151.100 135.238,150.000 136.361 C 148.900 137.485,148.000 138.673,148.000 139.002 C 148.000 139.331,147.820 139.600,147.600 139.600 C 147.380 139.600,147.200 139.945,147.200 140.367 C 147.200 140.788,147.065 141.193,146.900 141.267 C 146.409 141.485,144.800 144.816,144.800 145.614 C 144.800 146.020,144.620 146.464,144.400 146.600 C 144.180 146.736,144.000 147.366,144.000 148.000 C 144.000 148.634,143.820 149.264,143.600 149.400 C 143.380 149.536,143.200 151.246,143.200 153.200 C 143.200 155.154,143.047 156.848,142.859 156.964 C 142.672 157.079,142.409 158.305,142.277 159.687 C 142.040 162.155,141.291 164.391,140.700 164.397 C 140.535 164.399,140.400 164.720,140.400 165.112 C 140.400 165.503,140.040 166.083,139.600 166.400 C 139.160 166.717,138.800 167.215,138.800 167.506 C 138.800 168.163,137.006 170.000,136.365 170.000 C 136.106 170.000,135.603 170.316,135.247 170.703 C 134.891 171.089,134.105 171.660,133.500 171.970 C 132.895 172.281,132.400 172.685,132.400 172.868 C 132.400 173.050,131.860 173.200,131.200 173.200 C 130.540 173.200,130.000 173.380,130.000 173.600 C 130.000 173.820,129.280 174.000,128.400 174.000 C 127.520 174.000,126.800 174.180,126.800 174.400 C 126.800 175.041,73.678 174.942,73.066 174.300 C 72.803 174.025,72.141 172.945,71.595 171.900 C 71.048 170.855,70.466 170.000,70.301 170.000 C 70.135 170.000,70.000 169.640,70.000 169.200 C 70.000 168.760,69.820 168.400,69.600 168.400 C 69.380 168.400,69.200 168.040,69.200 167.600 C 69.200 167.160,69.020 166.800,68.800 166.800 C 68.580 166.800,68.400 166.440,68.400 166.000 C 68.400 165.560,68.254 165.200,68.075 165.200 C 67.896 165.200,67.502 164.570,67.200 163.800 C 66.898 163.030,66.504 162.400,66.325 162.400 C 66.146 162.400,66.000 162.130,66.000 161.800 C 66.000 161.470,65.820 161.200,65.600 161.200 C 65.380 161.200,65.200 160.840,65.200 160.400 C 65.200 159.960,65.020 159.600,64.800 159.600 C 64.580 159.600,64.400 159.330,64.400 159.000 C 64.400 158.670,64.220 158.400,64.000 158.400 C 63.780 158.400,63.600 158.040,63.600 157.600 C 63.600 157.160,63.420 156.800,63.200 156.800 C 62.980 156.800,62.800 156.440,62.800 156.000 C 62.800 155.560,62.620 155.200,62.400 155.200 C 62.180 155.200,62.000 154.880,62.000 154.488 C 62.000 154.097,61.640 153.517,61.200 153.200 C 60.760 152.883,60.400 152.303,60.400 151.912 C 60.400 151.520,60.220 151.200,60.000 151.200 C 59.780 151.200,59.600 150.840,59.600 150.400 C 59.600 149.960,59.420 149.600,59.200 149.600 C 58.980 149.600,58.800 149.240,58.800 148.800 C 58.800 148.360,58.620 148.000,58.400 148.000 C 58.180 148.000,58.000 147.726,58.000 147.392 C 58.000 147.058,57.581 146.113,57.069 145.292 C 56.557 144.471,55.883 143.215,55.571 142.500 C 55.260 141.785,54.869 141.200,54.702 141.200 C 54.536 141.200,54.400 140.840,54.400 140.400 C 54.400 139.960,54.220 139.600,54.000 139.600 C 53.780 139.600,53.600 139.240,53.600 138.800 C 53.600 138.360,53.420 138.000,53.200 138.000 C 52.980 138.000,52.800 137.764,52.800 137.475 C 52.800 137.187,52.440 136.564,52.000 136.092 C 51.560 135.620,51.200 134.956,51.200 134.617 C 51.200 134.278,51.020 134.000,50.800 134.000 C 50.580 134.000,50.400 133.717,50.400 133.371 C 50.400 133.026,50.128 132.471,49.796 132.139 C 49.464 131.807,49.295 131.370,49.420 131.168 C 49.545 130.965,49.490 130.800,49.298 130.800 C 49.106 130.800,48.702 130.170,48.400 129.400 C 48.098 128.630,47.704 128.000,47.525 128.000 C 47.346 128.000,47.200 127.730,47.200 127.400 C 47.200 127.070,47.054 126.800,46.875 126.800 C 46.696 126.800,46.302 126.170,46.000 125.400 C 45.698 124.630,45.304 124.000,45.125 124.000 C 44.946 124.000,44.800 123.640,44.800 123.200 C 44.800 122.760,44.620 122.400,44.400 122.400 C 44.180 122.400,44.000 122.040,44.000 121.600 C 44.000 121.160,43.820 120.800,43.600 120.800 C 43.380 120.800,43.200 120.480,43.200 120.088 C 43.200 119.697,42.840 119.117,42.400 118.800 C 41.960 118.483,41.600 117.966,41.600 117.652 C 41.600 116.872,39.700 112.971,38.325 110.928 C 37.706 110.008,37.200 109.063,37.200 108.828 C 37.200 108.593,37.020 108.400,36.800 108.400 C 36.580 108.400,36.400 108.117,36.400 107.771 C 36.400 106.019,36.201 106.000,17.629 106.000 L 0.000 106.000 0.000 165.176 C 0.000 205.185,0.133 224.435,0.410 224.606 C 0.636 224.746,1.806 224.962,3.010 225.086 C 4.215 225.210,5.200 225.467,5.200 225.656 C 5.200 225.845,5.740 226.000,6.400 226.000 C 7.060 226.000,7.600 226.180,7.600 226.400 C 7.600 226.620,8.129 226.800,8.776 226.800 C 9.423 226.800,10.064 226.980,10.200 227.200 C 10.336 227.420,10.977 227.600,11.624 227.600 C 12.271 227.600,12.800 227.780,12.800 228.000 C 12.800 228.220,13.340 228.400,14.000 228.400 C 14.660 228.400,15.200 228.580,15.200 228.800 C 15.200 229.020,15.920 229.200,16.800 229.200 C 17.680 229.200,18.400 229.380,18.400 229.600 C 18.400 229.820,18.940 230.000,19.600 230.000 C 20.260 230.000,20.800 230.180,20.800 230.400 C 20.800 230.620,21.329 230.800,21.976 230.800 C 22.623 230.800,23.264 230.980,23.400 231.200 C 23.536 231.420,24.166 231.600,24.800 231.600 C 25.434 231.600,26.064 231.780,26.200 232.000 C 26.336 232.220,26.876 232.400,27.400 232.400 C 27.924 232.400,28.464 232.580,28.600 232.800 C 28.736 233.020,29.467 233.200,30.224 233.200 C 30.981 233.200,31.600 233.380,31.600 233.600 C 31.600 233.820,32.140 234.000,32.800 234.000 C 33.460 234.000,34.000 234.180,34.000 234.400 C 34.000 234.620,34.529 234.800,35.176 234.800 C 35.823 234.800,36.464 234.980,36.600 235.200 C 36.736 235.420,37.467 235.600,38.224 235.600 C 38.981 235.600,39.600 235.780,39.600 236.000 C 39.600 236.220,40.140 236.400,40.800 236.400 C 41.460 236.400,42.000 236.580,42.000 236.800 C 42.000 237.020,42.529 237.200,43.176 237.200 C 43.823 237.200,44.464 237.380,44.600 237.600 C 44.736 237.820,45.289 238.000,45.829 238.000 C 46.369 238.000,47.123 238.158,47.505 238.351 C 48.672 238.940,51.008 239.600,51.928 239.600 C 52.408 239.600,52.800 239.780,52.800 240.000 C 52.800 240.220,53.205 240.403,53.700 240.406 C 54.195 240.409,55.320 240.671,56.200 240.988 C 57.080 241.305,58.385 241.573,59.100 241.582 C 59.815 241.592,60.400 241.780,60.400 242.000 C 60.400 242.220,60.940 242.400,61.600 242.400 C 62.260 242.400,62.800 242.580,62.800 242.800 C 62.800 243.020,63.520 243.200,64.400 243.200 C 65.280 243.200,66.000 243.380,66.000 243.600 C 66.000 243.820,66.540 244.000,67.200 244.000 C 67.860 244.000,68.400 244.180,68.400 244.400 C 68.400 244.620,68.940 244.800,69.600 244.800 C 70.260 244.800,70.800 244.980,70.800 245.200 C 70.800 245.420,71.520 245.600,72.400 245.600 C 73.280 245.600,74.000 245.780,74.000 246.000 C 74.000 246.220,74.540 246.400,75.200 246.400 C 75.860 246.400,76.400 246.580,76.400 246.800 C 76.400 247.020,77.030 247.200,77.800 247.200 C 78.570 247.200,79.200 247.380,79.200 247.600 C 79.200 247.820,79.740 248.000,80.400 248.000 C 81.060 248.000,81.600 248.180,81.600 248.400 C 81.600 248.620,82.129 248.800,82.776 248.800 C 83.423 248.800,84.064 248.980,84.200 249.200 C 84.336 249.420,85.067 249.600,85.824 249.600 C 86.581 249.600,87.200 249.780,87.200 250.000 C 87.200 250.220,87.740 250.400,88.400 250.400 C 89.060 250.400,89.600 250.569,89.600 250.775 C 89.600 250.981,90.184 251.206,90.897 251.275 C 92.117 251.393,93.138 252.800,92.003 252.800 C 91.753 252.800,90.671 253.700,89.600 254.800 C 88.529 255.900,87.452 256.800,87.208 256.800 C 86.964 256.800,86.348 257.205,85.841 257.700 C 84.478 259.029,83.001 260.248,82.234 260.677 C 81.460 261.110,77.944 264.195,75.369 266.700 C 74.407 267.635,73.386 268.400,73.099 268.400 C 72.812 268.400,72.317 268.760,72.000 269.200 C 71.394 270.040,69.822 270.282,69.400 269.600 C 69.264 269.380,68.724 269.200,68.200 269.200 C 67.676 269.200,67.136 269.020,67.000 268.800 C 66.858 268.571,64.796 268.400,62.176 268.400 C 59.392 268.400,57.600 268.557,57.600 268.800 C 57.600 269.020,57.060 269.200,56.400 269.200 C 55.740 269.200,55.200 269.380,55.200 269.600 C 55.200 269.820,54.840 270.000,54.400 270.000 C 53.960 270.000,53.600 270.180,53.600 270.400 C 53.600 270.620,53.240 270.800,52.800 270.800 C 52.360 270.800,52.000 270.980,52.000 271.200 C 52.000 271.420,51.754 271.600,51.454 271.600 C 50.702 271.600,46.736 275.528,46.001 277.000 C 45.671 277.660,45.311 278.290,45.201 278.400 C 44.668 278.931,44.000 280.472,44.000 281.171 C 44.000 281.601,43.820 282.064,43.600 282.200 C 43.069 282.528,43.069 292.672,43.600 293.000 C 43.820 293.136,44.000 293.586,44.000 293.999 C 44.000 297.790,50.966 304.496,56.828 306.349 C 58.620 306.915,67.600 306.958,67.600 306.400 C 67.600 306.180,68.052 306.000,68.605 306.000 C 69.488 306.000,71.013 305.389,71.600 304.799 C 71.710 304.689,72.303 304.339,72.918 304.022 C 74.320 303.299,77.600 300.229,77.600 299.640 C 77.600 299.398,77.780 299.200,78.000 299.200 C 78.220 299.200,78.400 298.930,78.400 298.600 C 78.400 298.270,78.580 298.000,78.800 298.000 C 79.020 298.000,79.200 297.640,79.200 297.200 C 79.200 296.760,79.380 296.400,79.600 296.400 C 79.820 296.400,80.000 296.040,80.000 295.600 C 80.000 295.160,80.180 294.800,80.400 294.800 C 80.620 294.800,80.800 294.260,80.800 293.600 C 80.800 292.940,80.980 292.400,81.200 292.400 C 81.734 292.400,81.734 283.330,81.200 283.000 C 80.030 282.277,81.659 278.400,83.134 278.400 C 83.337 278.400,84.215 277.709,85.085 276.865 C 85.955 276.021,87.493 274.761,88.503 274.067 C 89.513 273.372,90.694 272.353,91.127 271.802 C 91.561 271.251,92.096 270.800,92.317 270.800 C 92.538 270.800,93.638 269.900,94.761 268.800 C 95.885 267.700,96.965 266.800,97.161 266.800 C 97.358 266.800,98.438 265.900,99.561 264.800 C 100.685 263.700,101.765 262.800,101.961 262.800 C 102.158 262.800,103.238 261.900,104.361 260.800 C 105.485 259.700,106.594 258.800,106.826 258.800 C 107.057 258.800,107.136 258.620,107.000 258.400 C 106.864 258.180,107.011 258.000,107.327 258.000 C 107.643 258.000,108.126 257.730,108.400 257.400 C 108.951 256.736,110.622 256.589,110.983 257.172 C 111.109 257.377,112.202 257.668,113.412 257.819 C 114.621 257.970,115.709 258.252,115.829 258.447 C 115.949 258.641,116.577 258.800,117.224 258.800 C 117.871 258.800,118.400 258.980,118.400 259.200 C 118.400 259.420,119.120 259.600,120.000 259.600 C 120.880 259.600,121.600 259.780,121.600 260.000 C 121.600 260.220,122.140 260.400,122.800 260.400 C 123.460 260.400,124.000 260.580,124.000 260.800 C 124.000 261.020,124.540 261.200,125.200 261.200 C 125.860 261.200,126.400 261.380,126.400 261.600 C 126.400 261.820,127.030 262.000,127.800 262.000 C 128.570 262.000,129.200 262.180,129.200 262.400 C 129.200 262.620,129.740 262.800,130.400 262.800 C 131.060 262.800,131.600 262.980,131.600 263.200 C 131.600 263.420,132.320 263.600,133.200 263.600 C 134.080 263.600,134.800 263.780,134.800 264.000 C 134.800 264.220,135.340 264.400,136.000 264.400 C 137.173 264.400,137.200 264.444,137.200 266.400 C 137.200 267.500,137.380 268.400,137.600 268.400 C 137.820 268.400,138.000 268.850,138.000 269.400 C 138.000 269.950,138.180 270.400,138.400 270.400 C 138.620 270.400,138.800 270.726,138.800 271.125 C 138.800 271.523,139.160 272.236,139.600 272.708 C 140.040 273.180,140.400 273.671,140.400 273.798 C 140.400 273.925,140.764 274.427,141.209 274.914 C 141.653 275.401,142.512 276.340,143.116 277.000 C 144.244 278.232,146.060 279.478,147.300 279.871 C 147.685 279.993,148.000 280.252,148.000 280.447 C 148.000 280.641,148.529 280.800,149.176 280.800 C 149.823 280.800,150.464 280.980,150.600 281.200 C 150.762 281.463,166.671 281.600,197.024 281.600 L 243.200 281.600 243.200 287.567 C 243.200 294.101,243.080 294.800,241.957 294.800 C 241.541 294.800,241.200 294.980,241.200 295.200 C 241.200 295.420,240.840 295.600,240.400 295.600 C 239.960 295.600,239.600 295.768,239.600 295.973 C 239.600 296.178,239.221 296.466,238.759 296.613 C 237.691 296.952,234.000 300.697,234.000 301.441 C 234.000 301.748,233.865 302.001,233.700 302.003 C 233.341 302.007,232.400 303.944,232.400 304.680 C 232.400 304.966,232.220 305.200,232.000 305.200 C 231.780 305.200,231.600 305.740,231.600 306.400 C 231.600 307.060,231.420 307.600,231.200 307.600 C 230.955 307.600,230.800 309.525,230.800 312.576 C 230.800 315.463,230.968 317.657,231.200 317.800 C 231.420 317.936,231.604 318.532,231.609 319.124 C 231.614 319.716,231.970 320.650,232.400 321.200 C 232.830 321.750,233.186 322.425,233.191 322.700 C 233.196 322.975,233.380 323.200,233.600 323.200 C 233.820 323.200,234.000 323.394,234.000 323.631 C 234.000 324.255,239.191 329.200,239.846 329.200 C 240.151 329.200,240.400 329.380,240.400 329.600 C 240.400 329.820,240.760 330.000,241.200 330.000 C 241.640 330.000,242.000 330.180,242.000 330.400 C 242.000 330.620,242.540 330.800,243.200 330.800 C 243.860 330.800,244.400 330.980,244.400 331.200 C 244.400 331.447,246.459 331.600,249.776 331.600 C 252.929 331.600,255.255 331.435,255.400 331.200 C 255.536 330.980,256.177 330.800,256.824 330.800 C 257.471 330.800,258.000 330.620,258.000 330.400 C 258.000 330.180,258.236 330.000,258.525 330.000 C 258.813 330.000,259.436 329.640,259.908 329.200 C 260.380 328.760,260.958 328.400,261.192 328.400 C 261.736 328.400,266.000 324.151,266.000 323.609 C 266.000 323.384,266.180 323.200,266.400 323.200 C 266.620 323.200,266.800 322.840,266.800 322.400 C 266.800 321.960,266.980 321.600,267.200 321.600 C 267.420 321.600,267.600 321.240,267.600 320.800 C 267.600 320.360,267.780 320.000,268.000 320.000 C 268.220 320.000,268.400 319.460,268.400 318.800 C 268.400 318.140,268.580 317.600,268.800 317.600 C 269.045 317.600,269.200 315.667,269.200 312.600 C 269.200 309.533,269.045 307.600,268.800 307.600 C 268.580 307.600,268.400 307.060,268.400 306.400 C 268.400 305.740,268.220 305.200,268.000 305.200 C 267.780 305.200,267.600 304.840,267.600 304.400 C 267.600 303.960,267.420 303.600,267.200 303.600 C 266.980 303.600,266.800 303.280,266.800 302.888 C 266.800 302.497,266.440 301.917,266.000 301.600 C 265.560 301.283,265.200 300.811,265.200 300.552 C 265.200 299.938,262.462 297.200,261.848 297.200 C 261.589 297.200,261.117 296.840,260.800 296.400 C 260.483 295.960,259.903 295.600,259.512 295.600 C 259.120 295.600,258.800 295.420,258.800 295.200 C 258.800 294.980,258.459 294.800,258.043 294.800 C 256.920 294.800,256.800 294.101,256.800 287.567 L 256.800 281.600 265.205 281.600 C 270.013 281.600,273.951 281.429,274.405 281.200 C 274.842 280.980,275.558 280.620,275.995 280.400 C 276.432 280.180,277.112 280.000,277.506 280.000 C 277.901 280.000,278.483 279.640,278.800 279.200 C 279.117 278.760,279.611 278.400,279.897 278.400 C 280.509 278.400,284.800 274.207,284.800 273.609 C 284.800 273.384,284.935 273.199,285.100 273.197 C 285.414 273.194,286.400 271.294,286.400 270.692 C 286.400 269.179,285.719 269.200,334.571 269.200 L 381.600 269.200 381.600 222.000 L 381.600 174.800 336.600 174.800 C 306.867 174.800,291.600 174.664,291.600 174.400 C 291.600 174.180,290.981 174.000,290.224 174.000 C 289.467 174.000,288.736 173.820,288.600 173.600 C 288.464 173.380,287.913 173.200,287.376 173.200 C 286.839 173.200,286.400 173.020,286.400 172.800 C 286.400 172.580,286.080 172.400,285.688 172.400 C 285.297 172.400,284.717 172.040,284.400 171.600 C 284.083 171.160,283.588 170.800,283.301 170.800 C 282.628 170.800,279.569 167.717,278.832 166.295 C 278.520 165.693,278.115 165.200,277.932 165.200 C 277.750 165.200,277.600 164.840,277.600 164.400 C 277.600 163.960,277.420 163.600,277.200 163.600 C 276.980 163.600,276.800 163.060,276.800 162.400 C 276.800 161.740,276.620 161.200,276.400 161.200 C 276.180 161.200,276.000 160.390,276.000 159.400 C 276.000 158.410,275.845 157.600,275.656 157.600 C 275.466 157.600,275.211 155.575,275.088 153.100 C 274.883 148.995,274.504 147.025,273.546 145.105 C 273.356 144.723,273.200 144.048,273.200 143.605 C 273.200 143.162,273.065 142.797,272.900 142.794 C 272.735 142.790,272.160 141.890,271.621 140.794 C 271.083 139.697,270.498 138.800,270.321 138.800 C 270.145 138.800,270.000 138.523,270.000 138.185 C 270.000 137.846,268.297 135.866,266.215 133.785 C 264.134 131.703,262.154 130.000,261.815 130.000 C 261.477 130.000,261.200 129.855,261.200 129.679 C 261.200 129.502,260.303 128.917,259.206 128.379 C 258.110 127.840,257.210 127.265,257.206 127.100 C 257.203 126.935,256.838 126.800,256.395 126.800 C 255.952 126.800,255.277 126.644,254.895 126.454 C 252.437 125.228,251.002 125.061,241.500 124.898 L 231.600 124.728 231.600 105.964 L 231.600 87.200 225.000 87.200 L 218.400 87.200 218.400 105.986 M27.895 118.900 C 28.111 119.175,29.056 120.840,29.996 122.600 C 30.935 124.360,32.016 126.340,32.397 127.000 C 33.011 128.063,34.326 130.500,38.009 137.400 C 38.596 138.500,39.492 140.120,40.000 141.000 C 40.508 141.880,41.410 143.500,42.004 144.600 C 42.598 145.700,43.628 147.590,44.293 148.800 C 44.958 150.010,46.723 153.249,48.214 155.999 C 49.706 158.748,51.327 161.718,51.816 162.599 C 52.306 163.479,53.383 165.460,54.208 167.000 C 56.423 171.131,57.750 173.570,58.939 175.700 C 60.079 177.741,60.908 179.245,63.572 184.100 L 65.272 187.200 201.393 187.200 C 325.149 187.200,337.536 187.257,337.757 187.833 C 338.116 188.769,338.040 199.317,337.670 199.900 C 337.416 200.300,304.573 200.381,174.776 200.300 L 12.200 200.200 12.097 159.800 C 12.040 137.580,12.080 119.175,12.184 118.900 C 12.328 118.524,14.256 118.400,19.938 118.400 C 25.513 118.400,27.605 118.531,27.895 118.900 M387.200 165.992 L 387.200 207.185 388.100 207.408 C 388.595 207.530,391.430 207.579,394.400 207.515 L 399.800 207.400 399.902 166.100 L 400.004 124.800 393.602 124.800 L 387.200 124.800 387.200 165.992 M181.400 143.800 L 181.400 150.200 169.426 150.306 C 162.840 150.364,157.299 150.259,157.111 150.071 C 156.557 149.517,158.264 146.437,160.666 143.657 C 164.654 139.039,169.194 137.211,176.400 137.323 L 181.400 137.400 181.400 143.800 M248.372 137.641 C 256.149 140.044,262.810 147.796,262.797 154.428 C 262.791 157.589,263.737 162.935,265.021 167.000 C 265.515 168.566,268.094 173.427,268.829 174.180 C 270.224 175.608,270.265 175.607,231.300 175.502 L 193.400 175.400 193.296 156.800 C 193.238 146.570,193.278 137.975,193.383 137.700 C 193.642 137.024,246.193 136.968,248.372 137.641 M181.400 168.800 L 181.400 175.400 165.689 175.505 C 148.396 175.620,148.650 175.657,150.367 173.246 C 151.714 171.354,153.600 167.584,153.600 166.783 C 153.600 166.378,153.780 165.936,154.000 165.800 C 154.220 165.664,154.400 165.083,154.400 164.508 C 154.400 161.980,154.411 161.978,168.567 162.095 L 181.400 162.200 181.400 168.800 M19.067 175.867 C 18.920 176.013,18.800 178.623,18.800 181.667 L 18.800 187.200 34.200 187.200 L 49.600 187.200 49.600 181.400 L 49.600 175.600 34.467 175.600 C 26.143 175.600,19.213 175.720,19.067 175.867 M368.800 222.000 L 368.800 256.400 359.400 256.400 L 350.000 256.400 350.000 222.000 L 350.000 187.600 359.400 187.600 L 368.800 187.600 368.800 222.000 M337.554 212.545 C 337.882 212.939,337.978 219.112,337.903 234.845 L 337.800 256.600 311.879 256.703 L 285.958 256.806 285.172 255.031 C 283.370 250.955,279.545 247.397,275.000 245.566 L 272.600 244.600 212.361 244.600 C 150.029 244.600,152.040 244.554,149.105 246.047 C 148.723 246.241,148.230 246.400,148.009 246.400 C 147.353 246.400,143.905 249.152,142.450 250.837 C 141.708 251.697,140.832 252.400,140.503 252.400 C 140.004 252.400,126.838 248.690,123.600 247.637 C 122.518 247.285,120.829 246.794,118.000 246.008 C 117.010 245.734,115.840 245.370,115.400 245.200 C 114.960 245.030,113.790 244.673,112.800 244.407 C 111.810 244.140,110.687 243.760,110.305 243.561 C 109.923 243.362,109.169 243.200,108.629 243.200 C 108.089 243.200,107.536 243.020,107.400 242.800 C 107.264 242.580,106.711 242.400,106.171 242.400 C 105.631 242.400,104.877 242.238,104.495 242.039 C 104.113 241.840,102.990 241.463,102.000 241.200 C 101.010 240.937,99.887 240.560,99.505 240.361 C 99.123 240.162,98.369 240.000,97.829 240.000 C 97.289 240.000,96.749 239.841,96.629 239.646 C 96.508 239.451,95.913 239.196,95.305 239.079 C 94.697 238.962,93.525 238.671,92.700 238.433 C 91.875 238.195,90.615 237.836,89.900 237.637 C 89.185 237.437,84.550 236.070,79.600 234.600 C 70.845 232.000,69.413 231.583,66.700 230.847 C 65.985 230.654,64.500 230.202,63.400 229.844 C 61.310 229.164,60.194 228.835,57.200 228.015 C 56.210 227.744,55.087 227.360,54.705 227.161 C 54.323 226.962,53.569 226.800,53.029 226.800 C 52.489 226.800,51.936 226.620,51.800 226.400 C 51.664 226.180,51.124 226.000,50.600 226.000 C 50.076 226.000,49.536 225.820,49.400 225.600 C 49.264 225.380,48.634 225.200,48.000 225.200 C 47.366 225.200,46.736 225.020,46.600 224.800 C 46.464 224.580,45.911 224.400,45.371 224.400 C 44.831 224.400,44.077 224.242,43.695 224.049 C 43.029 223.713,42.428 223.527,38.400 222.408 C 37.410 222.134,36.240 221.764,35.800 221.588 C 35.360 221.411,34.550 221.150,34.000 221.006 C 33.450 220.863,32.460 220.588,31.800 220.396 C 31.140 220.203,29.970 219.872,29.200 219.660 C 13.025 215.208,9.859 213.854,12.300 212.432 C 13.488 211.740,336.980 211.853,337.554 212.545 M387.200 218.600 L 387.200 225.200 393.600 225.200 L 400.000 225.200 400.000 218.600 L 400.000 212.000 393.600 212.000 L 387.200 212.000 387.200 218.600 M387.467 231.067 C 387.320 231.213,387.200 249.843,387.200 272.467 L 387.200 313.600 393.600 313.600 L 400.000 313.600 400.000 272.600 C 400.000 240.070,399.897 231.599,399.500 231.594 C 399.167 231.590,399.200 231.458,399.600 231.200 C 400.002 230.940,398.139 230.810,393.967 230.806 C 390.538 230.803,387.613 230.920,387.467 231.067 M271.459 256.590 C 275.991 258.850,276.557 264.809,272.532 267.879 L 271.062 269.000 214.231 269.120 C 182.974 269.186,156.440 269.126,155.267 268.987 C 148.874 268.229,147.635 259.957,153.400 256.524 C 154.726 255.734,269.873 255.798,271.459 256.590 M65.426 282.194 C 67.552 283.440,69.009 286.157,68.671 288.242 C 67.400 296.073,56.248 295.491,56.221 287.593 C 56.204 282.614,61.171 279.701,65.426 282.194 M252.720 306.962 C 258.533 309.987,256.600 318.800,250.122 318.800 C 245.118 318.800,242.258 314.225,244.441 309.715 C 245.833 306.839,249.891 305.490,252.720 306.962 " stroke="none" fill="#1c1c1c" fill-rule="evenodd"></path><path id="path4" d="M12.184 118.900 C 12.080 119.175,12.040 137.580,12.097 159.800 L 12.200 200.200 174.776 200.300 C 304.573 200.381,337.416 200.300,337.670 199.900 C 338.040 199.317,338.116 188.769,337.757 187.833 C 337.536 187.257,325.149 187.200,201.393 187.200 L 65.272 187.200 63.572 184.100 C 60.908 179.245,60.079 177.741,58.939 175.700 C 58.355 174.655,57.353 172.810,56.712 171.600 C 56.071 170.390,55.350 169.220,55.110 169.000 C 54.728 168.649,56.800 172.720,59.081 176.800 C 59.993 178.432,62.988 183.929,64.147 186.099 L 64.948 187.599 201.174 187.699 L 337.400 187.800 337.400 193.800 L 337.400 199.800 174.900 199.900 L 12.400 200.001 12.400 159.400 L 12.400 118.800 19.700 118.806 C 27.538 118.813,27.476 118.800,28.448 120.600 C 29.185 121.966,30.928 125.172,32.689 128.400 C 33.348 129.610,34.834 132.364,35.990 134.521 C 37.146 136.677,38.170 138.364,38.265 138.268 C 38.361 138.172,38.100 137.488,37.685 136.747 C 37.270 136.006,36.066 133.780,35.010 131.800 C 33.954 129.820,32.778 127.660,32.397 127.000 C 32.016 126.340,30.935 124.360,29.996 122.600 C 29.056 120.840,28.111 119.175,27.895 118.900 C 27.605 118.531,25.513 118.400,19.938 118.400 C 14.256 118.400,12.328 118.524,12.184 118.900 M169.039 138.049 C 164.282 139.669,160.086 143.334,157.685 147.966 C 156.392 150.460,156.206 150.423,169.426 150.306 L 181.400 150.200 181.400 143.800 L 181.400 137.400 176.400 137.323 C 172.299 137.259,170.975 137.390,169.039 138.049 M193.383 137.700 C 193.278 137.975,193.238 146.570,193.296 156.800 L 193.400 175.400 231.300 175.502 C 270.265 175.607,270.224 175.608,268.829 174.180 C 265.906 171.187,262.785 160.966,262.797 154.428 C 262.810 147.796,256.149 140.044,248.372 137.641 C 246.193 136.968,193.642 137.024,193.383 137.700 M181.200 143.800 L 181.200 150.000 169.357 150.000 L 157.513 150.000 157.780 148.939 C 159.378 142.571,167.367 137.754,176.500 137.652 L 181.200 137.600 181.200 143.800 M247.948 138.181 C 256.277 140.398,262.374 147.904,262.395 155.967 C 262.410 161.578,264.325 167.928,267.682 173.500 L 268.465 174.800 231.033 174.800 L 193.600 174.800 193.600 156.467 C 193.600 146.383,193.720 138.013,193.867 137.867 C 194.454 137.280,245.680 137.578,247.948 138.181 M40.005 141.800 C 42.473 146.387,43.710 148.672,45.200 151.400 C 45.921 152.720,46.952 154.610,47.492 155.600 C 48.032 156.590,48.664 157.580,48.896 157.800 C 49.273 158.157,45.933 151.646,43.869 148.000 C 43.433 147.230,42.592 145.700,42.000 144.600 C 40.011 140.904,39.127 139.402,38.704 139.000 C 38.473 138.780,39.058 140.040,40.005 141.800 M49.200 158.508 C 49.200 158.655,49.583 159.456,50.051 160.288 C 50.519 161.120,51.710 163.294,52.698 165.120 C 53.686 166.946,54.572 168.362,54.667 168.267 C 54.762 168.172,54.501 167.488,54.088 166.747 C 53.674 166.006,52.562 163.960,51.616 162.200 C 49.949 159.098,49.200 157.954,49.200 158.508 M155.067 162.726 C 154.700 163.131,154.400 163.933,154.400 164.508 C 154.400 165.083,154.220 165.664,154.000 165.800 C 153.780 165.936,153.600 166.378,153.600 166.783 C 153.600 167.584,151.714 171.354,150.367 173.246 C 148.650 175.657,148.396 175.620,165.689 175.505 L 181.400 175.400 181.400 168.800 L 181.400 162.200 168.567 162.095 C 156.532 161.996,155.692 162.035,155.067 162.726 M181.000 168.800 L 181.000 175.000 166.001 175.105 C 149.218 175.222,149.621 175.259,150.721 173.702 C 152.052 171.816,153.901 167.864,154.615 165.379 C 154.991 164.071,155.378 162.862,155.476 162.694 C 155.574 162.526,161.357 162.436,168.327 162.494 L 181.000 162.600 181.000 168.800 M18.592 176.100 C 18.470 176.595,18.421 179.340,18.485 182.200 L 18.600 187.400 34.200 187.400 L 49.800 187.400 49.910 181.300 L 50.021 175.200 34.418 175.200 L 18.815 175.200 18.592 176.100 M49.600 181.400 L 49.600 187.200 34.200 187.200 L 18.800 187.200 18.800 181.667 C 18.800 178.623,18.920 176.013,19.067 175.867 C 19.213 175.720,26.143 175.600,34.467 175.600 L 49.600 175.600 49.600 181.400 M350.000 222.000 L 350.000 256.400 359.400 256.400 L 368.800 256.400 368.800 222.000 L 368.800 187.600 359.400 187.600 L 350.000 187.600 350.000 222.000 M12.300 212.432 C 11.450 212.927,11.399 213.735,12.176 214.380 C 13.058 215.112,30.151 220.091,29.554 219.442 C 29.314 219.182,22.503 217.100,17.200 215.667 C 13.619 214.699,12.600 214.196,12.600 213.398 C 12.600 212.602,12.985 212.600,175.000 212.600 L 337.400 212.600 337.400 234.400 L 337.400 256.200 311.896 256.303 L 286.392 256.406 285.338 254.179 C 283.782 250.892,280.160 247.415,276.458 245.654 L 273.400 244.200 212.800 244.200 L 152.200 244.200 149.800 245.171 C 146.745 246.406,144.477 247.942,142.289 250.257 L 140.557 252.091 137.578 251.214 C 135.940 250.732,134.060 250.186,133.400 250.001 C 132.740 249.817,130.940 249.276,129.400 248.800 C 126.568 247.924,125.339 247.562,122.800 246.856 C 122.030 246.641,120.140 246.076,118.600 245.600 C 117.060 245.124,115.170 244.559,114.400 244.344 C 111.485 243.533,110.451 243.233,105.046 241.626 C 101.991 240.718,99.400 240.066,99.289 240.178 C 99.074 240.393,99.161 240.425,102.000 241.192 C 102.990 241.459,104.113 241.840,104.495 242.039 C 104.877 242.238,105.631 242.400,106.171 242.400 C 106.711 242.400,107.264 242.580,107.400 242.800 C 107.536 243.020,108.089 243.200,108.629 243.200 C 109.169 243.200,109.923 243.362,110.305 243.561 C 110.687 243.760,111.810 244.140,112.800 244.407 C 113.790 244.673,114.960 245.030,115.400 245.200 C 115.840 245.370,117.010 245.734,118.000 246.008 C 120.829 246.794,122.518 247.285,123.600 247.637 C 126.838 248.690,140.004 252.400,140.503 252.400 C 140.832 252.400,141.708 251.697,142.450 250.837 C 143.905 249.152,147.353 246.400,148.009 246.400 C 148.230 246.400,148.723 246.241,149.105 246.047 C 152.040 244.554,150.029 244.600,212.361 244.600 L 272.600 244.600 275.000 245.566 C 279.545 247.397,283.370 250.955,285.172 255.031 L 285.958 256.806 311.879 256.703 L 337.800 256.600 337.903 234.845 C 337.978 219.112,337.882 212.939,337.554 212.545 C 336.980 211.853,13.488 211.740,12.300 212.432 M30.400 220.000 C 30.730 220.213,31.360 220.378,31.800 220.366 L 32.600 220.344 31.800 220.000 C 30.604 219.486,29.605 219.486,30.400 220.000 M33.200 220.800 C 33.530 221.013,34.160 221.178,34.600 221.166 L 35.400 221.144 34.600 220.800 C 33.404 220.286,32.405 220.286,33.200 220.800 M35.800 221.600 C 35.936 221.820,36.388 222.000,36.805 222.000 C 37.221 222.000,37.976 222.161,38.481 222.358 C 38.987 222.555,40.210 222.933,41.200 223.197 C 42.190 223.462,43.313 223.840,43.695 224.039 C 44.077 224.238,44.831 224.400,45.371 224.400 C 45.911 224.400,46.464 224.580,46.600 224.800 C 46.736 225.020,47.366 225.200,48.000 225.200 C 48.634 225.200,49.264 225.380,49.400 225.600 C 49.536 225.820,50.076 226.000,50.600 226.000 C 51.124 226.000,51.664 226.180,51.800 226.400 C 51.936 226.620,52.489 226.800,53.029 226.800 C 53.569 226.800,54.323 226.962,54.705 227.161 C 55.087 227.360,56.210 227.744,57.200 228.015 C 60.194 228.835,61.310 229.164,63.400 229.844 C 64.500 230.202,65.940 230.643,66.600 230.825 C 67.260 231.006,68.430 231.329,69.200 231.541 C 69.970 231.753,74.650 233.130,79.600 234.600 C 84.550 236.070,89.230 237.447,90.000 237.659 C 90.770 237.871,92.030 238.230,92.800 238.455 C 93.570 238.681,94.697 238.962,95.305 239.079 C 95.913 239.196,96.508 239.451,96.629 239.646 C 96.749 239.841,97.317 240.000,97.890 240.000 C 98.464 240.000,98.857 239.923,98.763 239.830 C 98.621 239.688,84.487 235.458,80.600 234.394 C 79.940 234.214,78.140 233.676,76.600 233.200 C 73.768 232.324,72.539 231.962,70.000 231.256 C 69.230 231.041,67.340 230.476,65.800 230.000 C 62.969 229.124,61.742 228.763,59.200 228.055 C 58.430 227.841,56.000 227.127,53.800 226.468 C 36.029 221.144,35.416 220.979,35.800 221.600 M153.400 256.524 C 152.077 257.312,149.999 259.656,150.009 260.350 C 150.014 260.708,150.398 260.345,150.863 259.543 C 151.328 258.742,152.383 257.707,153.208 257.243 L 154.709 256.400 212.454 256.401 C 276.831 256.403,271.347 256.176,273.648 258.931 C 274.047 259.409,274.379 259.609,274.387 259.375 C 274.402 258.890,272.638 257.245,271.305 256.500 C 270.034 255.789,154.594 255.812,153.400 256.524 M274.736 262.001 C 274.919 264.591,273.947 266.546,271.851 267.803 C 270.943 268.347,270.453 268.794,270.762 268.796 C 273.371 268.814,276.913 261.509,274.900 260.261 C 274.735 260.159,274.661 260.942,274.736 262.001 M149.701 262.600 C 149.705 263.480,149.787 263.793,149.883 263.295 C 149.979 262.798,149.975 262.078,149.875 261.695 C 149.775 261.313,149.696 261.720,149.701 262.600 M150.009 264.900 C 149.997 265.809,152.991 268.803,153.900 268.791 C 154.337 268.785,154.056 268.466,153.150 267.941 C 152.353 267.478,151.322 266.447,150.859 265.650 C 150.334 264.744,150.015 264.463,150.009 264.900 M183.700 269.100 C 199.485 269.158,225.315 269.158,241.100 269.100 C 256.885 269.042,243.970 268.995,212.400 268.995 C 180.830 268.995,167.915 269.042,183.700 269.100 M59.532 282.011 C 53.774 285.052,55.746 293.794,62.182 293.761 C 68.844 293.726,71.140 285.542,65.426 282.194 C 63.404 281.009,61.538 280.951,59.532 282.011 M246.741 307.206 C 245.070 308.089,243.600 310.694,243.600 312.772 C 243.600 317.799,250.029 320.707,253.871 317.418 C 259.741 312.393,253.592 303.586,246.741 307.206 " stroke="none" fill="#545454" fill-rule="evenodd"></path></g></svg>