<svg width="98" height="42" viewBox="0 0 98 42" fill="none" xmlns="http://www.w3.org/2000/svg">
<mask id="path-1-inside-1_3_26" fill="white">
<path fill-rule="evenodd" clip-rule="evenodd" d="M8 0C3.58172 0 0 3.58172 0 8V27C0 31.4183 3.58172 35 8 35H34.0619C34.554 38.9463 37.9204 42 42 42H90C94.4183 42 98 38.4183 98 34V21C98 16.5817 94.4183 13 90 13H63V8C63 3.58172 59.4183 0 55 0H8Z"/>
</mask>
<path fill-rule="evenodd" clip-rule="evenodd" d="M8 0C3.58172 0 0 3.58172 0 8V27C0 31.4183 3.58172 35 8 35H34.0619C34.554 38.9463 37.9204 42 42 42H90C94.4183 42 98 38.4183 98 34V21C98 16.5817 94.4183 13 90 13H63V8C63 3.58172 59.4183 0 55 0H8Z" fill="white"/>
<path d="M34.0619 35L35.0542 34.8763L34.9449 34H34.0619V35ZM63 13H62V14H63V13ZM1 8C1 4.13401 4.13401 1 8 1V-1C3.02944 -1 -1 3.02944 -1 8H1ZM1 27V8H-1V27H1ZM8 34C4.13401 34 1 30.866 1 27H-1C-1 31.9706 3.02944 36 8 36V34ZM34.0619 34H8V36H34.0619V34ZM42 41C38.4311 41 35.4847 38.3283 35.0542 34.8763L33.0696 35.1237C33.6233 39.5644 37.4097 43 42 43V41ZM90 41H42V43H90V41ZM97 34C97 37.866 93.866 41 90 41V43C94.9706 43 99 38.9706 99 34H97ZM97 21V34H99V21H97ZM90 14C93.866 14 97 17.134 97 21H99C99 16.0294 94.9706 12 90 12V14ZM63 14H90V12H63V14ZM62 8V13H64V8H62ZM55 1C58.866 1 62 4.13401 62 8H64C64 3.02944 59.9706 -1 55 -1V1ZM8 1H55V-1H8V1Z" fill="black" mask="url(#path-1-inside-1_3_26)"/>
</svg>
