<svg viewBox="0 0 109 37" fill="none" xmlns="http://www.w3.org/2000/svg">
<mask id="path-1-inside-1_3_38" fill="white">
<path fill-rule="evenodd" clip-rule="evenodd" d="M8 0C3.58172 0 0 3.58172 0 7.99999V19.4109C0 23.8292 3.58172 27.4109 7.99999 27.4109H57.3802V28.1824C57.3802 32.6007 60.962 36.1824 65.3802 36.1824H100.182C104.6 36.1824 108.182 32.6007 108.182 28.1824V21.5227C108.182 17.1045 104.6 13.5227 100.182 13.5227H90.6388V8C90.6388 3.58172 87.0571 0 82.6388 0H8Z"/>
</mask>
<path fill-rule="evenodd" clip-rule="evenodd" d="M8 0C3.58172 0 0 3.58172 0 7.99999V19.4109C0 23.8292 3.58172 27.4109 7.99999 27.4109H57.3802V28.1824C57.3802 32.6007 60.962 36.1824 65.3802 36.1824H100.182C104.6 36.1824 108.182 32.6007 108.182 28.1824V21.5227C108.182 17.1045 104.6 13.5227 100.182 13.5227H90.6388V8C90.6388 3.58172 87.0571 0 82.6388 0H8Z" fill="white"/>
<path d="M57.3802 27.4109H58.3802V26.4109H57.3802V27.4109ZM90.6388 13.5227H89.6388V14.5227H90.6388V13.5227ZM1 7.99999C1 4.134 4.13401 1 8 1V-1C3.02944 -1 -1 3.02943 -1 7.99999H1ZM1 19.4109V7.99999H-1V19.4109H1ZM7.99999 26.4109C4.134 26.4109 1 23.2769 1 19.4109H-1C-1 24.3815 3.02943 28.4109 7.99999 28.4109V26.4109ZM57.3802 26.4109H7.99999V28.4109H57.3802V26.4109ZM58.3802 28.1824V27.4109H56.3802V28.1824H58.3802ZM65.3802 35.1824C61.5142 35.1824 58.3802 32.0484 58.3802 28.1824H56.3802C56.3802 33.153 60.4097 37.1824 65.3802 37.1824V35.1824ZM100.182 35.1824H65.3802V37.1824H100.182V35.1824ZM107.182 28.1824C107.182 32.0484 104.048 35.1824 100.182 35.1824V37.1824C105.152 37.1824 109.182 33.153 109.182 28.1824H107.182ZM107.182 21.5227V28.1824H109.182V21.5227H107.182ZM100.182 14.5227C104.048 14.5227 107.182 17.6567 107.182 21.5227H109.182C109.182 16.5522 105.152 12.5227 100.182 12.5227V14.5227ZM90.6388 14.5227H100.182V12.5227H90.6388V14.5227ZM89.6388 8V13.5227H91.6388V8H89.6388ZM82.6388 1C86.5048 1 89.6388 4.13401 89.6388 8H91.6388C91.6388 3.02944 87.6094 -1 82.6388 -1V1ZM8 1H82.6388V-1H8V1Z" fill="black" mask="url(#path-1-inside-1_3_38)"/>
</svg>
