<?xml version="1.0" encoding="UTF-8" standalone="no"?>
<svg
   viewBox="0 0 19321 4356"
   fill="none"
   version="1.1"
   id="svg3"
   sodipodi:docname="cloud2.svg"
   width="19321"
   height="4356"
   xmlns:inkscape="http://www.inkscape.org/namespaces/inkscape"
   xmlns:sodipodi="http://sodipodi.sourceforge.net/DTD/sodipodi-0.dtd"
   xmlns="http://www.w3.org/2000/svg"
   xmlns:svg="http://www.w3.org/2000/svg">
  <defs
     id="defs3" />
  <sodipodi:namedview
     id="namedview3"
     pagecolor="#505050"
     bordercolor="#eeeeee"
     borderopacity="1"
     inkscape:showpageshadow="0"
     inkscape:pageopacity="0"
     inkscape:pagecheckerboard="0"
     inkscape:deskcolor="#505050" />
  <mask
     id="path-1-inside-1_3_43"
     fill="#ffffff">
    <path
       fill-rule="evenodd"
       clip-rule="evenodd"
       d="M 14.2564,8.00001 C 14.2564,3.58173 17.8381,0 22.2564,0 h 95.9126 c 4.419,0 8,3.58172 8,8 v 2.8706 H 131 c 4.418,0 8,3.5817 8,8 v 26.7059 c 0,4.4183 -3.582,8 -8,8 H 111.2 V 58 c 0,4.4183 -3.582,8 -8,8 H 8 C 3.58172,66 0,62.4183 0,58 V 35.1765 c 0,-4.4183 3.58172,-8 8,-8 h 6.2564 z"
       id="path1" />
  </mask>
  <path
     fill-rule="evenodd"
     clip-rule="evenodd"
     d="M 14.2564,8.00001 C 14.2564,3.58173 17.8381,0 22.2564,0 h 95.9126 c 4.419,0 8,3.58172 8,8 v 2.8706 H 131 c 4.418,0 8,3.5817 8,8 v 26.7059 c 0,4.4183 -3.582,8 -8,8 H 111.2 V 58 c 0,4.4183 -3.582,8 -8,8 H 8 C 3.58172,66 0,62.4183 0,58 V 35.1765 c 0,-4.4183 3.58172,-8 8,-8 h 6.2564 z"
     fill="#ffffff"
     id="path2" />
  <path
     d="m 126.169,10.8706 h -1 v 1 h 1 z M 111.2,53.5765 v -1 h -1 v 1 z m -96.9436,-26.4 v 1 h 1 v -1 z m 8,-28.1765 c -4.9706,0 -9,4.02944 -9,9.00001 h 2 c 0,-3.866 3.134,-7.00001 7,-7.00001 z m 95.9126,0 H 22.2564 v 2 h 95.9126 z m 9,9 c 0,-4.97056 -4.029,-9 -9,-9 v 2 c 3.866,0 7,3.13401 7,7 z m 0,2.8706 V 8 h -2 v 2.8706 z m -1,1 H 131 V 9.87059 h -4.831 z m 4.831,0 c 3.866,0 7,3.134 7,7 h 2 C 140,13.9 135.971,9.87059 131,9.87059 Z m 7,7 v 26.7059 h 2 V 18.8706 Z m 0,26.7059 c 0,3.866 -3.134,7 -7,7 v 2 c 4.971,0 9,-4.0295 9,-9 z m -7,7 h -19.8 v 2 H 131 Z M 112.2,58 v -4.4235 h -2 V 58 Z m -9,9 c 4.971,0 9,-4.0294 9,-9 h -2 c 0,3.866 -3.134,7 -7,7 z M 8,67 h 95.2 V 65 H 8 Z m -9,-9 c 0,4.9706 4.02944,9 9,9 V 65 C 4.13401,65 1,61.866 1,58 Z M -1,35.1765 V 58 H 1 V 35.1765 Z m 9,-9 c -4.97056,0 -9,4.0294 -9,9 h 2 c 0,-3.866 3.13401,-7 7,-7 z m 6.2564,0 H 8 v 2 h 6.2564 z m -1,-18.17649 V 27.1765 h 2 V 8.00001 Z"
     fill="#000000"
     mask="url(#path-1-inside-1_3_43)"
     id="path3" />
</svg>
