<svg width="78" height="35" viewBox="0 0 78 35" fill="none" xmlns="http://www.w3.org/2000/svg">
<mask id="path-1-inside-1_3_27" fill="white">
<path fill-rule="evenodd" clip-rule="evenodd" d="M8 0C3.58172 0 0 3.58172 0 8V27C0 31.4183 3.58172 35 8 35H22H55H70C74.4183 35 78 31.4183 78 27V14C78 9.58172 74.4183 6 70 6H62.748C61.8599 2.54955 58.7277 0 55 0H8Z"/>
</mask>
<path fill-rule="evenodd" clip-rule="evenodd" d="M8 0C3.58172 0 0 3.58172 0 8V27C0 31.4183 3.58172 35 8 35H22H55H70C74.4183 35 78 31.4183 78 27V14C78 9.58172 74.4183 6 70 6H62.748C61.8599 2.54955 58.7277 0 55 0H8Z" fill="white"/>
<path d="M62.748 6L61.7795 6.24926L61.9728 7H62.748V6ZM1 8C1 4.13401 4.13401 1 8 1V-1C3.02944 -1 -1 3.02944 -1 8H1ZM1 27V8H-1V27H1ZM8 34C4.13401 34 1 30.866 1 27H-1C-1 31.9706 3.02944 36 8 36V34ZM22 34H8V36H22V34ZM55 34H22V36H55V34ZM70 34H55V36H70V34ZM77 27C77 30.866 73.866 34 70 34V36C74.9706 36 79 31.9706 79 27H77ZM77 14V27H79V14H77ZM70 7C73.866 7 77 10.134 77 14H79C79 9.02944 74.9706 5 70 5V7ZM62.748 7H70V5H62.748V7ZM55 1C58.2603 1 61.0024 3.2299 61.7795 6.24926L63.7164 5.75074C62.7174 1.86919 59.195 -1 55 -1V1ZM8 1H55V-1H8V1Z" fill="black" mask="url(#path-1-inside-1_3_27)"/>
</svg>
