<?xml version="1.0" encoding="utf-8"?>
<!-- Uploaded to: SVG Repo, www.svgrepo.com, Generator: SVG Repo Mixer Tools -->
<svg width="800px" height="800px" viewBox="0 0 1024 1024" class="icon"  version="1.1" xmlns="http://www.w3.org/2000/svg"><path d="M606.72 769.28c0 14.08-11.52 25.6-25.6 25.6h-179.2c-14.08 0-25.6-11.52-25.6-25.6l-25.6-128c0-14.08 11.52-25.6 25.6-25.6h230.4c14.08 0 25.6 11.52 25.6 25.6l-25.6 128z" fill="#6FB0BE" /><path d="M581.12 807.68h-179.2c-20.48 0-37.12-16.64-38.4-37.12l-25.6-126.72v-2.56c0-21.76 16.64-38.4 38.4-38.4h230.4c21.76 0 38.4 16.64 38.4 38.4v2.56l-25.6 126.72c-1.28 20.48-17.92 37.12-38.4 37.12zM363.52 640l25.6 126.72v2.56c0 7.68 5.12 12.8 12.8 12.8h179.2c7.68 0 12.8-5.12 12.8-12.8v-2.56l25.6-126.72c0-6.4-6.4-11.52-12.8-11.52h-230.4c-6.4 0-12.8 5.12-12.8 11.52z" fill="#231C1C" /><path d="M913.92 334.08c0 24.32-46.08 64-70.4 64s-44.8-20.48-44.8-44.8 20.48-44.8 44.8-44.8 70.4 0 70.4 25.6z" fill="#FDE8C2" /><path d="M843.52 410.88c-32 0-57.6-25.6-57.6-57.6s25.6-57.6 57.6-57.6c24.32 0 83.2 0 83.2 38.4 0 33.28-52.48 76.8-83.2 76.8z m0-89.6c-17.92 0-32 14.08-32 32s14.08 32 32 32c19.2 0 57.6-34.56 57.6-51.2 0-3.84-3.84-12.8-57.6-12.8z" fill="#231C1C" /><path d="M913.92 615.68c0-24.32-46.08-64-70.4-64s-44.8 20.48-44.8 44.8 20.48 44.8 44.8 44.8 70.4-1.28 70.4-25.6z" fill="#FDE8C2" /><path d="M843.52 654.08c-32 0-57.6-25.6-57.6-57.6s25.6-57.6 57.6-57.6c30.72 0 83.2 43.52 83.2 76.8 0 38.4-58.88 38.4-83.2 38.4z m0-89.6c-17.92 0-32 14.08-32 32s14.08 32 32 32c53.76 0 57.6-10.24 57.6-12.8 0-16.64-39.68-51.2-57.6-51.2z" fill="#231C1C" /><path d="M875.52 474.88c0 126.72-202.24 230.4-408.32 230.4-204.8 0-334.08-103.68-334.08-230.4s129.28-230.4 334.08-230.4 408.32 102.4 408.32 230.4z" fill="#E96A60" /><path d="M467.2 718.08c-200.96 0-346.88-102.4-346.88-243.2s145.92-243.2 346.88-243.2c198.4 0 421.12 99.84 421.12 243.2s-221.44 243.2-421.12 243.2z m0-460.8c-186.88 0-321.28 90.88-321.28 217.6s135.68 217.6 321.28 217.6c207.36 0 395.52-103.68 395.52-217.6s-188.16-217.6-395.52-217.6z" fill="#231C1C" /><path d="M926.72 474.88c0 14.08-8.96 25.6-19.2 25.6h-89.6c-10.24 0-19.2-11.52-19.2-25.6s8.96-25.6 19.2-25.6h89.6c10.24 0 19.2 11.52 19.2 25.6z" fill="#FDE8C2" /><path d="M907.52 513.28h-89.6c-17.92 0-32-16.64-32-38.4s14.08-38.4 32-38.4h89.6c17.92 0 32 16.64 32 38.4s-14.08 38.4-32 38.4z m-89.6-51.2c-2.56 0-6.4 5.12-6.4 12.8s3.84 12.8 6.4 12.8h89.6c2.56 0 6.4-5.12 6.4-12.8s-3.84-12.8-6.4-12.8h-89.6z" fill="#231C1C" /><path d="M913.92 334.08c0 24.32-46.08 64-70.4 64s-44.8-20.48-44.8-44.8 20.48-44.8 44.8-44.8 70.4 0 70.4 25.6z" fill="#FDE8C2" /><path d="M843.52 410.88c-32 0-57.6-25.6-57.6-57.6s25.6-57.6 57.6-57.6c24.32 0 83.2 0 83.2 38.4 0 33.28-52.48 76.8-83.2 76.8z m0-89.6c-17.92 0-32 14.08-32 32s14.08 32 32 32c19.2 0 57.6-34.56 57.6-51.2 0-3.84-3.84-12.8-57.6-12.8z" fill="#231C1C" /><path d="M913.92 615.68c0-24.32-46.08-64-70.4-64s-44.8 20.48-44.8 44.8 20.48 44.8 44.8 44.8 70.4-1.28 70.4-25.6z" fill="#FDE8C2" /><path d="M843.52 654.08c-32 0-57.6-25.6-57.6-57.6s25.6-57.6 57.6-57.6c30.72 0 83.2 43.52 83.2 76.8 0 38.4-58.88 38.4-83.2 38.4z m0-89.6c-17.92 0-32 14.08-32 32s14.08 32 32 32c53.76 0 57.6-10.24 57.6-12.8 0-16.64-39.68-51.2-57.6-51.2z" fill="#231C1C" /><path d="M875.52 474.88c0 126.72-202.24 230.4-408.32 230.4-204.8 0-334.08-103.68-334.08-230.4s129.28-230.4 334.08-230.4 408.32 102.4 408.32 230.4z" fill="#E96A60" /><path d="M467.2 718.08c-200.96 0-346.88-102.4-346.88-243.2s145.92-243.2 346.88-243.2c198.4 0 421.12 99.84 421.12 243.2s-221.44 243.2-421.12 243.2z m0-460.8c-186.88 0-321.28 90.88-321.28 217.6s135.68 217.6 321.28 217.6c207.36 0 395.52-103.68 395.52-217.6s-188.16-217.6-395.52-217.6z" fill="#231C1C" /><path d="M875.52 474.88c0 64-202.24 115.2-408.32 115.2-204.8 0-334.08-51.2-334.08-115.2s129.28-115.2 334.08-115.2 408.32 51.2 408.32 115.2z" fill="#FAC546" /><path d="M467.2 602.88c-207.36 0-346.88-51.2-346.88-128s139.52-128 346.88-128c202.24 0 421.12 48.64 421.12 128s-218.88 128-421.12 128z m0-230.4c-208.64 0-321.28 52.48-321.28 102.4s112.64 102.4 321.28 102.4c218.88 0 395.52-56.32 395.52-102.4s-176.64-102.4-395.52-102.4z" fill="#231C1C" /><path d="M926.72 474.88c0 14.08-8.96 25.6-19.2 25.6h-89.6c-10.24 0-19.2-11.52-19.2-25.6s8.96-25.6 19.2-25.6h89.6c10.24 0 19.2 11.52 19.2 25.6z" fill="#FDE8C2" /><path d="M907.52 513.28h-89.6c-17.92 0-32-16.64-32-38.4s14.08-38.4 32-38.4h89.6c17.92 0 32 16.64 32 38.4s-14.08 38.4-32 38.4z m-89.6-51.2c-2.56 0-6.4 5.12-6.4 12.8s3.84 12.8 6.4 12.8h89.6c2.56 0 6.4-5.12 6.4-12.8s-3.84-12.8-6.4-12.8h-89.6z" fill="#231C1C" /><path d="M416 730.88h75.52v25.6h-75.52z" fill="#231C1C" /><path d="M480 730.88h24.32v25.6h-24.32z" fill="#231C1C" /><path d="M544 730.88h24.32v25.6h-24.32z" fill="#231C1C" /></svg>