<?xml version="1.0" encoding="UTF-8"?>
<!-- Created with Inkscape (http://www.inkscape.org/) -->
<svg width="44.63mm" height="30.366mm" version="1.1" viewBox="0 0 44.63 30.366" xmlns="http://www.w3.org/2000/svg">
 <g transform="translate(-51.052 -25.084)">
  <path id="cold-cloud" d="m87.088 34.607c0.09183-0.48812 0.13972-0.99176 0.13972-1.5068 0-4.4271-3.543-8.016-7.9136-8.016-2.6741 0-5.0385 1.3436-6.4709 3.4007-1.3753-1.1695-3.1491-1.8738-5.0851-1.8738-4.3286 0-7.8455 3.5203-7.9126 7.8887h-9.96e-4c-4.8561 0-8.7927 3.9875-8.7927 8.9066 0 4.919 3.9366 8.9066 8.7927 8.9066h25.876c4.856 0 8.7927-3.9876 8.7927-8.9066 0-4.4478-3.2185-8.1339-7.4251-8.7994z" fill="#fff" stroke-width=".52363"/>
  <g id="cold-face">
   <path d="m62.085 43.387s0.44716-1.2208 2.7586-1.2208 1.8121 1.3226 3.8945 1.3882c2.0484 0.06461 2.7934-0.9251 2.7934-0.9251" fill="none" stroke="#202020" stroke-linecap="round" stroke-width="1.3229"/>
   <path d="m74.819 43.387s0.44716-1.2208 2.7586-1.2208 1.8121 1.3226 3.8945 1.3882c2.0484 0.06461 2.7934-0.9251 2.7934-0.9251" fill="none" stroke="#202020" stroke-linecap="round" stroke-width="1.3229"/>
   <ellipse cx="73.2" cy="46.148" rx="1.1508" ry="1.0174" fill="#202020"/>
  </g>
  <g id="snow-flakes" fill="#202020" stroke="#00adce" stroke-linecap="round" stroke-width="1.3229">
   <path d="m58.578 46.25v8.5392"/>
   <path d="m54.309 50.519h8.5392"/>
   <path d="m55.571 47.403 6.009 6.0671"/>
   <path d="m61.421 47.405-6.009 6.0671"/>
   <path d="m90.75 33.581v8.5392"/>
   <path d="m86.481 37.85h8.5392"/>
   <path d="m87.743 34.734 6.009 6.0671"/>
   <path d="m93.593 34.736-6.009 6.0671"/>
   <g transform="translate(1.2292e-6)">
    <path d="m71.14 28.818v8.5392"/>
    <path d="m66.871 33.087h8.5392"/>
    <path d="m68.133 29.971 6.009 6.0671"/>
    <path d="m73.983 29.973-6.009 6.0671"/>
   </g>
  </g>
 </g>
</svg>
