<?xml version="1.0" encoding="UTF-8" standalone="no"?>
<!-- Created with Inkscape (http://www.inkscape.org/) -->

<svg
   width="47.469604mm"
   height="34.218613mm"
   viewBox="0 0 47.469604 34.218613"
   version="1.1"
   id="svg1"
   inkscape:version="1.3.2 (091e20e, 2023-11-25, custom)"
   sodipodi:docname="sun-cloud.svg"
   xmlns:inkscape="http://www.inkscape.org/namespaces/inkscape"
   xmlns:sodipodi="http://sodipodi.sourceforge.net/DTD/sodipodi-0.dtd"
   xmlns="http://www.w3.org/2000/svg"
   xmlns:svg="http://www.w3.org/2000/svg">
  <sodipodi:namedview
     id="namedview1"
     pagecolor="#505050"
     bordercolor="#eeeeee"
     borderopacity="1"
     inkscape:showpageshadow="0"
     inkscape:pageopacity="0"
     inkscape:pagecheckerboard="0"
     inkscape:deskcolor="#505050"
     inkscape:document-units="mm"
     inkscape:zoom="1.9830139"
     inkscape:cx="80.685263"
     inkscape:cy="44.124753"
     inkscape:window-width="1920"
     inkscape:window-height="1001"
     inkscape:window-x="-9"
     inkscape:window-y="-9"
     inkscape:window-maximized="1"
     inkscape:current-layer="layer1" />
  <defs
     id="defs1" />
  <g
     inkscape:label="Layer 1"
     inkscape:groupmode="layer"
     id="layer1"
     transform="translate(-52.743099,-18.094447)">
    <g
       id="sun-cloud">
      <g
         id="the-sun"
         inkscape:label="g4"
         transform="translate(-12.359276,12.170584)">
        <circle
           style="fill:#ffc221;fill-opacity:1;stroke:none;stroke-width:0.264583"
           id="bg-sun"
           cx="99.251587"
           cy="17.548285"
           r="6.5098472"
           inkscape:label="path2" />
        <g
           id="sun-beam">
          <path
             style="fill:#ffc221;fill-opacity:1;stroke:#ffc221;stroke-width:1.32292;stroke-linecap:round;stroke-linejoin:round;stroke-dasharray:none;stroke-opacity:1"
             d="m 86.59265,17.548283 c 4.151207,0 4.151207,0 4.151207,0"
             id="path3" />
          <path
             style="fill:#ffc221;fill-opacity:1;stroke:#ffc221;stroke-width:1.32292;stroke-linecap:round;stroke-linejoin:round;stroke-dasharray:none;stroke-opacity:1"
             d="m 92.922118,28.511244 c 2.075603,-3.59505 2.075603,-3.59505 2.075603,-3.59505"
             id="path3-2" />
          <path
             style="fill:#ffc221;fill-opacity:1;stroke:#ffc221;stroke-width:1.32292;stroke-linecap:round;stroke-linejoin:round;stroke-dasharray:none;stroke-opacity:1"
             d="m 105.58105,28.511245 c -2.0756,-3.59505 -2.0756,-3.59505 -2.0756,-3.59505"
             id="path3-5" />
          <path
             style="fill:#ffc221;fill-opacity:1;stroke:#ffc221;stroke-width:1.32292;stroke-linecap:round;stroke-linejoin:round;stroke-dasharray:none;stroke-opacity:1"
             d="m 92.92212,6.5853234 c 2.075603,3.5950506 2.075603,3.5950506 2.075603,3.5950506"
             id="path3-3" />
          <path
             style="fill:#ffc221;fill-opacity:1;stroke:#ffc221;stroke-width:1.32292;stroke-linecap:round;stroke-linejoin:round;stroke-dasharray:none;stroke-opacity:1"
             d="m 105.58105,6.5853234 c -2.0756,3.5950506 -2.0756,3.5950506 -2.0756,3.5950506"
             id="path3-4" />
          <path
             style="fill:#ffc221;fill-opacity:1;stroke:#ffc221;stroke-width:1.32292;stroke-linecap:round;stroke-linejoin:round;stroke-dasharray:none;stroke-opacity:1"
             d="m 111.91052,17.548284 c -4.1512,0 -4.1512,0 -4.1512,0"
             id="path3-0" />
        </g>
      </g>
      <path
         d="m 88.779268,34.607008 c 0.09183,-0.48812 0.139722,-0.991756 0.139722,-1.506791 0,-4.427077 -3.542994,-8.015956 -7.913558,-8.015956 -2.674122,0 -5.03852,1.343556 -6.470913,3.400688 -1.375317,-1.169496 -3.14906,-1.87383 -5.085127,-1.87383 -4.328627,0 -7.845486,3.520264 -7.912562,7.888662 h -9.96e-4 c -4.856131,0 -8.792735,3.987544 -8.792735,8.90664 0,4.919037 3.936604,8.90664 8.792735,8.90664 h 25.875835 c 4.85603,0 8.792682,-3.987603 8.792682,-8.90664 0,-4.447818 -3.218486,-8.133929 -7.425063,-8.799413 z"
         fill="#ffffff"
         id="sun-glasses"
         style="stroke-width:0.523629" />
      <g
         id="sun-face">
        <g
           id="g5">
          <rect
             style="fill:#000000;fill-opacity:1;stroke:#000000;stroke-width:1.0529;stroke-linecap:round;stroke-linejoin:round;stroke-dasharray:none;stroke-opacity:1"
             id="rect4"
             width="7.1572466"
             height="2.702888"
             x="64.244194"
             y="40.444775" />
          <rect
             style="fill:#000000;fill-opacity:1;stroke:#000000;stroke-width:1.0529;stroke-linecap:round;stroke-linejoin:round;stroke-dasharray:none;stroke-opacity:1"
             id="rect4-7"
             width="7.1572466"
             height="2.702888"
             x="74.302475"
             y="40.444775" />
          <path
             style="fill:#000000;fill-opacity:1;stroke:#000000;stroke-width:0.79375;stroke-linecap:round;stroke-linejoin:round;stroke-dasharray:none;stroke-opacity:1"
             d="M 71.282223,41.82869 H 74.91805"
             id="path4" />
        </g>
        <path
           style="fill:none;fill-opacity:1;stroke:#000000;stroke-width:0.79375;stroke-linecap:round;stroke-linejoin:round;stroke-dasharray:none;stroke-opacity:1"
           d="m 72.427111,45.5774 c 0,0 0.910577,0.447255 1.731662,0.03188 0.821083,-0.415377 0.715621,-1.108675 0.715621,-1.108675"
           id="path5" />
      </g>
      <path
         sodipodi:type="star"
         style="fill:#e9f600;fill-opacity:1;stroke:#f2ff12;stroke-width:0.79375;stroke-linecap:round;stroke-linejoin:round;stroke-dasharray:none;stroke-opacity:1"
         id="glasses-spark"
         inkscape:flatsided="false"
         sodipodi:sides="4"
         sodipodi:cx="10.849745"
         sodipodi:cy="19.057814"
         sodipodi:r1="3.2271163"
         sodipodi:r2="1.0271848"
         sodipodi:arg1="0.90975316"
         sodipodi:arg2="1.7023399"
         inkscape:rounded="0"
         inkscape:randomized="0"
         d="m 12.831003,21.605145 -2.115988,-1.529021 -2.4126017,0.962947 1.5290209,-2.115988 -0.9629472,-2.412601 2.115988,1.529021 2.412601,-0.962947 -1.529021,2.115988 z"
         inkscape:transform-center-x="-0.033173385"
         inkscape:transform-center-y="-0.20352452"
         transform="matrix(0.71086007,0.20352098,-0.20352098,0.71086007,77.91754,24.22018)" />
    </g>
  </g>
</svg>
