<?xml version="1.0" encoding="UTF-8" standalone="no"?>
<!-- Created with Inkscape (http://www.inkscape.org/) -->

<svg
   width="210mm"
   height="297mm"
   viewBox="0 0 210 297"
   version="1.1"
   id="svg1"
   inkscape:version="1.3.2 (091e20e, 2023-11-25, custom)"
   sodipodi:docname="thunder-cloud.svg"
   xmlns:inkscape="http://www.inkscape.org/namespaces/inkscape"
   xmlns:sodipodi="http://sodipodi.sourceforge.net/DTD/sodipodi-0.dtd"
   xmlns="http://www.w3.org/2000/svg"
   xmlns:svg="http://www.w3.org/2000/svg">
  <sodipodi:namedview
     id="namedview1"
     pagecolor="#505050"
     bordercolor="#eeeeee"
     borderopacity="1"
     inkscape:showpageshadow="0"
     inkscape:pageopacity="0"
     inkscape:pagecheckerboard="0"
     inkscape:deskcolor="#505050"
     inkscape:document-units="mm"
     inkscape:zoom="0.70110129"
     inkscape:cx="210.3833"
     inkscape:cy="334.47378"
     inkscape:window-width="1254"
     inkscape:window-height="643"
     inkscape:window-x="-6"
     inkscape:window-y="-6"
     inkscape:window-maximized="1"
     inkscape:current-layer="layer1" />
  <defs
     id="defs1" />
  <g
     inkscape:label="Layer 1"
     inkscape:groupmode="layer"
     id="layer1">
    <path
       d="m 87.087871,34.607008 c 0.09183,-0.48812 0.139722,-0.991756 0.139722,-1.506791 0,-4.427077 -3.542994,-8.015956 -7.913558,-8.015956 -2.674122,0 -5.03852,1.343556 -6.470913,3.400688 -1.375317,-1.169496 -3.14906,-1.87383 -5.085127,-1.87383 -4.328627,0 -7.845486,3.520264 -7.912562,7.888662 h -9.96e-4 c -4.856131,0 -8.792735,3.987544 -8.792735,8.90664 0,4.919037 3.936604,8.90664 8.792735,8.90664 h 25.875835 c 4.85603,0 8.792682,-3.987603 8.792682,-8.90664 0,-4.447818 -3.218486,-8.133929 -7.425063,-8.799413 z"
       fill="#ffffff"
       id="path1"
       style="stroke-width:0.523629" />
  </g>
</svg>
