<?xml version="1.0" encoding="UTF-8"?>
<!-- Created with Inkscape (http://www.inkscape.org/) -->
<svg width="9.0594mm" height="3.0211mm" version="1.1" viewBox="0 0 9.0594 3.0211" xmlns="http://www.w3.org/2000/svg">
 <path d="m0.841 1.78s2.6693 1.3323 3.9319 1.2388c2.8542-0.2114 4.287-1.6411 4.287-1.6411-0.95727-0.57706-1.6822-1.3843-3.0481-1.3752-1.3796 9e-3 -2.2172 0.86062-3.4437 1.383-0.56187 0.2393-1.7271 0.39444-1.7271 0.39444z" fill="#9afd3a" stroke-width=".61097"/>
 <path d="m9.063 1.38s-3.1221 0.6606-5.4505 0.48546c-2.3735-0.17845-2.9283-0.32889-3.268-0.3576-0.40712-0.0344-0.46413 0.37987-0.09225 0.39985 0.91244 0.049 1.7931 0.0567 3.4836 0.0959 2.5391 0.059 5.3271-0.62371 5.3271-0.62371z" fill="#9a563a" stroke-width="1.7602"/>
</svg>
