<?xml version="1.0" encoding="UTF-8" standalone="no"?>
<!-- Created with Inkscape (http://www.inkscape.org/) -->

<svg
   width="68.801559mm"
   height="19.74386mm"
   viewBox="0 0 68.80156 19.74386"
   version="1.1"
   id="svg1909"
   inkscape:version="1.1.1 (3bf5ae0d25, 2021-09-20)"
   sodipodi:docname="windy.svg"
   xmlns:inkscape="http://www.inkscape.org/namespaces/inkscape"
   xmlns:sodipodi="http://sodipodi.sourceforge.net/DTD/sodipodi-0.dtd"
   xmlns="http://www.w3.org/2000/svg"
   xmlns:svg="http://www.w3.org/2000/svg">
  <sodipodi:namedview
     id="namedview1911"
     pagecolor="#ffffff"
     bordercolor="#666666"
     borderopacity="1.0"
     inkscape:pageshadow="2"
     inkscape:pageopacity="0.0"
     inkscape:pagecheckerboard="0"
     inkscape:document-units="mm"
     showgrid="false"
     units="mm"
     inkscape:zoom="1.9981322"
     inkscape:cx="157.89746"
     inkscape:cy="-8.257712"
     inkscape:window-width="1920"
     inkscape:window-height="1017"
     inkscape:window-x="-8"
     inkscape:window-y="-8"
     inkscape:window-maximized="1"
     inkscape:current-layer="g12123" />
  <defs
     id="defs1906" />
  <g
     inkscape:label="Layer 1"
     inkscape:groupmode="layer"
     id="layer1"
     transform="translate(-8.2028686,-13.668246)">
    <g
       id="g12123">
      <g
         id="wind-paths">
        <path
           style="fill:none;stroke:#03f8a1;stroke-width:1.32292;stroke-linecap:round;stroke-linejoin:round;stroke-miterlimit:4;stroke-dasharray:none;stroke-opacity:1"
           d="m 16.848302,24.18635 c 0,0 11.888364,2.069728 26.216712,0.07678 2.844687,-0.395671 6.109629,-1.431519 6.257121,-3.837942 0.09782,-1.595981 -0.835167,-3.046021 -2.986273,-3.016424 -2.151384,0.0296 -2.901813,1.668496 -2.826479,3.09228 0.120315,2.273911 3.089459,2.997057 4.904215,3.523281 8.905763,2.582401 27.425981,0.08552 27.425981,0.08552"
           id="path7002-1"
           sodipodi:nodetypes="csssssc" />
        <path
           style="fill:none;stroke:#03f8a1;stroke-width:1.32292;stroke-linecap:round;stroke-linejoin:round;stroke-miterlimit:4;stroke-dasharray:none;stroke-opacity:1"
           d="m 16.579842,29.05349 c 0,0 6.000823,4.119465 17.460916,3.661674 11.356145,-0.453639 12.239067,-2.847708 22.657161,-2.80104 9.082874,0.04069 19.645046,2.564381 19.645046,2.564381"
           id="path21510"
           sodipodi:nodetypes="cssc" />
        <path
           style="fill:none;stroke:#03f8a1;stroke-width:1.32292;stroke-linecap:round;stroke-linejoin:miter;stroke-miterlimit:4;stroke-dasharray:none;stroke-opacity:1"
           d="m 16.643922,18.00721 c 0,0 9.379672,-5.418633 35.595859,-3.100986 9.603545,0.849004 23.100817,5.357774 23.100817,5.357774"
           id="path21820"
           sodipodi:nodetypes="csc" />
      </g>
      <g
         id="leaves">
        <path
           style="fill:#9afd3a;fill-opacity:1;stroke:none;stroke-width:0.0585094px;stroke-linecap:butt;stroke-linejoin:miter;stroke-opacity:1"
           d="m 8.2028686,23.9639 c 0,0 4.3689314,2.180725 6.4355664,2.027644 4.671383,-0.346024 7.016617,-2.68597 7.016617,-2.68597 -1.566808,-0.94451 -2.753367,-2.265663 -4.988974,-2.250904 -2.258016,0.0149 -3.62899,1.40865 -5.636411,2.263626 C 10.110041,23.709971 8.2028686,23.9639 8.2028686,23.9639 Z"
           id="path857"
           sodipodi:nodetypes="cscssc" />
        <path
           style="fill:#9afd3a;fill-opacity:1;stroke:none;stroke-width:0.0475311px;stroke-linecap:butt;stroke-linejoin:miter;stroke-opacity:1"
           d="m 10.423061,19.034041 c 0,0 2.837642,0.620515 4.574813,0.500331 3.926669,-0.271663 5.898025,-2.108756 5.898025,-2.108756 -1.317027,-0.741535 -3.869847,-2.031445 -5.891041,-1.689216 -1.897187,0.321232 -3.18722,1.297246 -4.581797,3.297641 z"
           id="path857-6"
           sodipodi:nodetypes="cscac" />
        <path
           style="fill:#9afd3a;fill-opacity:1;stroke:none;stroke-width:0.0585094px;stroke-linecap:butt;stroke-linejoin:miter;stroke-opacity:1"
           d="m 15.45857,30.930621 c 2.049694,-0.111945 5.775996,-1.960324 5.775996,-1.960324 -1.566808,-0.94451 -3.081078,-1.891136 -5.316685,-1.876377 -6.1914043,0.240728 -6.8382142,3.250536 -0.459311,3.836701 z"
           id="path857-0"
           sodipodi:nodetypes="cccc" />
      </g>
    </g>
  </g>
</svg>
