<?xml version="1.0" encoding="UTF-8" standalone="no"?>
<!-- Created with Inkscape (http://www.inkscape.org/) -->

<svg
   width="31.430258mm"
   height="19.094166mm"
   viewBox="0 0 31.430258 19.094166"
   version="1.1"
   id="svg1909"
   inkscape:version="1.1.1 (3bf5ae0d25, 2021-09-20)"
   sodipodi:docname="windy.svg"
   xmlns:inkscape="http://www.inkscape.org/namespaces/inkscape"
   xmlns:sodipodi="http://sodipodi.sourceforge.net/DTD/sodipodi-0.dtd"
   xmlns="http://www.w3.org/2000/svg"
   xmlns:svg="http://www.w3.org/2000/svg">
  <sodipodi:namedview
     id="namedview1911"
     pagecolor="#ffffff"
     bordercolor="#666666"
     borderopacity="1.0"
     inkscape:pageshadow="2"
     inkscape:pageopacity="0.0"
     inkscape:pagecheckerboard="0"
     inkscape:document-units="mm"
     showgrid="false"
     units="mm"
     inkscape:zoom="2.8257856"
     inkscape:cx="80.375369"
     inkscape:cy="27.116347"
     inkscape:window-width="1920"
     inkscape:window-height="1017"
     inkscape:window-x="-8"
     inkscape:window-y="-8"
     inkscape:window-maximized="1"
     inkscape:current-layer="g12123" />
  <defs
     id="defs1906" />
  <g
     inkscape:label="Layer 1"
     inkscape:groupmode="layer"
     id="layer1"
     transform="translate(-15.725688,-14.350981)">
    <g
       id="g12123">
      <g
         id="wind-path">
        <path
           style="fill:none;stroke:#03f8a1;stroke-width:1.32292;stroke-linecap:round;stroke-linejoin:round;stroke-miterlimit:4;stroke-dasharray:none;stroke-opacity:1"
           d="m 16.848302,24.18635 c 0,0 11.888364,2.069728 26.216712,0.07678 2.844687,-0.395671 6.109629,-1.431519 6.257121,-3.837942 0.09782,-1.595981 -0.835167,-3.046021 -2.986273,-3.016424 -2.151384,0.0296 -2.901813,1.668496 -2.826479,3.09228 0.120315,2.273911 3.089459,2.997057 4.904215,3.523281 8.905763,2.582401 27.425981,0.08552 27.425981,0.08552"
           id="path7002-1"
           sodipodi:nodetypes="csssssc" />
        <path
           style="fill:none;stroke:#03f8a1;stroke-width:1.32292;stroke-linecap:round;stroke-linejoin:round;stroke-miterlimit:4;stroke-dasharray:none;stroke-opacity:1"
           d="m 16.579842,29.05349 c 0,0 6.000823,4.119465 17.460916,3.661674 11.356145,-0.453639 12.239067,-2.847708 22.657161,-2.80104 9.082874,0.04069 19.645046,2.564381 19.645046,2.564381"
           id="path21510"
           sodipodi:nodetypes="cssc" />
        <path
           style="fill:none;stroke:#03f8a1;stroke-width:1.32292;stroke-linecap:round;stroke-linejoin:miter;stroke-miterlimit:4;stroke-dasharray:none;stroke-opacity:1"
           d="m 16.643922,18.00721 c 0,0 9.379672,-5.418633 35.595859,-3.100986 9.603545,0.849004 23.100817,5.357774 23.100817,5.357774"
           id="path21820"
           sodipodi:nodetypes="csc" />
      </g>
      <g
         id="leaves">
        <path
           style="fill:#77eb1b;fill-opacity:1;stroke:none;stroke-width:0.0463079px;stroke-linecap:butt;stroke-linejoin:miter;stroke-opacity:1"
           d="m 9.907225,24.1394 c 0,0 3.457835,1.725957 5.093493,1.604799 3.697213,-0.273863 5.553373,-2.125838 5.553373,-2.125838 -1.240066,-0.747542 -2.17918,-1.793181 -3.948574,-1.7815 -1.78713,0.0118 -2.8722,1.11489 -4.460994,1.791569 -0.727848,0.309996 -2.237298,0.51097 -2.237298,0.51097 z"
           id="path857"
           sodipodi:nodetypes="cscssc" />
        <path
           style="fill:#77eb1b;fill-opacity:1;stroke:none;stroke-width:0.0463079px;stroke-linecap:butt;stroke-linejoin:miter;stroke-opacity:1"
           d="m 9.907225,20.125113 c 0,0 3.457835,1.725957 5.093493,1.604799 3.697213,-0.273863 5.553373,-2.125838 5.553373,-2.125838 -1.240066,-0.747542 -2.17918,-1.793181 -3.948574,-1.7815 -1.78713,0.0118 -2.8722,1.11489 -4.460994,1.791569 -0.727848,0.309996 -2.237298,0.51097 -2.237298,0.51097 z"
           id="path857-9"
           sodipodi:nodetypes="cscssc" />
        <path
           style="fill:#77eb1b;fill-opacity:1;stroke:none;stroke-width:0.0463079px;stroke-linecap:butt;stroke-linejoin:miter;stroke-opacity:1"
           d="m 10.008733,29.565562 c 0,0 3.457835,1.725957 5.093493,1.604799 3.697213,-0.273863 5.553373,-2.125838 5.553373,-2.125838 -1.240066,-0.747542 -2.17918,-1.793181 -3.948574,-1.7815 -1.78713,0.0118 -2.8722,1.11489 -4.460994,1.791569 -0.727848,0.309996 -2.237298,0.51097 -2.237298,0.51097 z"
           id="path857-96"
           sodipodi:nodetypes="cscssc" />
        <path
           style="fill:#77eb1b;fill-opacity:1;stroke:none;stroke-width:0.0463079px;stroke-linecap:butt;stroke-linejoin:miter;stroke-opacity:1"
           d="m 9.907225,16.004902 c 0,0 3.457835,1.725957 5.093493,1.604799 3.697213,-0.273863 5.553373,-2.125838 5.553373,-2.125838 -1.240066,-0.747542 -2.17918,-1.793181 -3.948574,-1.7815 -1.78713,0.0118 -2.8722,1.11489 -4.460994,1.791569 -0.727848,0.309996 -2.237298,0.51097 -2.237298,0.51097 z"
           id="path857-96-7"
           sodipodi:nodetypes="cscssc"
           inkscape:transform-center-x="-2.1400663"
           inkscape:transform-center-y="2.7259463" />
      </g>
    </g>
  </g>
</svg>
