<svg width="405" height="405" viewBox="0 0 405 405" fill="none" xmlns="http://www.w3.org/2000/svg">
<g clip-path="url(#clip0_1_2)">
<circle cx="202.5" cy="202.5" r="202.5" fill="#FAE62D" fill-opacity="0.13"/>
<circle cx="204.5" cy="202.5" r="177.5" fill="#FAE62D" fill-opacity="0.13"/>
<path d="M23.656 193.359C18.3315 191.892 12.8261 195.019 11.3592 200.344C9.89229 205.668 13.0195 211.174 18.344 212.641L23.656 193.359ZM67.8989 205.548L23.656 193.359L18.344 212.641L62.5869 224.83L67.8989 205.548Z" fill="#3B1212"/>
<path d="M21.9439 116.951C21.3596 111.459 16.434 107.48 10.9421 108.065C5.45028 108.649 1.47187 113.574 2.05611 119.066L21.9439 116.951ZM17 165.008L26.9478 163.988L26.9459 163.969L26.9439 163.951L17 165.008ZM30.9478 202.988L26.9478 163.988L7.05219 166.029L11.0522 205.029L30.9478 202.988ZM26.9439 163.951L21.9439 116.951L2.05611 119.066L7.05611 166.066L26.9439 163.951Z" fill="#3B1212"/>
<ellipse cx="202.5" cy="202" rx="148.5" ry="150" fill="#FCC000"/>
<mask id="mask0_1_2" style="mask-type:alpha" maskUnits="userSpaceOnUse" x="65" y="66" width="275" height="275">
<circle cx="202.5" cy="203.5" r="137.5" fill="#D9D9D9"/>
</mask>
<g mask="url(#mask0_1_2)">
<rect x="47" y="32" width="712" height="345" fill="#FAE62D"/>
<circle cx="253.5" cy="72.5" r="6.5" fill="#FCC000"/>
<circle cx="264.5" cy="307.5" r="12.5" fill="#FCC000"/>
<circle cx="146" cy="269" r="31" fill="#FCC000"/>
<circle cx="100" cy="145" r="15" fill="#FCC000"/>
<circle cx="287" cy="191" r="13" fill="#FCC000"/>
<circle cx="251.5" cy="329.5" r="21.5" fill="#FCC000"/>
</g>
<mask id="mask1_1_2" style="mask-type:alpha" maskUnits="userSpaceOnUse" x="65" y="66" width="275" height="275">
<circle cx="202.5" cy="203.5" r="137.5" fill="#D9D9D9"/>
</mask>
<g mask="url(#mask1_1_2)">
<rect x="47" y="32" width="712" height="345" fill="#FAE62D"/>
<circle cx="253.5" cy="72.5" r="6.5" fill="#FCC000"/>
<circle cx="264.5" cy="307.5" r="12.5" fill="#FCC000"/>
<circle cx="146" cy="269" r="31" fill="#FCC000"/>
<circle cx="100" cy="145" r="15" fill="#FCC000"/>
<circle cx="287" cy="191" r="13" fill="#FCC000"/>
<circle cx="251.5" cy="329.5" r="21.5" fill="#FCC000"/>
</g>
<circle cx="158" cy="189" r="13" fill="#3C1212"/>
<circle cx="246" cy="189" r="13" fill="#3C1212"/>
<circle cx="158" cy="216" r="13" fill="#FAE62D"/>
<circle cx="246" cy="216" r="13" fill="#FAE62D"/>
<path d="M187 202C187 202 188.24 214 204.354 214C220.469 214 221 202 221 202" stroke="#3B1212" stroke-width="10" stroke-linecap="round"/>
</g>
<defs>
<clipPath id="clip0_1_2">
<rect width="405" height="405" fill="white"/>
</clipPath>
</defs>
</svg>
