<svg width="200" height="46" viewBox="0 0 200 46" fill="none" xmlns="http://www.w3.org/2000/svg">
<path d="M162.465 1.98724C170.622 3.62271 177.636 5.55563 183.304 7.7041C188.978 9.8553 193.271 12.2108 196.012 14.6756C198.75 17.1376 199.807 19.5824 199.424 21.9366C199.035 24.3221 197.144 26.7894 193.569 29.2186C186.425 34.0726 173.281 38.2841 155.931 41.2169C138.601 44.1464 118.017 45.6419 97.0895 45.4894C76.1618 45.3369 55.9631 43.5441 39.349 40.3679C22.7072 37.1864 10.5901 32.793 4.61624 27.8649C1.63721 25.4074 0.348202 22.9538 0.51425 20.5952C0.681301 18.2223 2.33185 15.7586 5.67302 13.3156C12.3558 8.42919 25.0994 4.14379 42.1755 1.11123" stroke="black"/>
</svg>
