<?xml version="1.0" encoding="UTF-8" standalone="no"?>
<svg
   width="79"
   height="36"
   viewBox="0 0 79 36"
   fill="none"
   version="1.1"
   id="svg3"
   sodipodi:docname="cloud3.svg"
   inkscape:version="1.3 (0e150ed6c4, 2023-07-21)"
   xmlns:inkscape="http://www.inkscape.org/namespaces/inkscape"
   xmlns:sodipodi="http://sodipodi.sourceforge.net/DTD/sodipodi-0.dtd"
   xmlns="http://www.w3.org/2000/svg"
   xmlns:svg="http://www.w3.org/2000/svg">
  <defs
     id="defs3" />
  <sodipodi:namedview
     id="namedview3"
     pagecolor="#505050"
     bordercolor="#eeeeee"
     borderopacity="1"
     inkscape:showpageshadow="0"
     inkscape:pageopacity="0"
     inkscape:pagecheckerboard="0"
     inkscape:deskcolor="#505050"
     inkscape:zoom="16.653846"
     inkscape:cx="39.48037"
     inkscape:cy="17.983834"
     inkscape:window-width="1920"
     inkscape:window-height="1057"
     inkscape:window-x="1912"
     inkscape:window-y="-8"
     inkscape:window-maximized="1"
     inkscape:current-layer="svg3" />
  <mask
     id="path-1-inside-1_3_27"
     fill="#ffffff">
    <path
       fill-rule="evenodd"
       clip-rule="evenodd"
       d="M 8,0 C 3.58172,0 0,3.58172 0,8 v 19 c 0,4.4183 3.58172,8 8,8 h 14 33 15 c 4.4183,0 8,-3.5817 8,-8 V 14 C 78,9.58172 74.4183,6 70,6 H 62.748 C 61.8599,2.54955 58.7277,0 55,0 Z"
       id="path1" />
  </mask>
  <path
     fill-rule="evenodd"
     clip-rule="evenodd"
     d="m 8.5,0.5 c -4.41828,0 -8,3.58172 -8,8 v 19 c 0,4.4183 3.58172,8 8,8 h 14 33 15 c 4.4183,0 8,-3.5817 8,-8 v -13 c 0,-4.41828 -3.5817,-8 -8,-8 H 63.248 C 62.3599,3.04955 59.2277,0.5 55.5,0.5 Z"
     fill="#ffffff"
     id="path2"
     style="stroke:#000000;stroke-opacity:1" />
</svg>
