<?xml version="1.0" encoding="UTF-8" standalone="no"?>
<svg
   width="170.1821"
   height="106.33484"
   viewBox="0 0 400 249.9319"
   fill="none"
   version="1.1"
   id="svg3"
   sodipodi:docname="cloud1.svg"
   inkscape:version="1.3 (0e150ed6c4, 2023-07-21)"
   xmlns:inkscape="http://www.inkscape.org/namespaces/inkscape"
   xmlns:sodipodi="http://sodipodi.sourceforge.net/DTD/sodipodi-0.dtd"
   xmlns="http://www.w3.org/2000/svg"
   xmlns:svg="http://www.w3.org/2000/svg">
  <defs
     id="defs3" />
  <sodipodi:namedview
     id="namedview3"
     pagecolor="#505050"
     bordercolor="#eeeeee"
     borderopacity="1"
     inkscape:showpageshadow="0"
     inkscape:pageopacity="0"
     inkscape:pagecheckerboard="0"
     inkscape:deskcolor="#505050"
     inkscape:zoom="1.4243421"
     inkscape:cx="-57.921478"
     inkscape:cy="24.923788"
     inkscape:window-width="1920"
     inkscape:window-height="1057"
     inkscape:window-x="1912"
     inkscape:window-y="-8"
     inkscape:window-maximized="1"
     inkscape:current-layer="svg3" />
  <mask
     id="path-1-inside-1_9_33"
     fill="#ffffff">
    <path
       fill-rule="evenodd"
       clip-rule="evenodd"
       d="m 24.4286,5.6 c 0,-3.09279 2.6514,-5.6 5.922,-5.6 h 59.2208 c 3.2707,0 5.9221,2.50721 5.9221,5.6 v 19.6 h 12.5845 c 3.271,0 5.922,2.5072 5.922,5.6 v 19.6 c 0,3.0928 -2.651,5.6 -5.922,5.6 H 42.1948 c -3.2707,0 -5.9221,-2.5072 -5.9221,-5.6 V 46.9 H 5.92208 C 2.6514,46.9 0,44.3928 0,41.3 V 18.9 C 0,15.8072 2.6514,13.3 5.92208,13.3 H 24.4286 Z"
       id="path1" />
  </mask>
  <path
     fill-rule="evenodd"
     clip-rule="evenodd"
     d="M 85.238587,24.774079 C 85.238587,11.091753 94.490104,0 105.90219,0 h 206.63883 c 11.41243,0 20.66394,11.091753 20.66394,24.774079 V 111.48335 H 377.116 c 11.4135,0 20.66361,11.09171 20.66361,24.77408 v 86.70927 c 0,13.68237 -9.25011,24.77409 -20.66361,24.77409 H 147.23009 c -11.41243,0 -20.66395,-11.09172 -20.66395,-24.77409 V 207.4829 H 20.663883 C 9.2515165,207.4829 0,196.39119 0,182.70883 V 83.612511 C 0,69.930143 9.2515165,58.838434 20.663883,58.838434 h 64.574704 z"
     fill="#f1f1f1"
     id="path2"
     style="stroke-width:3.92892" />
  <path
     d="m 95.4935,25.2 h -1 v 1 h 1 z M 36.2727,46.9 h 1 v -1 h -1 z M 24.4286,13.3 v 1 h 1 v -1 z M 30.3506,-1 c -3.7695,0 -6.922,2.90297 -6.922,6.6 h 2 c 0,-2.48856 2.1502,-4.6 4.922,-4.6 z m 59.2208,0 H 30.3506 v 2 h 59.2208 z m 6.9221,6.6 c 0,-3.69703 -3.1525,-6.6 -6.9221,-6.6 v 2 c 2.7718,0 4.9221,2.11144 4.9221,4.6 z m 0,19.6 V 5.6 h -2 v 19.6 z m -1,1 h 12.5845 v -2 H 95.4935 Z m 12.5845,0 c 2.772,0 4.922,2.1114 4.922,4.6 h 2 c 0,-3.697 -3.153,-6.6 -6.922,-6.6 z M 113,30.8 v 19.6 h 2 V 30.8 Z m 0,19.6 c 0,2.4886 -2.15,4.6 -4.922,4.6 v 2 C 111.847,57 115,54.097 115,50.4 Z M 108.078,55 H 42.1948 v 2 h 65.8832 z m -65.8832,0 c -2.7718,0 -4.9221,-2.1114 -4.9221,-4.6 h -2 c 0,3.697 3.1526,6.6 6.9221,6.6 z m -4.9221,-4.6 v -3.5 h -2 v 3.5 z M 5.92208,47.9 H 36.2727 v -2 H 5.92208 Z M -1,41.3 c 0,3.697 3.15254,6.6 6.92208,6.6 v -2 C 3.15026,45.9 1,43.7886 1,41.3 Z M -1,18.9 V 41.3 H 1 V 18.9 Z M 5.92208,12.3 C 2.15254,12.3 -1,15.203 -1,18.9 h 2 c 0,-2.4886 2.15027,-4.6 4.92208,-4.6 z m 18.50652,0 H 5.92208 v 2 H 24.4286 Z m -1,-6.7 v 7.7 h 2 V 5.6 Z"
     fill="#000000"
     mask="url(#path-1-inside-1_9_33)"
     id="path3"
     transform="scale(3.4892948,4.4239424)" />
</svg>
