<?xml version="1.0" encoding="UTF-8" standalone="no"?>
<svg
   width="99"
   height="43"
   viewBox="0 0 99 43"
   fill="none"
   version="1.1"
   id="svg3"
   sodipodi:docname="cloud10.svg"
   inkscape:version="1.3 (0e150ed6c4, 2023-07-21)"
   xmlns:inkscape="http://www.inkscape.org/namespaces/inkscape"
   xmlns:sodipodi="http://sodipodi.sourceforge.net/DTD/sodipodi-0.dtd"
   xmlns="http://www.w3.org/2000/svg"
   xmlns:svg="http://www.w3.org/2000/svg">
  <defs
     id="defs3" />
  <sodipodi:namedview
     id="namedview3"
     pagecolor="#505050"
     bordercolor="#eeeeee"
     borderopacity="1"
     inkscape:showpageshadow="0"
     inkscape:pageopacity="0"
     inkscape:pagecheckerboard="0"
     inkscape:deskcolor="#505050"
     inkscape:zoom="13.255102"
     inkscape:cx="49.528099"
     inkscape:cy="21.538876"
     inkscape:window-width="1920"
     inkscape:window-height="1057"
     inkscape:window-x="1912"
     inkscape:window-y="-8"
     inkscape:window-maximized="1"
     inkscape:current-layer="svg3" />
  <mask
     id="path-1-inside-1_3_26"
     fill="#ffffff">
    <path
       fill-rule="evenodd"
       clip-rule="evenodd"
       d="M 8,0 C 3.58172,0 0,3.58172 0,8 v 19 c 0,4.4183 3.58172,8 8,8 h 26.0619 c 0.4921,3.9463 3.8585,7 7.9381,7 h 48 c 4.4183,0 8,-3.5817 8,-8 V 21 c 0,-4.4183 -3.5817,-8 -8,-8 H 63 V 8 C 63,3.58172 59.4183,0 55,0 Z"
       id="path1" />
  </mask>
  <path
     fill-rule="evenodd"
     clip-rule="evenodd"
     d="m 8.5,0.5 c -4.41828,0 -8,3.58172 -8,8 v 19 c 0,4.4183 3.58172,8 8,8 h 26.0619 c 0.4921,3.9463 3.8585,7 7.9381,7 h 48 c 4.4183,0 8,-3.5817 8,-8 v -13 c 0,-4.4183 -3.5817,-8 -8,-8 h -27 v -5 c 0,-4.41828 -3.5817,-8 -8,-8 z"
     fill="#ffffff"
     id="path2"
     style="stroke:#000000;stroke-opacity:1" />
</svg>
