<?xml version="1.0" encoding="UTF-8" standalone="no"?>
<svg
   width="115"
   height="57"
   viewBox="0 0 115 57"
   fill="none"
   version="1.1"
   id="svg3"
   sodipodi:docname="cloud1.svg"
   inkscape:version="1.3 (0e150ed6c4, 2023-07-21)"
   inkscape:export-filename="cloud1.svg"
   inkscape:export-xdpi="96"
   inkscape:export-ydpi="96"
   xmlns:inkscape="http://www.inkscape.org/namespaces/inkscape"
   xmlns:sodipodi="http://sodipodi.sourceforge.net/DTD/sodipodi-0.dtd"
   xmlns="http://www.w3.org/2000/svg"
   xmlns:svg="http://www.w3.org/2000/svg">
  <defs
     id="defs3" />
  <sodipodi:namedview
     id="namedview3"
     pagecolor="#505050"
     bordercolor="#eeeeee"
     borderopacity="1"
     inkscape:showpageshadow="0"
     inkscape:pageopacity="0"
     inkscape:pagecheckerboard="0"
     inkscape:deskcolor="#505050"
     inkscape:zoom="11.394737"
     inkscape:cx="57.614318"
     inkscape:cy="28.565819"
     inkscape:window-width="1920"
     inkscape:window-height="1057"
     inkscape:window-x="1912"
     inkscape:window-y="-8"
     inkscape:window-maximized="1"
     inkscape:current-layer="svg3" />
  <mask
     id="path-1-inside-1_9_33"
     fill="#ffffff">
    <path
       fill-rule="evenodd"
       clip-rule="evenodd"
       d="m 24.4286,5.6 c 0,-3.09279 2.6514,-5.6 5.922,-5.6 h 59.2208 c 3.2707,0 5.9221,2.50721 5.9221,5.6 v 19.6 h 12.5845 c 3.271,0 5.922,2.5072 5.922,5.6 v 19.6 c 0,3.0928 -2.651,5.6 -5.922,5.6 H 42.1948 c -3.2707,0 -5.9221,-2.5072 -5.9221,-5.6 V 46.9 H 5.92208 C 2.6514,46.9 0,44.3928 0,41.3 V 18.9 C 0,15.8072 2.6514,13.3 5.92208,13.3 H 24.4286 Z"
       id="path1" />
  </mask>
  <path
     fill-rule="evenodd"
     clip-rule="evenodd"
     d="m 24.9286,6.1 c 0,-3.09279 2.6514,-5.6 5.922,-5.6 h 59.2208 c 3.2707,0 5.9221,2.50721 5.9221,5.6 v 19.6 h 12.5845 c 3.271,0 5.922,2.5072 5.922,5.6 v 19.6 c 0,3.0928 -2.651,5.6 -5.922,5.6 H 42.6948 c -3.2707,0 -5.9221,-2.5072 -5.9221,-5.6 V 47.4 H 6.42208 C 3.1514,47.4 0.5,44.8928 0.5,41.8 V 19.4 c 0,-3.0928 2.6514,-5.6 5.92208,-5.6 H 24.9286 Z"
     fill="#f1f1f1"
     id="path2"
     style="stroke:#000000;stroke-opacity:1" />
</svg>
