<?xml version="1.0" encoding="UTF-8" standalone="no"?>
<svg
   width="140"
   height="67"
   viewBox="0 0 140 67"
   fill="none"
   version="1.1"
   id="svg3"
   sodipodi:docname="cloud2.svg"
   inkscape:version="1.3 (0e150ed6c4, 2023-07-21)"
   xmlns:inkscape="http://www.inkscape.org/namespaces/inkscape"
   xmlns:sodipodi="http://sodipodi.sourceforge.net/DTD/sodipodi-0.dtd"
   xmlns="http://www.w3.org/2000/svg"
   xmlns:svg="http://www.w3.org/2000/svg">
  <defs
     id="defs3" />
  <sodipodi:namedview
     id="namedview3"
     pagecolor="#505050"
     bordercolor="#eeeeee"
     borderopacity="1"
     inkscape:showpageshadow="0"
     inkscape:pageopacity="0"
     inkscape:pagecheckerboard="0"
     inkscape:deskcolor="#505050"
     inkscape:zoom="9.3453237"
     inkscape:cx="70.035027"
     inkscape:cy="33.546189"
     inkscape:window-width="1920"
     inkscape:window-height="1057"
     inkscape:window-x="1912"
     inkscape:window-y="-8"
     inkscape:window-maximized="1"
     inkscape:current-layer="svg3" />
  <mask
     id="path-1-inside-1_3_43"
     fill="#ffffff">
    <path
       fill-rule="evenodd"
       clip-rule="evenodd"
       d="M 14.2564,8.00001 C 14.2564,3.58173 17.8381,0 22.2564,0 h 95.9126 c 4.419,0 8,3.58172 8,8 v 2.8706 H 131 c 4.418,0 8,3.5817 8,8 v 26.7059 c 0,4.4183 -3.582,8 -8,8 H 111.2 V 58 c 0,4.4183 -3.582,8 -8,8 H 8 C 3.58172,66 0,62.4183 0,58 V 35.1765 c 0,-4.4183 3.58172,-8 8,-8 h 6.2564 z"
       id="path1" />
  </mask>
  <path
     fill-rule="evenodd"
     clip-rule="evenodd"
     d="m 14.7564,8.50001 c 0,-4.41828 3.5817,-8.00001 8,-8.00001 h 95.9126 c 4.419,0 8,3.58172 8,8 v 2.8706 h 4.831 c 4.418,0 8,3.5817 8,8 v 26.7059 c 0,4.4183 -3.582,8 -8,8 H 111.7 V 58.5 c 0,4.4183 -3.582,8 -8,8 H 8.5 c -4.41828,0 -8,-3.5817 -8,-8 V 35.6765 c 0,-4.4183 3.58172,-8 8,-8 h 6.2564 z"
     fill="#ffffff"
     id="path2"
     style="stroke:#000000;stroke-opacity:1" />
</svg>
