<?xml version="1.0" encoding="iso-8859-1"?>
<!-- Uploaded to: SVG Repo, www.svgrepo.com, Generator: SVG Repo Mixer Tools -->
<svg height="800px" width="800px" version="1.1" id="Capa_1" xmlns="http://www.w3.org/2000/svg" xmlns:xlink="http://www.w3.org/1999/xlink" 
	 viewBox="0 0 470 470" xml:space="preserve">
<g>
	<polygon style="fill:#FFFFFF;" points="195.159,154.007 195.159,140.27 127.215,140.27 112.82,154.007 	"/>
	<path style="fill:#FFFFFF;" d="M188.77,311.642c-34.781,0-63.077-28.296-63.077-63.077c0-34.78,28.296-63.076,63.077-63.076h6.39
		v-16.481H97.102l-39.485,37.681c-11.581,11.054-17.959,25.926-17.959,41.877c0,77.963,73.123,141.391,163.002,141.391
		c63.578,0,118.738-31.927,145.432-78.313H188.77z"/>
	<path style="fill:#FCDB5A;" d="M93.453,99.17C86.977,93,81.98,85.352,78.943,76.813H50.836c-6.164,0-11.178,5.015-11.178,11.179
		S44.672,99.17,50.836,99.17H93.453z"/>
	<path style="fill:#87635C;" d="M382.265,200.488H188.77c-23.959,0-43.876,17.617-47.488,40.576h21.911c4.142,0,7.5,3.357,7.5,7.499
		h15c0-4.142,3.358-7.499,7.5-7.499h224.233h12.332C426.147,218.104,406.225,200.488,382.265,200.488z"/>
	<path style="fill:#FFE6B8;" d="M170.693,248.564c0,4.143-3.358,7.5-7.5,7.5h-21.911c3.612,22.96,23.529,40.577,47.488,40.577
		h166.742c5.327-12.776,8.596-26.403,9.452-40.577h-171.77c-4.142,0-7.5-3.357-7.5-7.5H170.693z"/>
	<path style="fill:#FFAD61;" d="M409.338,256.064h-29.349c-0.719,13.56-3.394,26.797-7.892,39.467
		C391.302,291.344,406.256,275.654,409.338,256.064z"/>
	<path style="fill:#5D734F;" d="M154.552,114.17h-22.847l0.003,11.1h63.451V57.502c0-23.436-19.066-42.502-42.502-42.502h-19.542
		c-22.666,0-41.243,17.835-42.439,40.208l14.688-11.673c1.327-1.055,2.972-1.629,4.667-1.629h14.18c4.142,0,7.5,3.357,7.5,7.5
		s-3.358,7.5-7.5,7.5h-11.563L93.262,72.313c5.01,13.518,16.715,23.914,31.48,26.856h29.81c4.142,0,7.5,3.357,7.5,7.5
		S158.695,114.17,154.552,114.17z"/>
	<path style="fill:#4D3D36;" d="M382.265,185.488H210.159V57.502C210.159,25.795,184.364,0,152.657,0h-19.542
		c-31.707,0-57.502,25.795-57.502,57.502c0,1.449,0.061,2.885,0.167,4.311H50.836c-14.435,0-26.178,11.744-26.178,26.179
		s11.744,26.179,26.178,26.179h65.87l0.004,15.391L47.26,195.836c-14.576,13.912-22.603,32.639-22.603,52.729
		c0,86.234,79.852,156.391,178.002,156.391c6.881,0,13.7-0.352,20.437-1.027L230.618,455h-75.945c-4.142,0-7.5,3.357-7.5,7.5
		s3.358,7.5,7.5,7.5h95.972c4.143,0,7.5-3.357,7.5-7.5s-3.357-7.5-7.5-7.5h-4.865l-7.822-53.117
		c33.834-5.97,64.946-20.512,89.924-42.396c16.008-14.024,28.595-30.267,37.411-47.947c30.681-1.66,55.605-25.336,59.19-55.476
		h13.359c4.143,0,7.5-3.357,7.5-7.5C445.343,213.784,417.047,185.488,382.265,185.488z M202.659,389.955
		c-89.879,0-163.002-63.428-163.002-141.391c0-15.951,6.378-30.823,17.959-41.877l39.485-37.681h98.058v16.481h-6.39
		c-34.781,0-63.077,28.296-63.077,63.076c0,34.781,28.296,63.077,63.077,63.077h159.322
		C321.397,358.029,266.238,389.955,202.659,389.955z M154.552,99.17h-29.81c-14.765-2.943-26.469-13.339-31.48-26.856l19.386-15.407
		h11.563c4.142,0,7.5-3.357,7.5-7.5s-3.358-7.5-7.5-7.5h-14.18c-1.695,0-3.34,0.574-4.667,1.629L90.677,55.208
		C91.873,32.835,110.449,15,133.115,15h19.542c23.436,0,42.502,19.066,42.502,42.502v67.768h-63.451l-0.003-11.1h22.847
		c4.142,0,7.5-3.357,7.5-7.5S158.695,99.17,154.552,99.17z M39.657,87.991c0-6.164,5.015-11.179,11.178-11.179h28.108
		C81.98,85.352,86.977,93,93.453,99.17H50.836C44.672,99.17,39.657,94.155,39.657,87.991z M127.215,140.27h67.945v13.737h-82.34
		L127.215,140.27z M379.989,256.064h29.349c-3.082,19.589-18.036,35.279-37.24,39.467
		C376.595,282.861,379.27,269.624,379.989,256.064z M417.427,241.064H193.193c-4.142,0-7.5,3.357-7.5,7.499
		c0,4.143,3.358,7.501,7.5,7.501h171.77c-0.856,14.174-4.125,27.801-9.452,40.577H188.77c-23.959,0-43.876-17.617-47.488-40.577
		h21.911c4.142,0,7.5-3.357,7.5-7.5c0-4.143-3.358-7.5-7.5-7.5h-21.911c3.612-22.959,23.529-40.576,47.488-40.576h193.496
		c23.96,0,43.882,17.615,47.493,40.576H417.427z"/>
</g>
</svg>