<?xml version="1.0" encoding="iso-8859-1"?>
<!-- Uploaded to: SVG Repo, www.svgrepo.com, Generator: SVG Repo Mixer Tools -->
<svg version="1.1" id="Layer_1" xmlns="http://www.w3.org/2000/svg" xmlns:xlink="http://www.w3.org/1999/xlink" 
	 viewBox="0 0 512 512" xml:space="preserve">
<rect x="10.449" y="89.903" style="fill:#0F8EE3;" width="148.376" height="411.648"/>
<polygon style="fill:#003A7F;" points="438.849,313.469 438.849,48.065 286.313,48.065 286.313,179.722 338.547,179.722 
	338.547,313.469 "/>
<polygon style="fill:#C2EDFF;" points="338.547,309.381 338.547,179.722 158.824,179.722 158.824,501.551 338.547,501.551 "/>
<g>
	<rect x="190.182" y="207.956" style="fill:#0F8EE3;" width="117.008" height="29.235"/>
	<rect x="190.182" y="272.98" style="fill:#0F8EE3;" width="117.008" height="29.235"/>
	<rect x="190.182" y="338.004" style="fill:#0F8EE3;" width="117.008" height="29.235"/>
	<rect x="190.182" y="403.028" style="fill:#0F8EE3;" width="117.008" height="29.235"/>
</g>
<rect x="288.392" y="313.469" style="fill:#FFFFFF;" width="213.159" height="188.082"/>
<g>
	<rect x="322.842" y="352.193" style="fill:#0F8EE3;" width="55.227" height="59.494"/>
	<rect x="421.648" y="352.193" style="fill:#0F8EE3;" width="55.227" height="59.494"/>
	<rect x="322.842" y="448.324" style="fill:#0F8EE3;" width="55.227" height="53.225"/>
	<rect x="421.648" y="448.324" style="fill:#0F8EE3;" width="55.227" height="53.225"/>
</g>
<path d="M501.551,303.02h-52.253V48.065c0-5.771-4.679-10.449-10.449-10.449H373.03V10.449C373.03,4.678,368.351,0,362.581,0
	s-10.449,4.678-10.449,10.449v27.167h-65.818c-5.77,0-10.449,4.678-10.449,10.449v121.208H169.273V89.905
	c0-5.771-4.679-10.449-10.449-10.449H10.449C4.679,79.456,0,84.134,0,89.905v411.646C0,507.322,4.679,512,10.449,512h491.102
	c5.77,0,10.449-4.678,10.449-10.449V313.469C512,307.698,507.321,303.02,501.551,303.02z M296.762,58.514H428.4V303.02h-79.404
	V179.722c0-5.771-4.679-10.449-10.449-10.449h-41.784V58.514z M20.898,477.518h57.321c5.77,0,10.449-4.678,10.449-10.449
	c0-5.771-4.679-10.449-10.449-10.449H20.898v-25.962h57.321c5.77,0,10.449-4.678,10.449-10.449c0-5.771-4.679-10.449-10.449-10.449
	H20.898v-25.962h57.321c5.77,0,10.449-4.678,10.449-10.449c0-5.771-4.679-10.449-10.449-10.449H20.898V336.94h57.321
	c5.77,0,10.449-4.678,10.449-10.449c0-5.771-4.679-10.449-10.449-10.449H20.898V290.08h57.321c5.77,0,10.449-4.678,10.449-10.449
	c0-5.771-4.679-10.449-10.449-10.449H20.898v-25.961h57.321c5.77,0,10.449-4.678,10.449-10.449s-4.679-10.449-10.449-10.449H20.898
	v-25.962h57.321c5.77,0,10.449-4.678,10.449-10.449s-4.679-10.449-10.449-10.449H20.898v-25.962h57.321
	c5.77,0,10.449-4.678,10.449-10.449s-4.679-10.449-10.449-10.449H20.898v-28.25h127.478v79.368v311.38H20.898V477.518z
	 M169.273,190.171h158.824V303.02h-39.706c-5.77,0-10.449,4.678-10.449,10.449v14.661h-87.76c-5.77,0-10.449,4.678-10.449,10.449
	v29.235c0,5.771,4.679,10.449,10.449,10.449h87.76v14.53h-87.544c-5.77,0-10.449,4.678-10.449,10.449v29.235
	c0,5.771,4.679,10.449,10.449,10.449h87.544v48.175H169.273V190.171z M277.943,357.366h-77.311v-8.337h77.311V357.366z
	 M277.943,422.03h-77.095v-8.337h77.095V422.03z M333.29,491.102v-35.437h35.57v35.437h-30.314H333.29z M467.047,491.102h-35.57
	v-35.437h35.57V491.102z M491.102,491.102h-3.157v-45.886c0-5.771-4.679-10.449-10.449-10.449h-56.468
	c-5.77,0-10.449,4.678-10.449,10.449v45.886h-20.822v-45.886c0-5.771-4.679-10.449-10.449-10.449H322.84
	c-5.77,0-10.449,4.678-10.449,10.449v45.886h-13.55V323.918h192.261V491.102z"/>
<path d="M379.309,341.747h-56.468c-5.77,0-10.449,4.678-10.449,10.449v56.511c0,5.771,4.679,10.449,10.449,10.449
	s10.449-4.678,10.449-10.449v-46.062h35.57v11.609c0,5.771,4.679,10.449,10.449,10.449s10.449-4.678,10.449-10.449v-22.058
	C389.758,346.425,385.079,341.747,379.309,341.747z"/>
<path d="M378.068,397.967c-5.77,0-10.449,4.678-10.449,10.449v0.292c0,5.771,4.679,10.449,10.449,10.449s10.449-4.678,10.449-10.449
	v-0.292C388.517,402.645,383.839,397.967,378.068,397.967z"/>
<path d="M410.58,352.196v56.511c0,5.771,4.679,10.449,10.449,10.449s10.449-4.678,10.449-10.449v-46.062h35.57v11.609
	c0,5.771,4.679,10.449,10.449,10.449s10.449-4.678,10.449-10.449v-22.058c0-5.771-4.679-10.449-10.449-10.449h-56.468
	C415.258,341.747,410.58,346.425,410.58,352.196z"/>
<path d="M476.256,397.967c-5.77,0-10.449,4.678-10.449,10.449v0.292c0,5.771,4.679,10.449,10.449,10.449s10.449-4.678,10.449-10.449
	v-0.292C486.705,402.645,482.026,397.967,476.256,397.967z"/>
<path d="M326.009,88.303c-5.77,0-10.449,4.678-10.449,10.449v16.718c0,5.771,4.679,10.449,10.449,10.449
	c5.77,0,10.449-4.678,10.449-10.449V98.752C336.458,92.981,331.779,88.303,326.009,88.303z"/>
<path d="M362.581,125.92c5.77,0,10.449-4.678,10.449-10.449V98.752c0-5.771-4.679-10.449-10.449-10.449s-10.449,4.678-10.449,10.449
	v16.718C352.132,121.242,356.811,125.92,362.581,125.92z"/>
<path d="M399.152,125.92c5.77,0,10.449-4.678,10.449-10.449V98.752c0-5.771-4.679-10.449-10.449-10.449
	c-5.77,0-10.449,4.678-10.449,10.449v16.718C388.703,121.242,393.382,125.92,399.152,125.92z"/>
<path d="M399.152,190.171c5.77,0,10.449-4.678,10.449-10.449v-16.718c0-5.771-4.679-10.449-10.449-10.449
	c-5.77,0-10.449,4.678-10.449,10.449v16.718C388.703,185.493,393.382,190.171,399.152,190.171z"/>
<path d="M399.152,256c5.77,0,10.449-4.678,10.449-10.449v-16.718c0-5.771-4.679-10.449-10.449-10.449
	c-5.77,0-10.449,4.678-10.449,10.449v16.718C388.703,251.322,393.382,256,399.152,256z"/>
<path d="M190.183,247.641H307.19c5.77,0,10.449-4.678,10.449-10.449v-29.235c0-5.771-4.679-10.449-10.449-10.449H190.183
	c-5.77,0-10.449,4.678-10.449,10.449v29.235C179.734,242.963,184.412,247.641,190.183,247.641z M200.632,218.406h96.109v8.337
	h-96.109L200.632,218.406L200.632,218.406z"/>
<path d="M190.183,312.664h61.985c5.77,0,10.449-4.678,10.449-10.449s-4.679-10.449-10.449-10.449h-51.536v-8.337h96.109v0.958
	c0,5.771,4.679,10.449,10.449,10.449c5.77,0,10.449-4.678,10.449-10.449V272.98c0-5.771-4.679-10.449-10.449-10.449H190.183
	c-5.77,0-10.449,4.678-10.449,10.449v29.235C179.734,307.986,184.412,312.664,190.183,312.664z"/>
</svg>