<?xml version="1.0" encoding="utf-8"?>
<!-- Uploaded to: SVG Repo, www.svgrepo.com, Generator: SVG Repo Mixer Tools -->
<svg width="800px" height="800px" viewBox="0 0 32 32" fill="none" xmlns="http://www.w3.org/2000/svg">
<g clip-path="url(#clip0_901_2927)">
<path d="M20.9998 3V31H30.9998V16.999H29.9998H26.9998H24.0008V11V3H20.9998Z" fill="#FFE6EA"/>
<path d="M21 3V31H18V19H4V31H1V2C1 1.45 1.45 1 2 1H20C20.55 1 21 1.45 21 2V3Z" fill="#FFC44D"/>
<path d="M4 31H18V19H4V31Z" fill="#FFE6EA"/>
<path d="M5 13H17V7H5V13Z" fill="#668077"/>
<path d="M21 28V2C21 1.447 20.553 1 20 1H2C1.447 1 1 1.447 1 2V31H4V19H18V31H31V17H24V3H31M8 31H14M8 27H14M8 23H14M11 7V13M31 11H24M27 17V11M30 17V11M5 13H17V7H5V13Z" stroke="#000000" stroke-width="2" stroke-linecap="round" stroke-linejoin="round"/>
</g>
<defs>
<clipPath id="clip0_901_2927">
<rect width="32" height="32" fill="white"/>
</clipPath>
</defs>
</svg>