<svg version="1.1" xmlns="http://www.w3.org/2000/svg" xmlns:xlink="http://www.w3.org/1999/xlink" width="1560" height="804"><defs/><g><path fill="none" stroke="#02063B" paint-order="fill stroke markers" d=" M 381 360.05272236598205 L 382 360.08229604571875 L 383 360.118419281417 L 384 360.1610864288947 L 385 360.2102908214968 L 386 360.2660247711371 L 387 360.3282795694994 L 388 360.39704548939807 L 389 360.472311786298 L 390 360.5540666999935 L 391 360.64229745644553 L 392 360.73699026977806 L 393 360.8381303444315 L 394 360.945701877475 L 395 361.05968806107546 L 396 361.18007108512353 L 397 361.3068321400166 L 398 361.4399514195978 L 399 361.57940812425045 L 400 361.7251804641482 L 401 361.8772456626595 L 402 362.03557995990656 L 403 362.20015861647744 L 404 362.3709559172919 L 405 362.54794517561925 L 406 362.7310987372479 L 407 362.92038798480655 L 408 363.11578334223526 L 409 363.317254279407 L 410 363.5247693168978 L 411 363.73829603090513 L 412 363.95780105831443 L 413 364.18325010191165 L 414 364.41460793574254 L 415 364.6518384106162 L 416 364.89490445975355 L 417 365.14376810457895 L 418 365.3983904606542 L 419 365.65873174375423 L 420 365.92475127608316 L 421 366.19640749263027 L 422 366.4736579476645 L 423 366.75645932136615 L 424 367.04476742659614 L 425 367.3385372157995 L 426 367.6377227880443 L 427 367.94227739619356 L 428 368.25215345420946 L 429 368.5673025445883 L 430 368.887675425926 L 431 369.2132220406114 L 432 369.54389152264855 L 433 369.87963220560346 L 434 370.2203916306775 L 435 370.5661165549039 L 436 370.9167529594664 L 437 371.2722460581404 L 438 371.6325403058523 L 439 371.997579407359 L 440 372.36730632604355 L 441 372.74166329282707 L 442 373.1205918151952 L 443 373.50403268633715 L 444 373.891925994397 L 445 374.28421113183447 L 446 374.68082680489505 L 447 375.0817110431866 L 448 375.4868012093625 L 449 375.8960340089085 L 450 376.30934550003224 L 451 376.72667110365416 L 452 377.1479456134976 L 453 377.57310320627755 L 454 378.0020774519852 L 455 378.4348013242673 L 456 378.87120721089923 L 457 379.31122692434906 L 458 379.7547917124317 L 459 380.2018322690516 L 460 380.65227874503114 L 461 381.106060759025 L 462 381.56310740851666 L 463 382.0233472808969 L 464 382.4867084646222 L 465 382.9531185604502 L 466 383.42250469275234 L 467 383.8947935209004 L 468 384.3699112507259 L 469 384.8477836460502 L 470 385.3283360402836 L 471 385.81149334809237 L 472 386.29718007713007 L 473 386.7853203398334 L 474 387.27583786527947 L 475 387.76865601110285 L 476 388.2636977754709 L 477 388.7608858091151 L 478 389.26014242741667 L 479 389.76138962254487 L 480 390.2645490756451 L 481 390.7695421690766 L 482 391.27628999869586 L 483 391.78471338618544 L 484 392.2947328914255 L 485 392.806268824906 L 486 393.31924126017805 L 487 393.8335700463422 L 488 394.349174820572 L 489 394.86597502067053 L 490 395.383889897658 L 491 395.9028385283885 L 492 396.4227398281943 L 493 396.943512563555 L 494 397.46507536479027 L 495 397.98734673877357 L 496 398.5102450816652 L 497 399.03368869166286 L 498 399.55759578176753 L 499 400.08188449256227 L 500 400.6064729050026 L 501 401.1312790532165 L 502 401.6562209373108 L 503 402.1812165361843 L 504 402.7061838203427 L 505 403.2310407647159 L 506 403.75570536147416 L 507 404.28009563284166 L 508 404.80412964390536 L 509 405.32772551541717 L 510 405.85080143658746 L 511 406.37327567786775 L 512 406.89506660372075 L 513 407.4160926853759 L 514 407.9362725135679 L 515 408.4555248112571 L 516 408.9737684463282 L 517 409.49092244426765 L 518 410.00690600081543 L 519 410.5216384945906 L 520 411.03503949968825 L 521 411.5470287982458 L 522 412.05752639297697 L 523 412.5664525196712 L 524 413.0737276596567 L 525 413.5792725522248 L 526 414.08300820701453 L 527 414.5848559163548 L 528 415.0847372675619 L 529 415.58257415519176 L 530 416.0782887932436 L 531 416.5718037273137 L 532 417.0630418466976 L 533 417.55192639643866 L 534 418.0383809893206 L 535 418.52232961780294 L 536 419.0036966658971 L 537 419.4824069209812 L 538 419.95838558555164 L 539 420.43155828891065 L 540 420.9018510987859 L 541 421.3691905328827 L 542 421.8335035703653 L 543 422.2947176632661 L 544 422.7527607478215 L 545 423.20756125573155 L 546 423.65904812534194 L 547 424.10715081274805 L 548 424.55179930281645 L 549 424.9929241201254 L 550 425.4304563398195 L 551 425.86432759837965 L 552 426.2944701043044 L 553 426.7208166487023 L 554 427.14330061579324 L 555 427.5618559933169 L 556 427.976417382847 L 557 428.38692001000993 L 558 428.79329973460534 L 559 429.19549306062805 L 560 429.59343714618916 L 561 429.9870698133348 L 562 430.3763295577617 L 563 430.7611555584267 L 564 431.1414876870501 L 565 431.51726651751056 L 566 431.8884333351304 L 567 432.2549301458495 L 568 432.6166996852868 L 569 432.97368542768777 L 570 433.3258315947565 L 571 433.6730831643707 L 572 434.0153858791793 L 573 434.3526862550793 L 574 434.68493158957335 L 575 435.01206997000384 L 576 435.3340502816644 L 577 435.65082221578643 L 578 435.96233627739963 L 579 436.26854379306565 L 580 436.5693969184832 L 581 436.86484864596355 L 582 437.15485281177524 L 583 437.43936410335743 L 584 437.7183380663997 L 585 437.9917311117879 L 586 438.2595005224148 L 587 438.52160445985487 L 588 438.7780019709011 L 589 439.028652993964 L 590 439.27351836533114 L 591 439.51255982528653 L 592 439.7457400240883 L 593 439.97302252780486 L 594 440.1943718240073 L 595 440.4097533273185 L 596 440.6191333848168 L 597 440.8224792812941 L 598 441.0197592443678 L 599 441.21094244944504 L 600 441.39599902453904 L 601 441.5749000549364 L 602 441.74761758771507 L 603 441.91412463611204 L 604 442.0743951837396 L 605 442.2284041886509 L 606 442.3761275872522 L 607 442.517542298063 L 608 442.6526262253224 L 609 442.7813582624417 L 610 442.9037182953019 L 611 443.0196872053969 L 612 443.1292468728204 L 613 443.2323801790972 L 614 443.3290710098581 L 615 443.4193042573575 L 616 443.503065822834 L 617 443.5803426187135 L 618 443.65112257065374 L 619 443.7153946194313 L 620 443.7731487226694 L 621 443.8243758564068 L 622 443.8690680165081 L 623 443.90721821991417 L 624 443.9388205057334 L 625 443.96386993617296 L 626 443.9823625973102 L 627 443.9942955997045 L 628 443.9996670788486 L 629 443.99847619545966 L 630 443.9907231356109 L 631 443.97640911070204 L 632 443.95553635727043 L 633 443.9281081366413 L 634 443.89412873441836 L 635 443.85360345981405 L 636 443.80653864482 L 637 443.752941643218 L 638 443.6928208294303 L 639 443.6261855972118 L 640 443.55304635818203 L 641 443.47341454019823 L 642 443.38730258556996 L 643 443.29472394911494 L 644 443.1956930960568 L 645 443.09022549976476 L 646 442.97833763933625 L 647 442.8600469970218 L 648 442.7353720554936 L 649 442.60433229495766 L 650 442.4669481901099 L 651 442.32324120693727 L 652 442.1732337993634 L 653 442.0169494057406 L 654 441.85441244518745 L 655 441.68564831377336 L 656 441.51068338055046 L 657 441.3295449834336 L 658 441.14226142492885 L 659 440.9488619677112 L 660 440.7493768300523 L 661 440.5438371810991 L 662 440.3322751360036 L 663 440.1147237509049 L 664 439.89121701776435 L 665 439.66178985905424 L 666 439.4264781223013 L 667 439.1853185744858 L 668 438.9383488962963 L 669 438.6856076762427 L 670 438.4271344046263 L 671 438.16296946737003 L 672 437.8931541397078 L 673 437.6177305797357 L 674 437.33674182182455 L 675 437.0502317698962 L 676 436.75824519056334 L 677 436.46082770613486 L 678 436.1580257874877 L 679 435.8498867468055 L 680 435.5364587301866 L 681 435.2177907101208 L 682 434.893932477838 L 683 434.56493463552806 L 684 434.23084858843447 L 685 433.8917265368225 L 686 433.54762146782264 L 687 433.19858714715184 L 688 432.8446781107128 L 689 432.48594965607214 L 690 432.12245783382133 L 691 431.75425943881794 L 692 431.38141200131207 L 693 431.00397377795736 L 694 430.6220037427082 L 695 430.23556157760567 L 696 429.8447076634517 L 697 429.44950307037516 L 698 429.05000954828984 L 699 428.6462895172456 L 700 428.23840605767606 L 701 427.82642290054196 L 702 427.4104044173733 L 703 426.99041561021176 L 704 426.566522101454 L 705 426.13879012359837 L 706 425.7072865088962 L 707 425.2720786789092 L 708 424.83323463397574 L 709 424.39082294258463 L 710 423.9449127306629 L 711 423.49557367077375 L 712 423.0428759712312 L 713 422.5868903651297 L 714 422.1276880992926 L 715 421.66534092313964 L 716 421.1999210774765 L 717 420.73150128320714 L 718 420.2601547299714 L 719 419.7859550647093 L 720 419.30897638015375 L 721 418.8292932032539 L 722 418.34698048353005 L 723 417.86211358136353 L 724 417.3747682562213 L 725 416.8850206548189 L 726 416.3929472992227 L 727 415.89862507489335 L 728 415.40213121867276 L 729 414.9035433067158 L 730 414.40293924236937 L 731 413.90039724400003 L 732 413.3959958327726 L 733 412.8898138203814 L 734 412.38193029673596 L 735 411.8724246176037 L 736 411.3613763922104 L 737 410.8488654708014 L 738 410.33497193216556 L 739 409.81977607112276 L 740 409.3033583859782 L 741 408.7857995659445 L 742 408.26718047853416 L 743 407.7475821569247 L 744 407.2270857872966 L 745 406.70577269614876 L 746 406.183724337591 L 747 405.6610222806172 L 748 405.13774819636046 L 749 404.6139838453317 L 750 404.0898110646453 L 751 403.5653117552318 L 752 403.040567869041 L 753 402.5156613962379 L 754 401.99067435239056 L 755 401.4656887656568 L 756 400.9407866639663 L 757 400.4160500622046 L 758 399.8915609493982 L 759 399.3674012759037 L 760 398.843652940604 L 761 398.32039777811076 L 762 397.7977175459784 L 763 397.2756939119301 L 764 396.7544084410964 L 765 396.2339425832717 L 766 395.7143776601874 L 767 395.19579485280553 L 768 394.67827518863487 L 769 394.1618995290699 L 770 393.64674855675696 L 771 393.13290276298744 L 772 392.62044243512105 L 773 392.1094476440416 L 774 391.59999823164543 L 775 391.0921737983669 L 776 390.5860536907404 L 777 390.0817169890031 L 778 389.57924249473865 L 779 389.0787087185643 L 780 388.5801938678645 L 781 388.0837758345703 L 782 387.58953218298944 L 783 387.097540137687 L 784 386.607876571419 L 785 386.1206179931216 L 786 385.6358405359563 L 787 385.15361994541433 L 788 384.67403156748213 L 789 384.1971503368678 L 790 383.72305076529364 L 791 383.25180692985305 L 792 382.7834924614365 L 793 382.31818053322706 L 794 381.8559438492666 L 795 381.3968546330969 L 796 380.9409846164737 L 797 380.4884050281597 L 798 380.03918658279485 L 799 379.59339946984727 L 800 379.15111334264645 L 801 378.71239730749994 L 802 378.27731991289556 L 803 377.8459491387911 L 804 377.4183523859925 L 805 376.9945964656223 L 806 376.5747475886811 L 807 376.1588713557015 L 808 375.747032746499 L 809 375.3392961100182 L 810 374.93572515427934 L 811 374.5363829364229 L 812 374.14133185285806 L 813 373.750633629513 L 814 373.36434931219003 L 815 372.982539257028 L 816 372.60526312107123 L 817 372.2325798529483 L 818 371.8645476836617 L 819 371.5012241174891 L 820 371.1426659229986 L 821 370.78892912417854 L 822 370.44006899168403 L 823 370.0961400342011 L 824 369.7571959899295 L 825 369.4232898181868 L 826 369.0944736911328 L 827 368.77079898561846 L 828 368.45231627515795 L 829 368.1390753220269 L 830 367.8311250694869 L 831 367.52851363413845 L 832 367.23128829840255 L 833 366.9394955031333 L 834 366.65318084036124 L 835 366.37238904617 L 836 366.09716399370615 L 837 365.82754868632406 L 838 365.56358525086716 L 839 365.30531493108504 L 840 365.05277808118984 L 841 364.80601415955056 L 842 364.56506172252784 L 843 364.32995841844985 L 844 364.1007409817294 L 845 363.8774452271248 L 846 363.6601060441433 L 847 363.44875739159005 L 848 363.2434322922621 L 849 363.04416282778845 L 850 362.85098013361755 L 851 362.6639143941523 L 852 362.48299483803385 L 853 362.3082497335749 L 854 362.1397063843424 L 855 361.97739112489177 L 856 361.8213293166521 L 857 361.67154534396343 L 858 361.5280626102667 L 859 361.39090353444726 L 860 361.2600895473315 L 861 361.13564108833884 L 862 361.0175776022879 L 863 360.905917536358 L 864 360.80067833720733 L 865 360.70187644824676 L 866 360.60952730707027 L 867 360.5236453430434 L 868 360.44424397504827 L 869 360.371335609387 L 870 360.30493163784354 L 871 360.24504243590326 L 872 360.1916773611322 L 873 360.1448447517145 L 874 360.10455192515036 L 875 360.0708051771119 L 876 360.0436097804597 L 877 360.02296998441926 L 878 360.00888901391676 L 879 360.0013690690751 L 880 360.00041132487047 L 881 360.00601593094837 L 882 360.01818201160046 L 883 360.03690766590154 L 884 360.0621899680061 L 885 360.0940249676059 L 886 360.13240769054704 L 887 360.1773321396072 L 888 360.2287912954325 L 889 360.28677711763453 L 890 360.35128054604667 L 891 360.4222915021394 L 892 360.4997988905953 L 893 360.58379060104255 L 894 360.6742535099474 L 895 360.77117348266427 L 896 360.87453537564465 L 897 360.9843230388031 L 898 361.10051931804054 L 899 361.2231060579247 L 900 361.352064104527 L 901 361.48737330841493 L 902 361.6290125278008 L 903 361.77695963184453 L 904 361.93119150411223 L 905 362.0916840461877 L 906 362.2584121814376 L 907 362.4313498589302 L 908 362.61047005750515 L 909 362.79574478999575 L 910 362.98714510760215 L 911 363.18464110441397 L 912 363.3882019220836 L 913 363.59779575464745 L 914 363.81338985349555 L 915 364.03495053248855 L 916 364.2624431732212 L 917 364.4958322304311 L 918 364.73508123755306 L 919 364.98015281241635 L 920 365.231008663086 L 921 365.4876095938457 L 922 365.7499155113222 L 923 366.0178854307494 L 924 366.2914774823726 L 925 366.5706489179904 L 926 366.85535611763396 L 927 367.14555459638257 L 928 367.4411990113142 L 929 367.74224316859073 L 930 368.0486400306749 L 931 368.36034172368045 L 932 368.67729954485196 L 933 368.9994639701747 L 934 369.32678466211274 L 935 369.65921047747383 L 936 369.9966894754006 L 937 370.3391689254863 L 938 370.68659531601367 L 939 371.0389143623159 L 940 371.3960710152589 L 941 371.75800946984214 L 942 372.12467317391867 L 943 372.49600483703045 L 944 372.87194643936084 L 945 373.25243924079916 L 946 373.6374237901193 L 947 374.0268399342689 L 948 374.42062682776736 L 949 374.818722942214 L 950 375.22106607590064 L 951 375.6275933635314 L 952 376.0382412860446 L 953 376.45294568053777 L 954 376.87164175029307 L 955 377.29426407490126 L 956 377.7207466204841 L 957 378.1510227500115 L 958 378.5850252337136 L 959 379.0226862595853 L 960 379.4639374439817 L 961 379.908709842303 L 962 380.3569339597669 L 963 380.8085397622667 L 964 381.2634566873149 L 965 381.72161365506724 L 966 382.18293907942973 L 967 382.64736087924337 L 968 383.1148064895467 L 969 383.58520287291435 L 970 384.05847653086823 L 971 384.5345535153622 L 972 385.0133594403361 L 973 385.4948194933382 L 974 385.9788584472148 L 975 386.465400671864 L 976 386.9543701460532 L 977 387.4456904692969 L 978 387.939284873794 L 979 388.43507623642324 L 980 388.93298709079266 L 981 389.4329396393444 L 982 389.93485576550995 L 983 390.4386570459156 L 984 390.94426476263635 L 985 391.4515999154951 L 986 391.96058323440633 L 987 392.4711351917622 L 988 392.9831760148578 L 989 393.49662569835647 L 990 394.01140401678964 L 991 394.52743053709247 L 992 395.044624631171 L 993 395.5629054885002 L 994 396.08219212875065 L 995 396.60240341444114 L 996 397.12345806361674 L 997 397.6452746625487 L 998 398.16777167845487 L 999 398.69086747223974 L 1000 399.2144803112496 L 1001 399.7385283820436 L 1002 400.26292980317714 L 1003 400.7876026379948 L 1004 401.31246490743365 L 1005 401.83743460283193 L 1006 402.36242969874274 L 1007 402.88736816575056 L 1008 403.41216798328776 L 1009 403.93674715245066 L 1010 404.46102370881124 L 1011 404.98491573522426 L 1012 405.5083413746265 L 1013 406.03121884282666 L 1014 406.5534664412841 L 1015 407.0750025698741 L 1016 407.59574573963755 L 1017 408.1156145855138 L 1018 408.6345278790532 L 1019 409.1524045411095 L 1020 409.66916365450766 L 1021 410.1847244766877 L 1022 410.69900645232 L 1023 411.2119292258923 L 1024 411.7234126542646 L 1025 412.23337681919196 L 1026 412.741742039811 L 1027 413.2484288850904 L 1028 413.7533581862413 L 1029 414.25645104908784 L 1030 414.7576288663936 L 1031 415.25681333014427 L 1032 415.7539264437831 L 1033 416.24889053439733 L 1034 416.7416282648549 L 1035 417.23206264588777 L 1036 417.7201170481218 L 1037 418.2057152140496 L 1038 418.6887812699456 L 1039 419.1692397377214 L 1040 419.64701554671893 L 1041 420.12203404544 L 1042 420.5942210132107 L 1043 421.0635026717779 L 1044 421.5298056968373 L 1045 421.99305722948975 L 1046 422.45318488762587 L 1047 422.9101167772353 L 1048 423.3637815036397 L 1049 423.81410818264874 L 1050 424.26102645163485 L 1051 424.7044664805278 L 1052 425.1443589827254 L 1053 425.5806352259189 L 1054 426.01322704283314 L 1055 426.4420668418767 L 1056 426.86708761770336 L 1057 427.2882229616818 L 1058 427.7054070722712 L 1059 428.11857476530315 L 1060 428.527661484166 L 1061 428.9326033098924 L 1062 429.33333697114585 L 1063 429.7297998541071 L 1064 430.1219300122573 L 1065 430.50966617605695 L 1066 430.8929477625193 L 1067 431.27171488467644 L 1068 431.6459083609359 L 1069 432.01546972432845 L 1070 432.3803412316429 L 1071 432.74046587244845 L 1072 433.09578737800285 L 1073 433.4462502300436 L 1074 433.79179966946316 L 1075 434.13238170486454 L 1076 434.46794312099775 L 1077 434.79843148707414 L 1078 435.1237951649589 L 1079 435.4439833172394 L 1080 435.75894591516806 L 1081 436.0686337464799 L 1082 436.3729984230814 L 1083 436.6719923886109 L 1084 436.96556892586966 L 1085 437.253682164121 L 1086 437.53628708625763 L 1087 437.81333953583544 L 1088 438.08479622397283 L 1089 438.35061473611455 L 1090 438.61075353865886 L 1091 438.8651719854471 L 1092 439.1138303241147 L 1093 439.35668970230194 L 1094 439.59371217372524 L 1095 439.8248607041056 L 1096 440.0500991769554 L 1097 440.26939239922154 L 1098 440.4827061067842 L 1099 440.6900069698105 L 1100 440.89126259796234 L 1101 441.0864415454573 L 1102 441.27551331598204 L 1103 441.4584483674569 L 1104 441.6352181166524 L 1105 441.80579494365475 L 1106 441.97015219618186 L 1107 442.1282641937474 L 1108 442.28010623167336 L 1109 442.42565458495034 L 1110 442.5648865119441 L 1111 442.6977802579495 L 1112 442.824315058589 L 1113 442.9444711430574 L 1114 443.05822973721104 L 1115 443.165573066501 L 1116 443.2664843587504 L 1117 443.3609478467752 L 1118 443.4489487708476 L 1119 443.5304733810022 L 1120 443.6055089391846 L 1121 443.67404372124133 L 1122 443.7360670187523 L 1123 443.79156914070336 L 1124 443.8405414150009 L 1125 443.88297618982676 L 1126 443.91886683483364 L 1127 443.94820774218124 L 1128 443.97099432741254 L 1129 443.98722303016996 L 1130 443.9968913147517 L 1131 443.9999976705079 L 1132 443.99654161207695 L 1133 443.9865236794608 L 1134 443.9699454379411 L 1135 443.94680947783434 L 1136 443.9171194140872 L 1137 443.8808798857118 L 1138 443.83809655506064 L 1139 443.7887761069422 L 1140 443.732926247576 L 1141 443.67055570338914 L 1142 443.60167421965207 L 1143 443.5262925589566 L 1144 443.44442249953374 L 1145 443.35607683341385 L 1146 443.26126936442745 L 1147 443.1600149060487 L 1148 443.05232927908065 L 1149 442.93822930918355 L 1150 442.81773282424547 L 1151 442.69085865159707 L 1152 442.55762661506964 L 1153 442.41805753189794 L 1154 442.27217320946716 L 1155 442.119996441906 L 1156 441.9615510065246 L 1157 441.79686166010003 L 1158 441.6259541350076 L 1159 441.44885513520035 L 1160 441.2655923320367 L 1161 441.0761943599568 L 1162 440.8806908120085 L 1163 440.67911223522333 L 1164 440.47149012584384 L 1165 440.2578569244023 L 1166 440.0382460106517 L 1167 439.8126916983505 L 1168 439.58122922990117 L 1169 439.34389477084346 L 1170 439.1007254042038 L 1171 438.85175912470095 L 1172 438.5970348328095 L 1173 438.336592328682 L 1174 438.0704723059297 L 1175 437.7987163452648 L 1176 437.52136690800324 L 1177 437.2384673294303 L 1178 436.9500618120296 L 1179 436.65619541857654 L 1180 436.35691406509716 L 1181 436.05226451369407 L 1182 435.7422943652398 L 1183 435.42705205193954 L 1184 435.1065868297633 L 1185 434.7809487707501 L 1186 434.4501887551841 L 1187 434.11435846364486 L 1188 433.7735103689322 L 1189 433.4276977278673 L 1190 433.07697457297206 L 1191 432.72139570402567 L 1192 432.361016679503 L 1193 431.99589380789354 L 1194 431.626084138903 L 1195 431.2516454545399 L 1196 430.87263626008695 L 1197 430.48911577495943 L 1198 430.10114392345315 L 1199 429.70878132538036 L 1200 429.3120892865989 L 1201 428.9111297894327 L 1202 428.50596548298745 L 1203 428.0966596733617 L 1204 427.6832763137555 L 1205 427.2658799944778 L 1206 426.8445359328543 L 1207 426.4193099630373 L 1208 425.9902685257195 L 1209 425.55747865775265 L 1210 425.12100798167313 L 1211 424.68092469513607 L 1212 424.2372975602595 L 1213 423.7901958928809 L 1214 423.339689551726 L 1215 422.8858489274942 L 1216 422.42874493185957 L 1217 421.9684489863915 L 1218 421.5050330113951 L 1219 421.0385694146734 L 1220 420.5691310802147 L 1221 420.0967913568034 L 1222 419.62162404656044 L 1223 419.14370339341133 L 1224 418.6631040714857 L 1225 418.17990117345 L 1226 417.69417019877386 L 1227 417.2059870419338 L 1228 416.715427980555 L 1229 416.22256966349255 L 1230 415.7274890988561 L 1231 415.2302636419764 L 1232 414.7309709833195 L 1233 414.2296891363476 L 1234 413.72649642532934 L 1235 413.22147147310216 L 1236 412.71469318878735 L 1237 412.20624075546067 L 1238 411.6961936177806 L 1239 411.1846314695745 L 1240 410.67163424138744 L 1241 410.1572820879926 L 1242 409.64165537586734 L 1243 409.1248346706366 L 1244 408.6069007244839 L 1245 408.08793446353485 L 1246 407.5680169752117 L 1247 407.0472294955642 L 1248 406.5256533965767 L 1249 406.0033701734532 L 1250 405.48046143188515 L 1251 404.95700887529927 L 1252 404.43309429209256 L 1253 403.90879954285293 L 1254 403.3842065475681 L 1255 402.85939727282647 L 1256 402.3344537190094 L 1257 401.80945790747904 L 1258 401.2844918677631 L 1259 400.759637624737 L 1260 400.2349771858087 L 1261 399.71059252810414 L 1262 399.1865655856592 L 1263 398.6629782366176 L 1264 398.1399122904374 L 1265 397.6174494751085 L 1266 397.09567142438283 L 1267 396.5746596650192 L 1268 396.0544956040452 L 1269 395.5352605160369 L 1270 395.0170355304205 L 1271 394.4999016187958 L 1272 393.98393958228405 L 1273 393.4692300389041 L 1274 392.9558534109746 L 1275 392.4438899125495 L 1276 391.93341953688366 L 1277 391.42452204393476 L 1278 390.9172769479008 L 1279 390.4117635047959 L 1280 389.90806070006727 L 1281 389.40624723625325 L 1282 388.90640152068664 L 1283 388.4086016532434 L 1284 387.91292541414043 L 1285 387.41945025178137 L 1286 386.92825327065646 L 1287 386.4394112192946 L 1288 385.95300047827163 L 1289 385.4690970482765 L 1290 384.9877765382356 L 1291 384.50911415349935 L 1292 384.03318468409145 L 1293 383.56006249302317 L 1294 383.08982150467455 L 1295 382.62253519324315 L 1296 382.1582765712644 L 1297 381.6971181782036 L 1298 381.2391320691212 L 1299 380.7843898034152 L 1300 380.3329624336394 L 1301 379.8849204944019 L 1302 379.4403339913441 L 1303 378.9992723902025 L 1304 378.5618046059553 L 1305 378.12799899205345 L 1306 377.6979233297416 L 1307 377.2716448174671 L 1308 376.84923006038 L 1309 376.43074505992706 L 1310 376.0162552035379 L 1311 375.60582525440947 L 1312 375.19951934138624 L 1313 374.7974009489403 L 1314 374.3995329072527 L 1315 374.0059773823953 L 1316 373.6167958666183 L 1317 373.2320491687416 L 1318 372.85179740465395 L 1319 372.47609998792007 L 1320 372.10501562049683 L 1321 371.7386022835617 L 1322 371.3769172284532 L 1323 371.02001696772504 L 1324 370.6679572663173 L 1325 370.3207931328417 L 1326 369.978578810988 L 1327 369.6413677710476 L 1328 369.3092127015595 L 1329 368.9821655010776 L 1330 368.6602772700615 L 1331 368.34359830289253 L 1332 368.03217808001494 L 1333 367.72606526020496 L 1334 367.42530767296796 L 1335 367.12995231106504 L 1336 366.8400453231706 L 1337 366.5556320066617 L 1338 366.2767568005403 L 1339 366.00346327849013 L 1340 365.73579414206796 L 1341 365.47379121403173 L 1342 365.21749543180596 L 1343 364.9669468410851 L 1344 364.7221845895768 L 1345 364.4832469208849 L 1346 364.25017116853394 L 1347 364.0229937501361 L 1348 363.80175016170074 L 1349 363.5864749720885 L 1350 363.37720181760983 L 1351 363.17396339676924 L 1352 362.9767914651565 L 1353 362.78571683048483 L 1354 362.6007693477772 L 1355 362.4219779147014 L 1356 362.2493704670552 L 1357 362.0829739744011 L 1358 361.92281443585244 L 1359 361.7689168760114 L 1360 361.6213053410586 L 1361 361.480002894996 L 1362 361.34503161604334 L 1363 361.21641259318835 L 1364 361.0941659228917 L 1365 360.9783107059469 L 1366 360.86886504449586 L 1367 360.7658460392006 L 1368 360.66926978657096 L 1369 360.5791513764501 L 1370 360.49550488965616 L 1371 360.41834339578253 L 1372 360.3476789511557 L 1373 360.28352259695123 L 1374 360.2258843574691 L 1375 360.1747732385669 L 1376 360.13019722625296 L 1377 360.0921632854386 L 1378 360.0606773588495 L 1379 360.0357443660978 L 1380 360.01736820291285 L 1381 360.0055517405328 L 1382 360.00029682525576 L 1383 360.00160427815166 L 1384 360.00947389493354 L 1385 360.02390444598984 L 1386 360.0448936765763 L 1387 360.0724383071684 L 1388 360.1065340339736 L 1389 360.14717552960394 L 1390 360.1943564439084 L 1391 360.24806940496524 L 1392 360.30830602023343 L 1393 360.37505687786444 L 1394 360.4483115481725 L 1395 360.52805858526455 L 1396 360.61428552882813 L 1397 360.70697890607886 L 1398 360.80612423386515 L 1399 360.9117060209311 L 1400 361.0237077703374 L 1401 361.1421119820385 L 1402 361.2669001556173 L 1403 361.3980527931755 L 1404 361.5355494023803 L 1405 361.6793684996663 L 1406 361.8294876135921 L 1407 361.9858832883516 L 1408 362.1485310874388 L 1409 362.31740559746595 L 1410 362.49248043213447 L 1411 362.67372823635765 L 1412 362.8611206905348 L 1413 363.0546285149763 L 1414 363.25422147447813 L 1415 363.45986838304646 L 1416 363.6715371087703 L 1417 363.88919457884174 L 1418 364.11280678472417 L 1419 364.3423387874651 L 1420 364.57775472315615 L 1421 364.8190178085364 L 1422 365.06609034673954 L 1423 365.3189337331842 L 1424 365.5775084616056 L 1425 365.8417741302285 L 1426 366.1116894480798 L 1427 366.3872122414403 L 1428 366.66829946043407 L 1429 366.95490718575496 L 1430 367.246990635529 L 1431 367.54450417231146 L 1432 367.8474013102175 L 1433 368.1556347221856 L 1434 368.46915624737204 L 1435 368.7879168986766 L 1436 369.11186687039583 L 1437 369.4409555460059 L 1438 369.7751315060708 L 1439 370.11434253627647 L 1440 370.4585356355896 L 1441 370.80765702453874 L 1442 371.1616521536172 L 1443 371.52046571180625 L 1444 371.8840416352173 L 1445 372.25232311585205 L 1446 372.6252526104785 L 1447 373.0027718496218 L 1448 373.384821846669 L 1449 373.7713429070851 L 1450 374.16227463774095 L 1451 374.55755595634895 L 1452 374.95712510100725 L 1453 375.36091963985 L 1454 375.7688764808019 L 1455 376.1809318814366 L 1456 376.59702145893607 L 1457 377.01708020015036 L 1458 377.44104247175585 L 1459 377.86884203050994 L 1460 378.3004120336021 L 1461 378.7356850490973 L 1462 379.1745930664724 L 1463 379.6170675072429 L 1464 380.06303923567725 L 1465 380.5124385696005 L 1466 380.9651952912808 L 1467 381.4212386584017 L 1468 381.880497415115 L 1469 382.34289980317396 L 1470 382.80837357314647 L 1471 383.2768459957029 L 1472 383.7482438729803 L 1473 384.22249355001964 L 1474 384.6995209262734 L 1475 385.1792514671847 L 1476 385.6616102158325 L 1477 386.1465218046438 L 1478 386.63391046716936 L 1479 387.1237000499221 L 1480 387.6158140242763 L 1481 388.1101754984246 L 1482 388.60670722939255 L 1483 389.1053316351074 L 1484 389.6059708065201 L 1485 390.1085465197786 L 1486 390.6129802484503 L 1487 391.1191931757914 L 1488 391.6271062070619 L 1489 392.1366399818839 L 1490 392.6477148866417 L 1491 393.1602510669213 L 1492 393.67416843998734 L 1493 394.18938670729585 L 1494 394.7058253670406 L 1495 395.22340372673176 L 1496 395.74204091580367 L 1497 396.2616558982507 L 1498 396.7821674852891 L 1499 397.3034943480422 L 1500 397.8255550302484 L 1501 398.3482679609882 L 1502 398.87155146742964 L 1503 399.3953237875897 L 1504 399.91950308310857 L 1505 400.44400745203797 L 1506 400.96875494163726 L 1507 401.49366356117895 L 1508 402.01865129475914 L 1509 402.54363611411236 L 1510 403.06853599142875 L 1511 403.5932689121704 L 1512 404.11775288788607 L 1513 404.6419059690217 L 1514 405.16564625772446 L 1515 405.6888919206399 L 1516 406.2115612016978 L 1517 406.73357243488636 L 1518 407.2548440570125 L 1519 407.7752946204456 L 1520 408.294842805844 L 1521 408.81340743486084 L 1522 409.3309074828278 L 1523 409.8472620914154 L 1524 410.3623905812663 L 1525 410.87621246460213 L 1526 411.388647457799 L 1527 411.89961549393166 L 1528 412.4090367352843 L 1529 412.91683158582407 L 1530 413.42292070363874 L 1531 413.9272250133333 L 1532 414.4296657183855 L 1533 414.93016431345734 L 1534 415.42864259666146 L 1535 415.9250226817804 L 1536 416.41922701043563 L 1537 416.9111783642063 L 1538 417.40079987669446 L 1539 417.8880150455346" stroke-linecap="round" stroke-linejoin="round" stroke-miterlimit="10" stroke-width="16"/></g></svg>